<mxfile host="app.diagrams.net" modified="2021-10-24T15:11:48.668Z" agent="5.0 (Windows NT 10.0; Win64; x64) AppleWebKit/537.36 (KHTML, like Gecko) Chrome/95.0.4638.54 Safari/537.36 Edg/95.0.1020.30" etag="yKIx5OLIdE7InESe8HO8" version="15.5.9" type="github">
  <diagram id="5VYeb-__XL34vUIiBOIf" name="Page-1">
    <mxGraphModel dx="1038" dy="547" grid="1" gridSize="10" guides="1" tooltips="1" connect="1" arrows="1" fold="1" page="1" pageScale="1" pageWidth="827" pageHeight="1169" math="0" shadow="0">
      <root>
        <mxCell id="0" />
        <mxCell id="1" parent="0" />
        <mxCell id="3ASoaDRJVkE-flD1x3Yw-1" value="" style="shape=image;verticalLabelPosition=bottom;labelBackgroundColor=#ffffff;verticalAlign=top;aspect=fixed;imageAspect=0;image=data:image/jpeg,/9j/4AAQSkZJRgABAQAAAQABAAD/2wCEAAkGBxQTEhUUExQWFBUVGBcYGBcYFxQXGBgVFxQXFxQYFBcYHCggGBolHBQUITEhJSkrLi4uFx8zODMsNygtLisBCgoKBQUFDgUFDisZExkrKysrKysrKysrKysrKysrKysrKysrKysrKysrKysrKysrKysrKysrKysrKysrKysrK//AABEIANoAtAMBIgACEQEDEQH/xAAcAAABBQEBAQAAAAAAAAAAAAAEAAEDBQYCBwj/xAA/EAABAwIEBAQDBQUHBQEAAAABAAIRAwQSITFBBQZRYRMicZEygaEjQmKxwRQzUnLwBySCorLC0RVDkuHxY//EABQBAQAAAAAAAAAAAAAAAAAAAAD/xAAUEQEAAAAAAAAAAAAAAAAAAAAA/9oADAMBAAIRAxEAPwDxBMugE4Zsg4hJSOp90xag4SXeFNhQMmUgZvoirPhj6kkCGjc5BAGAktpY8luc3GSQImSMDP8Aydr8kTb8JtmHO4oCNQ1hqf8ACDCtaE4YFtn3NnTOdRzj2otHt5kP/wBWtSfKXd5Y36IMg5o2TOb2W0qXFsQ6XPAd+7+zEnriP/Celb2VUECo4GY8w0O8wgw8JlsrzlB7ml9uRWaNm/HHduqzNzZluv8AR79EAaRXbmQmhByU6chLCg5STwlCBkl00JIHITlO05arlxyiUDwuQEi5KUD5qWgwkgBpcSurS3dUMNCvuGvFKoWUxjJb9epQD0eGBkOrmD91u6tW35iAMDf4nbAdFXXV61jsyKlT+LUM/lG5VUXVKrplziUFpfXgdOOu+o3YNyEekoJ9yxnwslp3OZyVjZ8vO1eQ3tqVd0OAWzmgmm4O6F5g/LZBkn8XeRAwgdguKd1UziB8luBy/QblgbHufkjKfA7I2dV9SWOpmZBGIDaBvKDFUL/wzD6jjGhaARntBRtrxClVdFRzQHaksG3oU9G1aMmU8WWp39UZSfTa5rv2dpjUES13r0QQ3Foab8dFzm6Q+kS5vaW6tXdzxE1mxcNGQyqsAMncPG4Qd7w54xPpNNMOJ8kkiNoVDb3b6ZyMdf1BCAm94aMvD807a6IA0CNciFdcOrsdk2WVJmCfIeoHQqS5pftBdgbhc0ThP6IM9h7xKaSuqoIJELkuQNKSRKWLLRA0JJ5ToHIgeq5ckD9E7nfNBwpaFIuOijBV3wezMSBLneVs9dz6DdBLZtJBpUhBI87zlDUPX4h4bfDonL7zt3Hf0CK4vxOKYo04wsyLxrUduSVVW1uXuAAzP1QT8J4W6u6GiO527+i2vDLBtNsNbnu7cgdEbwz7Kh4TMMnNzoE/I9F1SdECJAQdMoNg4dd+q5p0i05jKN/0UmGHS3fTsEbeMnCEA7rYRId8kNxBrH2zmHykOnIZvnQE9lZV6XlbG2qB4g53gEtYHFjs41jYoALS1DWgHbYfqj6XDpBJ0UdCsYBIy76q6t7jE3DEdkGW4vijCwb69IVBxGg2vENZTeGxI0cfxd1s+JMFPQZquo8PDhJz39EHnlSi5hwuEHv+iuOFXLnxOT2fC7SfwOK0PE+GMqDCThcNHbDpKxlxbupuLXZEGcvoZQFcdp43F7WwPvDTC7cFUxC1VKuKzcTjAgCr8vgf+crPXlENc6DIByP9bIBSEiupXKB2hOuCEkEzKLnTAmBJ9E5oHDikdhOaiBKSCa3pFz2tAzJA91qb+qKVOGZEjw2ajyj948+pIE9kDy1YuqTHxVDgaegGb3D0Ee645gqNfXLGfBTGEfL4igrKLJMf/IW54XZNpsECXOEuO4GwHRV3KnAC/FVfDGsgw4EYx+HqtHRqAxI/+IJrG3mRpIUtK3wmHZDqk1wOQ8qldbOiNe6Ai1tWzrKKqU51GiCtHOacxqrJzfqgr7l07ZboF1IlrhBGWnUbqyuXBnzQPmJxAxGcnJBzaNbmDCtbcAaKmo0MyJknU9VZ2dIgwdEEXFKI+L6IGjSIBOyuLtkj0/JAtrZYYy/NBUXDsXlB+f8Ays9xzhZwl+7cz3C3DqDRmc1V3rA7bXWUHn3DLsU6nm8zHeVw6t3/ADVjx6waxs0wSwENxfhcJpnufiE9lUX9DA9zSIg5emyvbGuKtvgcdjTJ7jOmT/m90GWTKWuIOkKKUCSSSQOE7B8/1PRNhVjwOhjqt2AOI/4PMPcgBBtuEW37Pb1Xkj7NgYP53Cah9c2eyx1jRdUqBkRjdE+pWx5lq+HZ0mGMT5e7vOf+4eyp+W7Z7KNSv5TDQ1kmTjzjJBrBRwkMLsWAYRBkd80waZ0nsqvhPERhjR24PXdabhXDK1wfI0lp++Mmxvmgg8SNgCdozU9C8I1ErVWvJTG/G8n0VxT5VoATgcR/MgxVGqCJCla6ddlqq3KNIg4XOZ6wQqK/4TUoa+Zp0cND69EFTf28iQq64OIAx7dRqrqowkEeypqLIJGg/NA1N4EETOYI9OiOtbgOQ1NrQyoThOzQZkO2I6iFHYjzDqgt3jRBVLQEz/XyR3zUNdwaCQgBun4BGUqsq1S4Eboh1MkkuKDurgt0G+v5FBn+ZOHSwPaBiGTwBtsSqrl1uI1GOzBbI/mZmP1WvdTLwWkjzAgnQHJZLgTsFy0HXFEdpgoBOYKGGploYI+YBd9VVytZzZbYW6fCcE/4iT9C1ZJAk6ZJB0dVqeULHEZP3nNZ7kun/KVlsRXpPJlMNayW6hxPYsAj/UUEPM9D9qu20W1GN+6C44Q07j/SvSeT+SKdtY1qd2xtQlwd5XSch5S13eSvCr+sX3GIfx/XF/6C+kuB3/iWzGkS5ubidzAhBVt5KsGuZUFN7pzhz8vaFqaNSRga0U2DIBogD0QEHF1lWdrRj4vZBJQoAa6oghxHQIatUAIjZEUr0Rln1lANcswxJM+uSjDBUBY4ZH+gUVXa1x2UVC1M5H2KDC8SsDRqFh0ByPUKl4pTGRGS3fOVp5GuAzbkfmsJxRhLQgBpsxb555qwsmAgHL1VZhhum6s7J/k9EBVMSM0NVOcItgyQtUmUA9VgAJI+QVbWp4ugz+isr85BVNWo7pP0+qBq1MADPRYjidaLwucI8w07wto2i46x8uiz/NfCQaXjtdDmuDXA/QhAZzZTyqCcg0PHdz4H+1YAr0HiB8SnbPjE1zCHD0EAn3WArMgkHYkeyCNJKUkHTWzlrK9R4aAyk8/w0Wn5uBBz/wAIXmVp+8YOrm/mF6XcV8NpWGHM0wMW/wATskHntt5qze7h9SvpfhNItptEZwPeF87co2hqXlJo/iH0M/ovo+jVBw69MvogIpvLZO6ksnOLjqZznoVG+8bOGDl1yKNo1Gjb6oJKNMk6SoLiiWk5o3Flpn1n9EJVBnFCB3OEIqwjOPZQeXcZfqnpPExMSgh5kafCcO3qvNuIjyD1XovF3fZuk5QV55cgENadCdUFc7Jg7FGWeTShasYQB3hGW58olATTIhR1h0UzBkOyhqIBXVM4OaTqI2EKUUBqonPA9EANw8nICFlecT9iBP3vyWouq0LLc10z4BxEk49IEBp7oLDl5uKzYSJze30yxf7Vh+O0sNZ49D7iVtOVD/dAO7z7tj9VkeaCP2l8aeUezQCgqkk0pIJ7MTUYPxt/1BeicafFrUA3a33Dnrzq3MPaejgfYheicwt/upJGZaJ9yf1QB/2SibsiBAYTJGh2jovZrKoQc9tPVeIf2Z3fhXRBiHDWQIjuV7VTrh2wjqO6CwEO8xMlH2rMhllsqrAAcjkrPhUnFGYGg79UBt0/Qhc1akUwDlKgP1GaguK8tg7En3QdhyVvk4TsoaLpRcboK7mS6ApmRrkBpmsFVqHFIgwDHbqStFzTdh1TDOTdfVZtzyGvgyXBrcthqUEFJhce0fRHM0AUNkyQTmp6g0QTl2QUZXR0UaAW6rbf0ENUB06oqpbgnqnLB2JQBCjGZ2WV5xqDwj3cFqb0nroslzUJon1BQFcoVYoDoQR7vYsbxirirPP43D5AwPyW15Paf2ZxiSIHu5ufsFgr4/aP/nd/qKCGUkkkCXonFLmbUDIggzJzyYyI9yvO1vbOa1jnBIZkBEyw+Y+xHsgpuC24ZdNaw+IC3WO0lepcE4wabSHS4CI69/ZeUcs3NJlwHVi8CDhLf4jkJ7LcU25ZHMIPSrK+p1RLXDv1HqFaUWkEOaYI9j6Ly6nULsx8W+0ouhxB7Tq4fMoPT67w7TdC1KBGWvaVj7Tj1RozfI6EKwHMrtmA/OEGgoNg5+3dA8Z402kC0EOcdBOh6qjuuL1XiBDAemvuq3wc5Ofc6oIq9Ulp3JQmM4R3cfoFLVrfEB6KAv8AhA1iUFvQHlGUdly4bqOlcg5fVS4Qg5L8ly8wJOgXVR+WkqquKj3dckEr65donp5CSh7aqG5wnviXAYTl2/VBzXrtz6LKcyXAypZHFmeuFo2O2q0NszC4GoMTTkW+u4WG4ncA1qx2+Fp6AHM/RBouWyWWlU7ExPQYHH84Xn5M/qt1cv8AC4frBwkFv4qplp9mlYQoFhSSSQKVueQ67XMLHbOLflVED6tWGWj5JrEVXsbkXskfzMOIfqgqbygWPczdjiPY5Lf8GvGvpU3tnGR550kdFnucqTfEbWZ8Ndod6PGTlxyjxBrS6m4A4s2GdDug2xpmZad8u0ohtydwCgqQkZHPeD7Ip9Qhrcx3QECoD26omk0AQqukxx/T/wBqzYQBmgIbmobyvhy1JUrKuRQFTPM5dTv6BBA8d5Op7JnsOIR/CI/Vc1KogjPPuurr4vkB9EE1vRJ1VkTCqrVpJ1M/1qrJ6BnOgoWpcgaCVLWE9kJWpACdUCyeJaIKCqeXt0z/ADT2tSH66qs4pVOZ+XyQPxniYpsNSc9Gjq7/AICxvB7bx67WnRzsTzthmXeih4ldmo+ZJY2QJ+pWj5UtC1gP3rg4B+GkM3ujbJBxzzeyymIjxCXR/wDmzy0p/wAxWOVpzLxAVrh7hkxvkYNsDchHrr81VIEknSQNCO4Pe+BWp1dmuBI6g5OHsgoSQb7jHDg81KQmMJr0TsWnMhvosXTeWkPaYcMwPTVbPl+8dXtWlvmr2RkDd9B3xN76Ki5gtGEmvbZ0nRiA+47oUGm4RftqsDgYO/Y7yrV7Izy9Nl5pwy/NF+LUH4h19O63nDL9jxIMiEFqWlhGoy30+Smp1DMnTogaeI5ZmNBqi6dMuI+vRAe1+4TXMRmEHVuoMN23U7a2IToRogBrVMjAAU9d32nl6CR8tVDXZhBnqpKjoLnDcx7aoC6ldrAq+7vJOXsoJLjnkFyaXmlBZWVziEFAXtZ4JgSFGSWOyzG/6/JSXF60iUANpdHxCwCX6tAzkdlQcycVOdNpzPxdu3Yobi3GcNXFSMObkHDadYVJSY+o/C0FznH69SgM4Hw03FZtMZNGbj0aNZWu4ldijbVKwEeJNC2HRjf3rx65J+FcKNLDb0iPHqg+K/UU6X3i7puszzlxRlasGUf3FBvh0u4HxO+ZCChhJKUpQOkmlJB0mSSQWXAeLPtazarJyPmGzm7gra39NtP7SnTDrW4bicBnhefy1XnQK0PLXM1S1JblUouyfScJBHboUAvEuEYfPROOn21b/Mh+F8RdQfiGc/EDoR2WrueFMe39o4a4uaP3lE/E3tB+IaqnubWhWMA+BU6OnAT26INDwvjjKg8pg9DqCrRt07Ykrzi54PWpHMHsRmI6yFLZceq08nEvb0P6IPRKbZDvRcsrEZCTP5qn4LzTZE/3gVQIyDf4tiey5u+a6DXDw3OeOsQR6INJZ0zVe1gGZcNV1xOi5nxtw4icPeDmR2QVv/a1gqMm1pOpiA7KHwNSO6vObOeOEVaYqsxvrAeVga4ROz5yCDNl1QzDYA3K5t/Ee8taQ6NROgWet+dXMcD4QIBkAmR6FV3EeYqlVxNNjaMzOCc5QautxBrficGZERqYOqz/ABPmceF4NBgaDOKoZLnDoJ0VZb8Ir1dGPd3j9SrW25cpsBdXqNB2YDLieh6IKXhvDKlw/Cwep2A6krWcLtWUGhlFvi3VQwIz7SegRfCfFrt8K1pCkwD7Socg0bkuOqgvuPW9i11Oy+2rukOuDo0dKf8AygXM16LKkbam8Pu6w/vNUGcI2ptO2plYEhS1TJJJJJzJ79SeqjlA0JEdEyfJAyS6CSDmU4SySQKF1K4SlAfw3iFSi/HReWOHT8u617ONWd+A28HgVdPFaIa4/ijRYJd4/wCoQb2ty3dUBNCp41GPukOBB7dUEL63eG07i3DXDJzs2ntJGSouEcdr25Bo1XN7CIPqCtTQ5ztKwi7tgHHWoyZPctQA1OE8OdGGrUZJzPxAD2XdPlyxIkXZj0z7q0qcZ4YQ2lbWla4qOOpMS7QANC7HKVeTU/6dWH4MP5eZAA3lfh7mBwun5jXD+aIfyvw+nGOs54IknFED5KXx+FvJp3FK4s6gOYkls7gt2UTm8Hpf9yrVPRoIH1QBWtHhrcRdSqvhxaBJhwGjh2Ksbfi1JuVrYNPRxBe75gqGrzhZs/dWuItGEF52Gmirbnn65Iilgot/AxoPuUF7c2fELgfaFtswZy4tptj0GaqXt4dbHN9S7qdG+Vk9zusxe8TrVf3tR7/5nE/RBY0Gl45zdWuGeG0NoUR/22CJ/mOpWZnLok6oVxKByUkySBFOmTkoFkkmSQKUySYoHSSCRQJOCkkgcOXWNRp0BVpeupvDqZLHDMOBgg9ir9nOd8BAuaoJ3xmfdZZdA5ICr69fVcX1XOe86uJkn1O6HNQLly5Qd402Mrkpgg6lNKYJwgZOkUyBJJBIoEkkkgcJJgkg/9k=;" vertex="1" parent="1">
          <mxGeometry x="172.65" y="160" width="90.83" height="110" as="geometry" />
        </mxCell>
        <mxCell id="3ASoaDRJVkE-flD1x3Yw-2" value="" style="shape=image;verticalLabelPosition=bottom;labelBackgroundColor=#ffffff;verticalAlign=top;aspect=fixed;imageAspect=0;image=data:image/jpeg,/9j/4AAQSkZJRgABAQEAYABgAAD/4RCmRXhpZgAATU0AKgAAAAgABAE7AAIAAAARAAAISodpAAQAAAABAAAIXJydAAEAAAAiAAAQfOocAAcAAAgMAAAAPgAAAAAc6gAAAAgAAAAAAAAAAAAAAAAAAAAAAAAAAAAAAAAAAAAAAAAAAAAAAAAAAAAAAAAAAAAAAAAAAAAAAAAAAAAAAAAAAAAAAAAAAAAAAAAAAAAAAAAAAAAAAAAAAAAAAAAAAAAAAAAAAAAAAAAAAAAAAAAAAAAAAAAAAAAAAAAAAAAAAAAAAAAAAAAAAAAAAAAAAAAAAAAAAAAAAAAAAAAAAAAAAAAAAAAAAAAAAAAAAAAAAAAAAAAAAAAAAAAAAAAAAAAAAAAAAAAAAAAAAAAAAAAAAAAAAAAAAAAAAAAAAAAAAAAAAAAAAAAAAAAAAAAAAAAAAAAAAAAAAAAAAAAAAAAAAAAAAAAAAAAAAAAAAAAAAAAAAAAAAAAAAAAAAAAAAAAAAAAAAAAAAAAAAAAAAAAAAAAAAAAAAAAAAAAAAAAAAAAAAAAAAAAAAAAAAAAAAAAAAAAAAAAAAAAAAAAAAAAAAAAAAAAAAAAAAAAAAAAAAAAAAAAAAAAAAAAAAAAAAAAAAAAAAAAAAAAAAAAAAAAAAAAAAAAAAAAAAAAAAAAAAAAAAAAAAAAAAAAAAAAAAAAAAAAAAAAAAAAAAAAAAAAAAAAAAAAAAAAAAAAAAAAAAAAAAAAAAAAAAAAAAAAAAAAAAAAAAAAAAAAAAAAAAAAAAAAAAAAAAAAAAAAAAAAAAAAAAAAAAAAAAAAAAAAAAAAAAAAAAAAAAAAAAAAAAAAAAAAAAAAAAAAAAAAAAAAAAAAAAAAAAAAAAAAAAAAAAAAAAAAAAAAAAAAAAAAAAAAAAAAAAAAAAAAAAAAAAAAAAAAAAAAAAAAAAAAAAAAAAAAAAAAAAAAAAAAAAAAAAAAAAAAAAAAAAAAAAAAAAAAAAAAAAAAAAAAAAAAAAAAAAAAAAAAAAAAAAAAAAAAAAAAAAAAAAAAAAAAAAAAAAAAAAAAAAAAAAAAAAAAAAAAAAAAAAAAAAAAAAAAAAAAAAAAAAAAAAAAAAAAAAAAAAAAAAAAAAAAAAAAAAAAAAAAAAAAAAAAAAAAAAAAAAAAAAAAAAAAAAAAAAAAAAAAAAAAAAAAAAAAAAAAAAAAAAAAAAAAAAAAAAAAAAAAAAAAAAAAAAAAAAAAAAAAAAAAAAAAAAAAAAAAAAAAAAAAAAAAAAAAAAAAAAAAAAAAAAAAAAAAAAAAAAAAAAAAAAAAAAAAAAAAAAAAAAAAAAAAAAAAAAAAAAAAAAAAAAAAAAAAAAAAAAAAAAAAAAAAAAAAAAAAAAAAAAAAAAAAAAAAAAAAAAAAAAAAAAAAAAAAAAAAAAAAAAAAAAAAAAAAAAAAAAAAAAAAAAAAAAAAAAAAAAAAAAAAAAAAAAAAAAAAAAAAAAAAAAAAAAAAAAAAAAAAAAAAAAAAAAAAAAAAAAAAAAAAAAAAAAAAAAAAAAAAAAAAAAAAAAAAAAAAAAAAAAAAAAAAAAAAAAAAAAAAAAAAAAAAAAAAAAAAAAAAAAAAAAAAAAAAAAAAAAAAAAAAAAAAAAAAAAAAAAAAAAAAAAAAAAAAAAAAAAAAAAAAAAAAAAAAAAAAAAAAAAAAAAAAAAAAAAAAAAAAAAAAAAAAAAAAAAAAAAAAAAAAAAAAAAAAAAAAAAAAAAAAAAAAAAAAAAAAAAAAAAAAAAAAAAAAAAAAAAAAAAAAAAAAAAAAAAAAAAAAAAAAAAAAAAAAAAAAAAAAAAAAAAAAAAAAAAAAAAAAAAAAAAAAAAAAAAAAAAAAAAAAAAAAAAAAAAAAAAAAAAAAAAAAAAAAAAAAAAAAAAAAAAAAAAAAAAAAAAAAAAAAAAAAAAAAAAAAAAAAAAAAAAAAAAAAAAAAAAAAAAAAAAAAAAAAAAAAAAAAAAAAAAAAAAAAAAAAAAAAAAAAAAAAAAAAAAAAAAAAAAAAAAAAAAAAAAAAAAAAAAAAAAAAAAAAAAAAAAAAAAAAAAAAAAAAAAAAAAAAAAAAAAAAAAAAAAAAAAAAAAAAAAAAAAAAAAAAAAAAAAAAAAAAAAAAAAAAAAAAAAAAAAAAAAAAAAAAAAAAAAAAAAAAAAAAAAAAAAAAAAAAAAAAAAAAAAAAAAAAAAAAAAAAAAAAAAAAAAAAAAAAAAAAAAAAAAAAAAAAAAAAAAAAAAAAAAAAAAAAAAAAAAAAAAAAAAAAAAAAAAAAAAAAAAAAAAAAAAAAAAAAAAAAAAAAAAAAAAAAAAAAAAAAAAAAAAAAAAAAAAAAAAAAAAAAAAAAAAAAAAAAAAAAAAAAAAAAAAAAAAAAAAAAAAAAAAAAAAAAAAAAAAAAAAAAAAAAAAAAAAAAAAAAAAAAAAAAAAAAAAAAAAAAAAAAAAAAAAAAAAAAAAAAAAAAAAAAAAAAAAAAAAAAAAAAAAAAAAAAAAAAAAAAAAAAAAAAAAAAAAAAAAAAAAAAAAAAAAAAAAAAAAAAAAAAAAAAAAAAAAAAAAAAAAAAAAAAAAAAAAAAAAAAAAAAAAAAAAAAAAAAAAAAAAAAAAAAAAAAAAAAAAAAAAAAAAAAAAAAAAAAAAAAAAAAAAAAAAAAAAAAAAAAAAAAAAAAAAAAAAAAAAAAAAAAAAAAAAAAAAAAAAAAAAAAAAAAAAAAAAAAAAAAAAAAAAAAAAAAAAAAAAAAAAAAAAAAAAAAAAAAAAAAAAAAAAAAAAAAAAAAAAAAAAAAAAAAAAAAAAAAAAAAAAAAAAAAAAAAAAAAAAAAAAAAAAAAAAAAAAAAAAAAAAAAAAAAAAAAAAEtpbm5hciBDaG93ZGh1cnkAAAAB6hwABwAACAwAAAhuAAAAABzqAAAACAAAAAAAAAAAAAAAAAAAAAAAAAAAAAAAAAAAAAAAAAAAAAAAAAAAAAAAAAAAAAAAAAAAAAAAAAAAAAAAAAAAAAAAAAAAAAAAAAAAAAAAAAAAAAAAAAAAAAAAAAAAAAAAAAAAAAAAAAAAAAAAAAAAAAAAAAAAAAAAAAAAAAAAAAAAAAAAAAAAAAAAAAAAAAAAAAAAAAAAAAAAAAAAAAAAAAAAAAAAAAAAAAAAAAAAAAAAAAAAAAAAAAAAAAAAAAAAAAAAAAAAAAAAAAAAAAAAAAAAAAAAAAAAAAAAAAAAAAAAAAAAAAAAAAAAAAAAAAAAAAAAAAAAAAAAAAAAAAAAAAAAAAAAAAAAAAAAAAAAAAAAAAAAAAAAAAAAAAAAAAAAAAAAAAAAAAAAAAAAAAAAAAAAAAAAAAAAAAAAAAAAAAAAAAAAAAAAAAAAAAAAAAAAAAAAAAAAAAAAAAAAAAAAAAAAAAAAAAAAAAAAAAAAAAAAAAAAAAAAAAAAAAAAAAAAAAAAAAAAAAAAAAAAAAAAAAAAAAAAAAAAAAAAAAAAAAAAAAAAAAAAAAAAAAAAAAAAAAAAAAAAAAAAAAAAAAAAAAAAAAAAAAAAAAAAAAAAAAAAAAAAAAAAAAAAAAAAAAAAAAAAAAAAAAAAAAAAAAAAAAAAAAAAAAAAAAAAAAAAAAAAAAAAAAAAAAAAAAAAAAAAAAAAAAAAAAAAAAAAAAAAAAAAAAAAAAAAAAAAAAAAAAAAAAAAAAAAAAAAAAAAAAAAAAAAAAAAAAAAAAAAAAAAAAAAAAAAAAAAAAAAAAAAAAAAAAAAAAAAAAAAAAAAAAAAAAAAAAAAAAAAAAAAAAAAAAAAAAAAAAAAAAAAAAAAAAAAAAAAAAAAAAAAAAAAAAAAAAAAAAAAAAAAAAAAAAAAAAAAAAAAAAAAAAAAAAAAAAAAAAAAAAAAAAAAAAAAAAAAAAAAAAAAAAAAAAAAAAAAAAAAAAAAAAAAAAAAAAAAAAAAAAAAAAAAAAAAAAAAAAAAAAAAAAAAAAAAAAAAAAAAAAAAAAAAAAAAAAAAAAAAAAAAAAAAAAAAAAAAAAAAAAAAAAAAAAAAAAAAAAAAAAAAAAAAAAAAAAAAAAAAAAAAAAAAAAAAAAAAAAAAAAAAAAAAAAAAAAAAAAAAAAAAAAAAAAAAAAAAAAAAAAAAAAAAAAAAAAAAAAAAAAAAAAAAAAAAAAAAAAAAAAAAAAAAAAAAAAAAAAAAAAAAAAAAAAAAAAAAAAAAAAAAAAAAAAAAAAAAAAAAAAAAAAAAAAAAAAAAAAAAAAAAAAAAAAAAAAAAAAAAAAAAAAAAAAAAAAAAAAAAAAAAAAAAAAAAAAAAAAAAAAAAAAAAAAAAAAAAAAAAAAAAAAAAAAAAAAAAAAAAAAAAAAAAAAAAAAAAAAAAAAAAAAAAAAAAAAAAAAAAAAAAAAAAAAAAAAAAAAAAAAAAAAAAAAAAAAAAAAAAAAAAAAAAAAAAAAAAAAAAAAAAAAAAAAAAAAAAAAAAAAAAAAAAAAAAAAAAAAAAAAAAAAAAAAAAAAAAAAAAAAAAAAAAAAAAAAAAAAAAAAAAAAAAAAAAAAAAAAAAAAAAAAAAAAAAAAAAAAAAAAAAAAAAAAAAAAAAAAAAAAAAAAAAAAAAAAAAAAAAAAAAAAAAAAAAAAAAAAAAAAAAAAAAAAAAAAAAAAAAAAAAAAAAAAAAAAAAAAAAAAAAAAAAAAAAAAAAAAAAAAAAAAAAAAAAAAAAAAAAAAAAAAAAAAAAAAAAAAAAAAAAAAAAAAAAAAAAAAAAAAAAAAAAAAAAAAAAAAAAAAAAAAAAAAAAAAAAAAAAAAAAAAAAAAAAAAAAAAAAAAAAAAAAAAAAAAAAAAAAAAAAAAAAAAAAAAAAAAAAAAAAAAAAAAAAAAAAAAAAAAAAAAAAAAAAAAAAAAAAAAAAAAAAAAAAAAAAAAAAAAAAAAAAAAAAAAAAAAAAAAAAAAAAAAAAAAAAAAAAAAAAAAAAAAAAAAAAAAAAAAAAAAAAAAAAAAAAAAAAAAAAAAAAAAAAAAAAAAAAAAAAAAAAAAAAAAAAAAAAAAAAAAAAAAAAAAAAAAAAAAAAAAAAAAAAAAAAAAAAAAAAAAAAAAAAAAAAAAAAAAAAAAAAAAAAAAAAAAAAAAAAAAAAAAAAAAAAAAAAAAAAAAAAAAAAAAAAAAAAAAAAAAAAAAAAAAAAAAAAAAAAAAAAAAAAAAAAAAAAAAAAAAAAAAAAAAAAAAAAAAAAAAAAAAAAAAAAAAAAAAAAAAAAAAAAAAAAAAAAAAAAAAAAAAAAAAAAAAAAAAAAAAAAAAAAAAAAAAAAAAAAAAAAAAAAAAAAAAAAAAAAAAAAAAAAAAAAAAAAAAAAAAAAAAAAAAAAAAAAAAAAAAAAAAAAAAAAAAAAAAAAAAAAAAAAAAAAAAAAAAAAAAAAAAAAAAAAAAAAAAAAAAAAAAAAAAAAAAAAAAAAAAAAAAAAAAAAAAAAAAAAAAAAAAAAAAAAAAAAAAAAAAAAAAAAAAAAAAAAAAAAAAAAAAAAAAAAAAAAAAAAAAAAAAAAAAAAAAAAAAAAAAAAAAAAAAAAAAAAAAAAAAAAAAAAAAAAAAAAAAAAAAAAAAAAAAAAAAAAAAAAAAAAAAAAAAAAAAAAAAAAAAAAAAAAAAAAAAAAAAAAAAAAAAAAAAAAAAAAAAAAAAAAAAAAAAAAAAAAAAAAAAAAAAAAAAAAAABLAGkAbgBuAGEAcgAgAEMAaABvAHcAZABoAHUAcgB5AAAA/+EKaWh0dHA6Ly9ucy5hZG9iZS5jb20veGFwLzEuMC8APD94cGFja2V0IGJlZ2luPSfvu78nIGlkPSdXNU0wTXBDZWhpSHpyZVN6TlRjemtjOWQnPz4NCjx4OnhtcG1ldGEgeG1sbnM6eD0iYWRvYmU6bnM6bWV0YS8iPjxyZGY6UkRGIHhtbG5zOnJkZj0iaHR0cDovL3d3dy53My5vcmcvMTk5OS8wMi8yMi1yZGYtc3ludGF4LW5zIyI+PHJkZjpEZXNjcmlwdGlvbiByZGY6YWJvdXQ9InV1aWQ6ZmFmNWJkZDUtYmEzZC0xMWRhLWFkMzEtZDMzZDc1MTgyZjFiIiB4bWxuczpkYz0iaHR0cDovL3B1cmwub3JnL2RjL2VsZW1lbnRzLzEuMS8iLz48cmRmOkRlc2NyaXB0aW9uIHJkZjphYm91dD0idXVpZDpmYWY1YmRkNS1iYTNkLTExZGEtYWQzMS1kMzNkNzUxODJmMWIiIHhtbG5zOmRjPSJodHRwOi8vcHVybC5vcmcvZGMvZWxlbWVudHMvMS4xLyI+PGRjOmNyZWF0b3I+PHJkZjpTZXEgeG1sbnM6cmRmPSJodHRwOi8vd3d3LnczLm9yZy8xOTk5LzAyLzIyLXJkZi1zeW50YXgtbnMjIj48cmRmOmxpPktpbm5hciBDaG93ZGh1cnk8L3JkZjpsaT48L3JkZjpTZXE+DQoJCQk8L2RjOmNyZWF0b3I+PC9yZGY6RGVzY3JpcHRpb24+PC9yZGY6UkRGPjwveDp4bXBtZXRhPg0KICAgICAgICAgICAgICAgICAgICAgICAgICAgICAgICAgICAgICAgICAgICAgICAgICAgICAgICAgICAgICAgICAgICAgICAgICAgICAgICAgICAgICAgICAgICAgICAgICAgIAogICAgICAgICAgICAgICAgICAgICAgICAgICAgICAgICAgICAgICAgICAgICAgICAgICAgICAgICAgICAgICAgICAgICAgICAgICAgICAgICAgICAgICAgICAgICAgICAgICAgCiAgICAgICAgICAgICAgICAgICAgICAgICAgICAgICAgICAgICAgICAgICAgICAgICAgICAgICAgICAgICAgICAgICAgICAgICAgICAgICAgICAgICAgICAgICAgICAgICAgICAKICAgICAgICAgICAgICAgICAgICAgICAgICAgICAgICAgICAgICAgICAgICAgICAgICAgICAgICAgICAgICAgICAgICAgICAgICAgICAgICAgICAgICAgICAgICAgICAgICAgIAogICAgICAgICAgICAgICAgICAgICAgICAgICAgICAgICAgICAgICAgICAgICAgICAgICAgICAgICAgICAgICAgICAgICAgICAgICAgICAgICAgICAgICAgICAgICAgICAgICAgCiAgICAgICAgICAgICAgICAgICAgICAgICAgICAgICAgICAgICAgICAgICAgICAgICAgICAgICAgICAgICAgICAgICAgICAgICAgICAgICAgICAgICAgICAgICAgICAgICAgICAKICAgICAgICAgICAgICAgICAgICAgICAgICAgICAgICAgICAgICAgICAgICAgICAgICAgICAgICAgICAgICAgICAgICAgICAgICAgICAgICAgICAgICAgICAgICAgICAgICAgIAogICAgICAgICAgICAgICAgICAgICAgICAgICAgICAgICAgICAgICAgICAgICAgICAgICAgICAgICAgICAgICAgICAgICAgICAgICAgICAgICAgICAgICAgICAgICAgICAgICAgCiAgICAgICAgICAgICAgICAgICAgICAgICAgICAgICAgICAgICAgICAgICAgICAgICAgICAgICAgICAgICAgICAgICAgICAgICAgICAgICAgICAgICAgICAgICAgICAgICAgICAKICAgICAgICAgICAgICAgICAgICAgICAgICAgICAgICAgICAgICAgICAgICAgICAgICAgICAgICAgICAgICAgICAgICAgICAgICAgICAgICAgICAgICAgICAgICAgICAgICAgIAogICAgICAgICAgICAgICAgICAgICAgICAgICAgICAgICAgICAgICAgICAgICAgICAgICAgICAgICAgICAgICAgICAgICAgICAgICAgICAgICAgICAgICAgICAgICAgICAgICAgCiAgICAgICAgICAgICAgICAgICAgICAgICAgICAgICAgICAgICAgICAgICAgICAgICAgICAgICAgICAgICAgICAgICAgICAgICAgICAgICAgICAgICAgICAgICAgICAgICAgICAKICAgICAgICAgICAgICAgICAgICAgICAgICAgICAgICAgICAgICAgICAgICAgICAgICAgICAgICAgICAgICAgICAgICAgICAgICAgICAgICAgICAgICAgICAgICAgICAgICAgIAogICAgICAgICAgICAgICAgICAgICAgICAgICAgICAgICAgICAgICAgICAgICAgICAgICAgICAgICAgICAgICAgICAgICAgICAgICAgICAgICAgICAgICAgICAgICAgICAgICAgCiAgICAgICAgICAgICAgICAgICAgICAgICAgICAgICAgICAgICAgICAgICAgICAgICAgICAgICAgICAgICAgICAgICAgICAgICAgICAgICAgICAgICAgICAgICAgICAgICAgICAKICAgICAgICAgICAgICAgICAgICAgICAgICAgICAgICAgICAgICAgICAgICAgICAgICAgICAgICAgICAgICAgICAgICAgICAgICAgICAgICAgICAgICAgICAgICAgICAgICAgIAogICAgICAgICAgICAgICAgICAgICAgICAgICAgICAgICAgICAgICAgICAgICAgICAgICAgICAgICAgICAgICAgICAgICAgICAgICAgICAgICAgICAgICAgICAgICAgICAgICAgCiAgICAgICAgICAgICAgICAgICAgICAgICAgICAgICAgICAgICAgICAgICAgICAgICAgICAgICAgICAgICAgICAgICAgICAgICAgICAgICAgICAgICAgICAgICAgICAgICAgICAKICAgICAgICAgICAgICAgICAgICAgICAgICAgICAgICAgICAgICAgICAgICAgICAgICAgICAgICAgICAgICAgICAgICAgICAgICAgICAgICAgICAgICAgICAgICAgICAgICAgIAogICAgICAgICAgICAgICAgICAgICAgICAgICAgICAgICAgICAgICAgICAgICAgICAgICAgICAgICAgICAgICAgICAgICAgICAgICAgICAgICAgICAgICAgICAgICAgICAgICAgCiAgICAgICAgICAgICAgICAgICAgICAgICAgICA8P3hwYWNrZXQgZW5kPSd3Jz8+/9sAQwAHBQUGBQQHBgUGCAcHCAoRCwoJCQoVDxAMERgVGhkYFRgXGx4nIRsdJR0XGCIuIiUoKSssKxogLzMvKjInKisq/9sAQwEHCAgKCQoUCwsUKhwYHCoqKioqKioqKioqKioqKioqKioqKioqKioqKioqKioqKioqKioqKioqKioqKioqKioq/8AAEQgBYgEXAwEiAAIRAQMRAf/EAB8AAAEFAQEBAQEBAAAAAAAAAAABAgMEBQYHCAkKC//EALUQAAIBAwMCBAMFBQQEAAABfQECAwAEEQUSITFBBhNRYQcicRQygZGhCCNCscEVUtHwJDNicoIJChYXGBkaJSYnKCkqNDU2Nzg5OkNERUZHSElKU1RVVldYWVpjZGVmZ2hpanN0dXZ3eHl6g4SFhoeIiYqSk5SVlpeYmZqio6Slpqeoqaqys7S1tre4ubrCw8TFxsfIycrS09TV1tfY2drh4uPk5ebn6Onq8fLz9PX29/j5+v/EAB8BAAMBAQEBAQEBAQEAAAAAAAABAgMEBQYHCAkKC//EALURAAIBAgQEAwQHBQQEAAECdwABAgMRBAUhMQYSQVEHYXETIjKBCBRCkaGxwQkjM1LwFWJy0QoWJDThJfEXGBkaJicoKSo1Njc4OTpDREVGR0hJSlNUVVZXWFlaY2RlZmdoaWpzdHV2d3h5eoKDhIWGh4iJipKTlJWWl5iZmqKjpKWmp6ipqrKztLW2t7i5usLDxMXGx8jJytLT1NXW19jZ2uLj5OXm5+jp6vLz9PX29/j5+v/aAAwDAQACEQMRAD8A5D9p/wD5K0n/AGDof/QnrxyvZP2n/wDkrSf9g6H/ANCevG6ACiiigAooooAKKKKACiiigAooooAKKKKACiiigAxRSjvSUAFFFKRigBKKKKACiiigAooooAKUDIpO1LyKAEooooAKKKKAClBxSUUAa2nH/Rz/ALxopunn/Rz/ALxooA9Q/af/AOStJ/2Dov8A0J68br2T9p//AJK0n/YOh/8AQnrxugAooooAKKKKACiiigAooooAKKKKACigUowDQAhGKKXjHSjjHvQAmKU80d6UCgBuKXrSlSOlIfyoAQ9aUY70Ad6G5PTFACUYpwXnigg5OKAEPTFLx+NN+tKevFACj5WoJNJ3pQeDmgBBzwaQ9aXPIoxnmgBKKKKACiiigDTsP+Pf/gVFFh/x7n60UAeo/tP/APJWk/7B0P8A6E9eN17J+0//AMlaT/sHQ/8AoT143QAUUUUAFFGKKACiiigAxRilPNGOaAEoqxaWU97MI7eJnY9MCuy0r4Z6jcqst9JFbR9TluaAOGA9aXaTxj8hXs2nfDnQTC7lWuWjwG+bvWtaeDtG8smPS48r/fbFAHg62srEBY2P0FWIdGv5/wDVWsrf8Br3UaPp1llzDYxBTypbOKadc0uz+Q3NnGwPBVelAHj9t4K1+8x5OnSN+lWk+HXiMyhZLEp7lhXrUfjnw/ZxvJLqhlfb8qJHgZrPPjTRbmFpLi8lct0jHBNAHIWfw3iEQ+33beYeCkXP61Zn+GFtLExsblw4GQsneqGueMrw3TxaU4t4AePl5qpo3jTV4b9FuLj7REWwwI5oAx9a8KanojN9ptz5XZ15FYxXBweDX0HDfW2rWqefbpLbuOYz1BqhqPgLwvqafuYmtJzyWzxmgDwvpR24r0HXPhPqNlEbjT5ormLrhW5rhLm0ms52iuUKSKcFSKAK+w5puMU8k9aafegB2Bnmg5x1pAKMdqAAjC00HFOwfwpCMUAJRRRQAUUUUAadh/x7n60UWH/HufrRQB6j+0//AMlaT/sHQ/8AoT143Xsn7T//ACVpP+wdD/6E9eN0AFFFFAC5+XmkpcDHNHagBMUYNPJ7Y5oRGdwFGSfSgBoUk8V1/hXwPc6s6z3ytb2oOSzDGR7VseDfAUc0Salr6lbbGUTPJrV8U+MIbXbY6Qih1XagA6UAaD3Gi+FrHybURB143sBuNc1L43u5pWFjaeec8E5xWZb6LfanN9p1Jmbec4zgCugi0qx09BvYpx0FAGcdW8T30m6FPsoxyI+AaadJ1mQeZeapNHu5OHxWuk6odtq4C/7dUNRW6BH2uQYf7oQ9aAM6fSLJSBJf3Fy56gOealg0/R4wPtUMwHctk1JBaOzB1G3b0qeS9u7X59kU6ZwUYUAWodE8NT7DFOp9VzzTdR0zwxAdiT4cjgr2rW8N2Hh3xXN5YEljeJjeoPBPtWP4n03TrLXza6UjzmI4lLnvQBmHStCkcKb5unLNQnhqwuCWsL8M6ngCp/7Pjn2+dAFGedtW49O062nRrRpIx/FmgDKfTdYgvf8AQbmTevZW4rTPiHxNo8aG5tvtCEYJenSxXGnXDXFpdrKG5ANakeo/bYgl4oJAx0oAvaL4w02/aMzTNYTgYZGJ2k1rat4Y0/xhZjzI1SbG4XEIHzfWuRvPDVrfqTbHbLjjBxVbSfEOueCrkLJ++tAdpB5wKAOV8SeDtR8O3RE0LPA2SsmOMVzhHqK+jrO5sPF2ns9vturUr+/Vhhkz1xXlXjvwDL4ec32nhpdPcjaxOSp9DQBxCjApGGRTs8UnY0AM60EdMU4L+dI3UZoAbRR9KKACiiigDTsP+Pc/Wiiw/wCPc/WigD1H9p7/AJK0n/YOi/8AQnrxuvZP2n/+StJ/2Dof/QnrxugApf4aSlx0oAcw+UU3BAzSt+lIKAFVSxr0nwB4PDxjWdRj3IhISFl+9WX4C8JtrF99qv1eOzhwwbsx9K7Pxh4mOh2jWtl5fnyL8ka/wj1oAoeM/FS2a/2fZKDMTjCHhAaxtC0Tc63N03mPnd83NV9H0x3Y6hqYZjJzk8811MDAg5G1SMLQBFLeeXuCAAL0GKx55p5pTj5y3X0FJf3m6/NtbspLfeNXbW3yM0AZ76Y80bF52Bx0HQUWkMkUnlzO0u37paugSDdGwAPSst4nebCDkGgDQWEG0JRecVj3luzQ4OQc10ljbOtuN46+9UL2AFmxQBhaDObPUHkQlXB2gg4yauWhee6nec5kMp3E1EkEcF9b+rS5NXleNL+4VRj95kUASM/lSD5eKt/ZhPDujUDNV5yHTIHSrOmTE/u2/CgDNv8AT/3ZXJVwM5BrFgvLqN9mN6g4zXa3tiZh8oOapxaTsYl0C0AV7a5/cAwORLnlTV3dbX9qVnCls4YEVl6nEIIWmj4dOQR3otblNStFZf3dyvXHANAFGRtQ8M6mLvSJXEYOXRSQrD3r0TRPEFp4n0Z3lhV43O2W2bnB9RXJrcxXA8iT5QflcYrCcX3g3Wk1PTVLwDhs9CDQBF4+8Ev4evFubYeZaT5YFR9z2ris+g4r6YsNS0vxToCkATQOgFymMmFiO1eJ+OvBs/hXVflDSWknzRy9iKAOTzyKGwetIRnrRxxk0AN47UhNK3Xik+tABRiil7UAaVh/x7n60UWH/HufrRQB6j+0/wD8laT/ALB0P/oT143Xsn7T3/JWk/7B0X/oT143QAU48YptP7DcKAGjJ4rZ8M6DN4g1dLWLgdWPoBWVDGZZ1jQEliAAO9e3eC9CXQdDRymLuZS0jMOVWgC3qd5ZeG9CMMcflxxLtUDje2Oteb6RBJrmrnUL8sY8n5W547Va8T6u/ibWltLbPkQv8xHftWnt8i3S1s48BR98UAW2CTDEa7YV6LWXfXbXE32e0yqdz6UX+pPBZJZxp+9J5bvT7C12p1+Y85NAFaLSFhkEwJL45NalmWEgBXihQ8LfOMirQu41X5FAPegC/EgC+uaatpGshfbzVS0laW4AJ49q1lT8aAK1xL5Ue1OCe9Yk8kjyFS+PWugnthOnLbcd6xZ4ljkYE5xQBlAD+0IAylv3nB9K1XtN95Jzhg3FRLChuImK42sCPeibWDdak6R2/liM4LetACvbSKTlj9Kk07KXQx3rUsyLqEiQDctPhsI0m3q30GKALWCTz0qC7BWM7epFXVX5eQMA9ax77UlDlFAPOKAMLUjvyhzg9qmtbQRQqVXbgdauC1SZ1d+Pwq2beLyfKEmOc5oAwwgur5VRijr+ta8sCyWv2e7UANxkikazSDEgIz2wKWW5aZCkoDMo4Yd6AMOz1C/8C6yHQs1lO2ZI+zCvVHtNP8b+G5LQRiWKdcxTNyYW9K4uawi1PThDdEH5fkJH3ayPDmr3vgvWvsFy0hsJm+83AFAHD+JdBuPDutzWNyMmNyAwGNw9axxjA719EeLvDkfjTw6PswU3yKHjkQZMi/Wvn67tpbK5kgnXbJGxVgfWgCDA+hphp+Mg0w0AFFFFAGnYf8e5+tFFh/x7n60UAeo/tP8A/JWk/wCwdD/6E9eNgZr2T9p//krSf9g6H/0J68cPFAABzTsnP1pPvD6U5AWYKvXOKAOv+Hfh86trkc0iZggcMx9K9D+Imvppth9k02QLMwCcdcYpngrTP+Ef8KmWZArSAu+Tg4xXN2FnL4z8YTXB+W1iHyZ6HFAEWj6L9h003EmPOkGTVx7lILNUzhzzV++UQ7snakZ2getZjQfbGMr8DHAoAhkshMFnIy3XNXrN48gNxUtjbvyj8qB6U6XTHU7lP4AUAXGgjuIQD+dVn05Tnyz9as28Ukdk2/7w9aqRea8jbGI5oAdp6NFc7WHNbeDsqnbWxEgduWq6eOg470AN6R81RlsFeQyetXpXWOEuw6DpWVNf7jtHH40AQXQER3AcIc0Qx28v7wLgNyaZdTYtnY91PFRRCdtBR7fHnFsD6UAbtokJA2nB7irxjjA6YFYcdrNbWkM7Sgu/LAHpWtYzCe2JIyR2oAmcF0Kp6VgTae5nLMMYNdFvCx7h+VYt1dySs2wYwcYoAqPlABmpPs7spfquOTT1s5J3Bc7RWstriz8qLBPfNAHOzySKu0c1mzS30cyuq8A8105tY4B++wX9KqzGJhjHHfigDQiktpEjeDIjKjcT/C1GsaLDrenlNoE4Hymqmn38FsTFPHmJjz7e9bn+r2SRSq6OPkZec0AZ/gHxBLpuqNomrPsmhUiJj3x2rnPjB4Q/s+8j1iyjzb3IJkK9mzW54z0x2sYNY08CO6t2BbYOWHvXW6Zc2HjnwLPZToGkmh2LnnZIBQB8xjqaaRk1pa5pc2j6tLZ3C7XjYjp1GazSfmoAQjFIKCc0UAadh/qD/vUUWH/HufrRQB6j+0//AMlaT/sHQ/8AoT144BmvY/2n/wDkrSf9g6H/ANCevGxQA9eBWnoFgb/WbeBe8ik/nWWoFdt8L7H7Z4pUuu5Y03YoA7X4gag1lYw6dayZeZRGAPen6Rp48P8AheM5KysNzfjWd4kRb34k2NsfuRFchu3NbuvzEyC3VhsUdPTFAHN6mQZoo/NDbvmarluIolGcHisKCM3erStL8gHCqa3lsWZeMYoAla+jhHAFSw3+5huHJNUJrCRQPlzVuztSzB5R06cUAaWwSjngEc1W+wLExIfAJzV1e4xjArPuZpPMCnOKAL1uoKkBgaeI8/TvVfTgxBY8DuK0ETPNAFK9jC2TY5OKwzb+Zh+hFdS0ayxlGXioBpqAZXFAHP8A2NpyiPgIxAJ9BVm+sk0+6Wzt5PMjCAhhVi9j8mTA6YqpbuZboFs9ccigCMpJG3zMSB2NamlxHyWVcjcc1LeWDSEFQM96uWcPkx474oAQRBV+Y8Vl3dsIZC6ngnIFbZjOMcVXliVmG5N1AGPGJ5v9WCTWxZwvCoz97vmnQbY+FXaanQEn+dAGZe23muJM4IrNNsSGKjgmumaNDwRmq0qwx54FAHO3FsBbOD1dcfSqvhzUhbM2n3cu3Yd0TN2Nad04ZjsXPtWO1ghmMjgbuoPpQB6DYiPULd4JMHzFwRXO/D2d9F8W3WkSD5Xm3Rg96ueHr5WQjBaeIZK+o9qh8VwQaL4x0XU7CXmbDuPQ5oA53456N9l16C+jXiaIbuOhFeTtX0N8X7U6t4Gj1Igb4sZ/OvnojnmgCM0d6DR3oA0rD/j3P+8aKWw/49z/AL1FAHqP7T3/ACVpP+wdF/6E9eNgZr2T9p//AJK0n/YOh/8AQnrxwDNADlHHvXqvwYiZL+6uQmWWPAOPevK1wSPc1778IbCOx8LzXkqndKh5HOaAMuKO1n8d3t7dtloU3Ko7mszxNquVZkTZPcMMg9VFU7OeabX7q+hk+VZCCCO2aoeJLhptYebGeAenHSgCza6ffSSrcM/zMOgrpbLzVX96CMetc/p3iOFVRZcggY6VrrrUMycScehoAuS6lHGdvU9QKltL77Q4QptBPWsSR4J5d0HzMK0LQkYyMN2FAG6IyW4PFNe2WbtyKbbz5bY3XFWydvTp1oArpEsQwPSnr8x9KcxJbcBQg3NyKAJAm4DbwBT3KxxcDGO9IqMAaLxC9gyigDKvZBIMgZINVuUu4ma3ManoaZcLLFExAyT0p8F/PcW6R3HIjOAcc0Ab4yYlIGT3p2ABzwe1FrmS3UqOCO9I6kcHpQAucdai2YbdmnkYHFRqCzGgBdqoeOTShSfvdPamgonXO409Sdp3YCigBsm4qdnWsqWO4aQgq2KvPqCx5EIyfU1Tlv52YgcDvxQBDJaNtJyBxWLfN9jRu4PU1ruZ5WPUjrVW6skuYysyEgj8qAKGj6wLTWbefqAcYz1qz48uprrVIL3ZshjI6dBzVa00GOC/gdj+7Vs8muz8SaJHN4avlKh/3O+JwfagDWkgj8Q/CydIvn3R8d8EV8y3UbRXUsbDBVyK+jfgvcfbPClxayNkxylGQ+leJ/EDSm0nxlfxbdqNKzJ9M0AcsRikpz9aTHpQBpWH/HufrRRYf8e/40UAeo/tPf8AJWk/7B0P/oT145yv417H+09/yVtP+wdF/wChPXjnXINAE0KF5VQfxHAr6S8Ow/2N8M42LBWW2JOe+Qa8A8LaY+qeJLK2ReHlGa9/8dtDovw+eMk7gBEoz7UAcJ8PrC21iGVbqZIfNnOWb61NrOh2dv4nuILaZbiBAACDntWToEUcXhEOCyv524Gr9vbv9slmXIEgHWgBP+Eetgc+UOfQU9dAhzwmK2rMk/LL07VZkZY+gzQBhw6P5RJQbameyn3K8Z2svQ1q/aYW4Y4qeJ45TtXnFAGTbiZJB5p3N6it0YWMe4pqwru3KtOMXAOaAEGA3A7VIEycrxSAKOuc1IqkLlTmgBQvBLH8qCpaM5+76U5Vxwep6+1K3yocGgDKuIPm9QM4rOtIm3NkHLNWzPjcvcGnRQbHHGBmgCeKHbAACRxwKkZO2CakZgcCmktnHagBjLxz0FQhOcjirJAAOTTBt7UAQuoPb8abJmSMoQV44NSSMFHPTvVWW9UMAO3WgCBNMmOQXBGc09rVI0O4ioTqjx524qCS9jmXLtigBzS+WcKKdG7yPt27vXii3SCY5yeKtK8MJ+Tn1oAq3lvlCyrjFW/NnmjW1EhaEwFQue5FQzyh1JJ4qtbXcCXEEhdgVfbj60AQfCu7ksfGF3pTsY/OZiFz14qv8e9CS1uLHUUGDLuDHHU1Xu2Phz4r6fqS8wtjJ7ZNen/E/Rh4n8BSTxgPJCnnR7fQigD5Qb7vSm5qaSNkJRxhu49KjOOKANCw/wCPc/71FLY/6j8aKAPUf2n/APkraf8AYOh/9CevHc/nXsX7T/8AyVpP+wdD/wChPXjuOmelAHo/wf00XHiNbxx8sHJPpXcfGq9jTSLG0gztlkyfc4qD4FaeG0e7uXUYLEZNUPi0/wBq8XWWnRE7YmU4HagCvcWYsvC9hGo2EkFge9X7ePaqq2OnaotdbzZobQAlY0GTVJLa8gm8yOQujdfagDoY/J45wTUhRZIyCCB61zbXt3FKfOj+QdGFbNnd7oVO7OexoAbJp7sSYjxRFFNE2ecjvV+KdHOFI96nAV3GOnegBbcu6AknPpUrgngHmnAKjZFNcnOQe9AAoJbpzT1G7ocEdRSAN604PzigBwDYOaUDC7OtOViAaa5GeDQBTmUA/J61OysIldvoKrzqd7Ht1p7TNJaKwBCqevrQBcRT5ak96QYJwOPWo1lL26lTkipVYEcjk0ANfbu2+3WonKqODjinlgpOVOKoXs+wYBGSKAIby8AHyt7GsuSZmY+WetR3E7FskZFWdG02bUJx5anGfSgCnLFO2D0qKNPMlCuR15rt38G30luS2VCjjjrXK3OjXlnOW8p857igDVgiighzt6iq0gBBZe9Sbj9mAYfNikgARS0hHXpQBX3qq/McY61ZsobO7trtHA8wJuRvQisPWLvy2KxkcnmjR52aTgn5uDQBH4vj87QY7tctNAwG7PPFe2eD9StNX+HNlGYcyvbFHJ7nbivH9SjWTw/dRnnqa7D4Mag1z4fmtW5+zsMc9BQB4J4x07+y/FF3b4xiQkD8awCBivTfjjposvGyyopCzxlj+deYkHtQBo2Bzb/jRRY/6g/WigD1H9p7/krSf9g6H/0J68eXvXsP7T//ACVpP+wdD/N68eQZoA+mvgXaI3glDIQivKxJrgvGVzHdfGS4jQkxxOFH4V6D8Gbdz8PLcknBlbNeZaspk+MV+owNsvf8KANe8kzqEjt0A5q9Yurx4Yde1VJvDd3qsUl/b3kaKrEFC2OlR21yUA3HDJwaANwWsToNwGO9V30xYpN1vyfeqqattJLHitGC7E0Kygfu84+tAFCKzubck9STmtW2DlcuMEVMV3sGXp2qZUbvQA3H7vmmopyam2YGKiYbWOM0AG5lb3qZccE9T0qAZ3b6kQ5XgUAT7ueMYNRHk/1p5ztXjHrUcjYhOKAM+5uCgcg9iKhs9VW807yCQDE2OBT50/c7iuQxq1beHPs/h2bVYuAr4YYoAnt4T5WV4GOaeFPaktn8y3Ug4GOadI2xfagCK4maNSpNc/eSAsd2Sc9a0r25B+Vaxbh8kgGgCKRS7KinrXqHgvTY9M0lbudQWbp+deZ2Ufm30UZOWJ617hplgF0GG2baH2bt7dKAFs5bjUHeYoRGhwF9aku9MR4/tF7bYiHBwKqT3dzoxhkI8xJB0Wr1jrqRweXqkit5zEqpPAoA5q8+HxvmN1pEoZCfmUtyK5XxX4Rv9AUSSMCpGSc1tXl5r7+JJv7Dci3jOWXdwa2PELXHiHwu0dynlzovU98UAeD3TMzNvOea0tFiMa7z6jFUL6Fre8kjfkq2CKt2VwUwgGQaANS8QJI8PVJE3Y96u/BG88jXtWtXPytjA/GsySXE0TP825duKd8LJ1tfiJcQk4849PxoAuftBaeW+xXw7RlSfxrwkjA4r6g+OFj9p8HvKqg+Qck46c18wMc9O5NAF+x/1B+tFJYf8e5/3jRQB6l+09/yVpP+wdF/6E9ePIcEV7D+0/8A8laT/sHQ/wDoT147nBoA+qvg9uTwHZIoyJHY15XrqNB8YdRKjnzeK9V+DN0j/D+xZRl0kb+deY+KTIfjNflAPmbpQAW88MMt1DfXDRuzbo1B61rWcEFwgXocdK57UdKm1C5zBgFW5Jq/aGfTlRbjkdM5oA15tGBHHI9qngtZdqRthI06Ad6da34ZBuORVh72IYJoAshB0U8+lSKWXg9KzpL4cMhq/bzLPBuXNAEwU9ajYZJqVchfmzUMqkP1wKAI9hDfMeKmjyPu4NREcEHr2p64QAD0oAlySMtjHtTGQOtPRd3ymmlGClFGD60AVpYwIiCeByK19HvhL4C1i2mcMysGQd6x7lmSAiQ47ZqG0uIU025hXPmSryM0AS6cyrZgnqecVYdvMBx0qrpyD7OGbpjkVN5ymTy04PpQBmX6YcngVkSZ3fKR71uakgClm/DFc/Iw3nA+tAHQ+CLa3u/EsC3Q+Qda9U8SxXtxp4t7H92ijAcHGa8X0K8Flq0MwYgbua9rjvxqunxeVkL1J9aAOSstYuotMaz1FNroSFkPcVX0vTX1QNKZDKc/Lg9K6yXTLbUtyTRARoMZqpa6ZDpG77I/lq3QGgCXT5LHRR5TTb53wSCelT6nJNdadPLEo2KhwBVCPSoRI11csCzH7xrR8R69pWmaAyW7qzFNu0HqaAPDtWs3k1CXdw5bJqO1sWWYd88DNaX2Z7m4e5uH2ox3DPWi4ZPMTyeCvQ0AO1UW9np8CxqWuIjlz2wawdAnFv8AE7TXxsE0oBx7kVtXltJNDJGrZbZuLGuZlL2/ifRLnO398oz+IoA95+LEIfwNqcaDOIc18et9OlfYPjJzd+BNQVvmdrYnNfIEy7ZXA7E5oAvWH+oP+9RRYf8AHuf96igD1H9p/wD5K0n/AGDof/Qnrx0e/WvYv2nv+StJ/wBg6H/0J68dVuf50AfTPwJleTwKI1wSkrfzrjfHIew+MDO64Dnr68V1PwFSV/B8xhOGMpA/Ouf+MFrPa+PLW4n+8zgH9KAK9tOPPcL/AM9DmtaawW5tAyck9vSsEo0OveUeFlwwro7OZlBj9OtAGIttc2rFAGI96mijuGI3Iea6LKNGGZcY601ZoHZVTGaAM2Cxd0O7Iq3p6GFzGQcZq8iqh56+lPRU3Bsc0AOk+XmmMA4yetSvyDnmo8bR83INACFxtPGT60wNj15oT7x29Keo3MMjpQAqJhRznPepAc8bulIAFHynjuKQ7FGRQBmawGO0K2QD0FZVnaP9pluDMANuBH61pXFxDK7bgcL1NVrZIWvl5OwigC7pjgWxVuW6ioL0tBdq69CahSXyZx5ZOzdjmtC8jSSPJ5xz1oAjuF8+0DngVzsqlGYZHWuht5Ue22c4HasW/tx5zEetAFEHy2G7t0r1nwPrsL6ZFbSMqsM/MT715CWOSGqaHVLu0GLdsCgD3qa/055DELxEIPPPWqF5qekWp8+7vEl28KgNeJvql3LJvaYg+1Na6lZgZJNx96AOy17xWt3cYt32xqcAA1gNexOd88jN7E8VjTSE8niqrys3WgDVu9VaRyIunYVBbzyyzA9PWqUULzSDbn8K1LeDylwoyzUAWpJGKZDYGCM1i64uG0SQrybnAI+tbM6gL5f8QXOMVla+426FEMki4BI9ORQB7PqDFvh9emfO42xA/Kvkq8BW8mA/vmvrPVXkk+Hl2WXGLYgflXyXfcXkuRyWNAFuw/49z/vUUWH/AB7n60UAeo/tPf8AJWk/7B0X/oT144vWvY/2n/8AkrSf9g6H/wBCevGxQB9A/ADUmbTZ9PViGLEjB6Vb+N1pm0s7pVYzRS/M571wPwV186R4yhhYjbcNtwa93+I2grrvhi4McfzoC49+KAPHpFF1bW17v/hAJzW1prDcOcgjrmuV8O3DXvh24tGX99A5AHpitOwvBHaKZvkdeMZ70Abl5cbV2xsfessS/PuV8MvSqk97czZEEfB706w06aWVTJkk0AdNZTNPbqXzkd/Wr2OnbPSoLWBYYgh4PrVhsAjc2MUAIJQpw1KBnJDDHcVTuY2DExnOahieZWw1AF8kDOOKAxA601TldzdQKXqcUANDnI5wveqdzqKoxQduOtWnyEf6VhT4EmMZOec0ATPtkQ4OATz71DaKYdRjONwOQBUqEOFU4G3pUkCZ1CPaQMGgB8cKvM/mfwtwKvSkMjDb2wKyZZ3jvJSpwAxzVwXv7sKOc9aAG20ZjlYHjFVtSjwucc1oIu7Mh71XuYzKhGc8cUAczcjLYHFVixQH0q7cqRJ81VGjbaaAIC4zwOaeAX+90FKYiOnNS28DvjcOKAISxbhgeKkS3MmPlIFXBCMkIu8jripI2KENtzg9PWgCSzYWqMBHlmGOetW0jFtCXI56jPamN8hNxKMORwKje7FxC2880AQPOzzFx94jArN1KJrnxNpNsDkhwWI7cir9oM6nHGBvXqcUvhm0fXfiBL5ALLbsFP8As80Aeo+I2k034eXolcE/ZzXyfcOZZmY92Jr6X+LF+dP8D3UJcbnXYPevmVsg5zxQBoWH/Hv+NFFhzbn/AHqKAPUf2nv+StJ/2Dov/QnrxuvZP2n/APkrSf8AYOh/9CevG6ANXw9ftpmu2d4rYMUoPFfa+jajb6j4VgluYvMS6gGDjpmvhaN9sit/dOa+qPg54pTXPBsWnlh9ps0wVz1XNAHmniOwfwf4+C2ozaXh6L65p+oxRJfqG+TcclT616v8R/Cceq6LJd20YEsSb4yq8hh2rxgTz6xpu+dSt/A2HXucUAdRaRRtgEDFXJJ4bT/VxjI71z2lahuXaDmRRhh3pbuea8k8uI4GcE+lAFybWXkkIVjwe1aVhevcMFkOc9KxY4FijwRlu5Pep7BnS5XA70AdMFVW2t19aBtDHIz6UxSWGWHaqst6scm3IxQBobl2tUZHy8VSfVIkjO1ctTY9SVly4xQBeJ29OfWsu+tfn3r/ABdQKvRyLIAyHIbrSSuVBZlG2gDn5d6sMZB9afZNO+qW+Pu7sE1ofaIXYqUH1quxEV7D5Zx82eKACeEvqVwmcHdSwwGI5duKgupHOpTHdyW4xUUjSDPmSfhmgDZVg0eEakZcjkjpWfYSk5TNW2kIAFAFSe0RSZGANUpNmwnaOe1aNxKEjOTz6VjufMkweOeDQAoVCyhhgt0FSSr5a4SnmAMvzAsQPlYdqrL5qSHfk4GKAHCWaLKwcMfvNVuyhdMmTnvzTrW3VYzI/JPNQ3F/tzsGMcUAJqLyOx5xnoKoKxiyX5VRlh61bF4JVwQCaqQJ9t1ERlsIh+Yjv7UAWvtf2LRZtU2hZRkovt2rtPhN4enj0+TXZWQG9/eEDrXnurI2qa5a6Lac7yC4Svb9IjGj6DBbkBFjj3EEYwAKAPL/AI83jRWtlabs7gXb35rwtutd18VfE3/CQ+J8xsDHbgoMHI61whoA0bD/AI9z/vUUWH/Hv+NFAHqX7T//ACVpP+wdD/6E9eNgZr2T9p7/AJK0n/YOi/8AQnrxsUAOUYbFdd8PvF114T8Qxz27YSQhJAO4zXIZ54rT0W4toL9TepvQ8delAH21a30eqaODbbXhuI85+orwTxvoFz4R8SPrFugFrOQJIx798V1Xw58X2mhRRRG8S606VwCC3zQ5/pXoPivRdL8TaVJJE8dwso+Rl5HSgDxCTTzarHq2lBRkbmU/xDrVWHUIp7onaI3c7mUdKjmgvfDGoS2WoSPLaSkrFkYCVTvYY7RhcwsdjcZHagDplaBh8/JqeM28K7wBkdK5y0uGkiCsxPo2etTtNMsjZBKheB60AdJb34llIPQ9Kq3UDPKzJis/TbnzLVHIxIr8j2ramlCx5GORQBmfZmCsWFZ8ty6XCpnGa05bxWBU8VzlxOZtWVYzlV647UAdXprMsHz81YuCzWx/lVK0dktCzHkdKtW8wmQ5oAw5Loo2MfdPNRR3yy3ca87i+BWjd2Xzs6YOTyMdaz47RBfwvt2nfQBckVPt0u7rmoJ7cg5UbqkvABfzsD1arUZhijLM26gCGxhYOHPHFXjz25pkMiSjMdIZVjkKlutAFG7WR5xjFMS0VW3T49sGtBo1kxjHTrVG4hcPkHcKALUe0L8nT0qKaa3Q4Zc/Ss1bzyJfLcnJ6c015d+R3oA00u4zx0HTFRT20OC/cj86xHfyJA5JIzV83H2mLCMCFGSc9KAKV2PLTevy84XFNVxpmnSTyH52G6nxubmXL8Rp0B71QSOXxH4ht9PgBMO8B8cigDsPhNp/2nVG1e9jLyljsJ7Cul+J3itfD+jSoHPn3KsiD0GK0rU2PhDQiZAirEMk9Pwr518beJ7jxLr008sjmFXbykJyAM0Ac/NI0khZzlmOSajoNFAGnYf8e5+tFFh/x7n60UAeo/tP/wDJWk/7B0P/AKE9eN17J+09/wAlaT/sHRf+hPXjdAAKep+bIplKDQBdsdQls5g0bkAHkdjXrfwt+JL2eqjTL2dUtJASm/sTXixOalhmeGVXjYqynIIoA+uPFvh6LxFphAgVmALB178dRXh7mfRNQbTdVQ/ZSTtd6674W/E1r0jSdbuGLBQsTsQB9K73xb8PrPxFpUstuil8Z59R3FAHi87PpkqSQgtZP074rXt5o7qMNGwbPp2rnrsXnhq+k0zVwz22cKccCpY4pbFhLYS7oG5KDmgDpbaBVfI4GasXc6r8ue1YkGsh4cgHd02VTuLy6mPmSK8S/wAOR1oAkur6RphCpw2e1XtOsFB37csetc+1tdG4Fxkkr1FbVhrCqgWUbCOMHvQBuyqI7NsHFU7C9CuQTUxn862ZQcgjjNc/JJLBcMf4c9KAOteQFAwOaz5CPtkZPTOapWGpeZwzcDjFWV8y61COKBGdiegGaAKGo6ns1W44+XPSkju3uwNiEL71Fe2oTWLqK7UpIrcA1etQiYVcYB6e9AGjaqLS13MeT61m3NztDS5yc8CrGoTsqhcZGKzSu6EhqAJE1rdhIzgd6lbVR5fzOB9TXO2gU3sieh4rRbTxO4yPl/nQAxH+2XYfsp4961RbKg3N1psMENmmSAT2A7VBd3+AS7YX0oAdIiTHYMelVWtGik+y27bkflmHb2qlI89zIrRsY4wefeorzVlsl+zadl7hu4OaAF1fUXgX7FZgNMeML1Fdx4C0qDw9bm6uV/0mQBhvrm/DuhpZt/amrfvZXGcd80zxX4vNjG0NuSZXX5cH7goAb8VPGz390dLs5QYQo8wr6+leXHJp80rzymSRizsckmmZ9e1ACUUUDigDSsP+Pf8AGilsP+Pf8aKAPUf2nv8AkrSf9g6L/wBCevG69k/af/5K0n/YOh/9CevG6ACgc0Uo60ABGKSlagZ7UASQTtBMsiEqynIIOK9/+FfxUiuI4dJ1dwkoO1ZWbhh6V8+GpIJ2gmWSM7WU5BFAH2B4u8HaT4z0kiNljnxuDAZzxXz5qGl6t4Nu5Enie4twxy208Cun+G3xclszFp2uTEwgYSQL39DXst7Y6T4s0kx7FbzRgOP60AfOkVzaaniWGQRS+matz6ldTWH2a5j3+UflcV0/i/4MSWjvdaDIMrxjdXAyza1ochg1KAlQcEgZoA3re5iCKodTkc5PSq+q2yzQB0+Vl6kVj219Y3bZQmKU+vFaheWSAKrrIo9D1oAs6NrChVhmOGBwCx61PqMsBBYyLk+9ZUNraM5N2jgjoFq7DLpVvGS1nLJN/CH6UAbnw50iz1ibUVvC8cgT9xuHDGvYPAHgePw9btPf4nuZGyny/dFeGHXdXijiGmRxW6xncDiuis/jL4p09FW6hSbjAO0UAejeOfBtg902svHlWB8xQPavG7IKl1Nw21ZDtBHatbWvif4n1+NYyI4LfPzKAOa5ptQ1JVYqsTj8M0Abs00Ui84qlPIgjOMAAVl/2jcBcvb59xUTzXUzfcUCgBthaTSag8sJ3AnGK25JGtlKysoI9+axYluY2ysgjyc5FJM9nbt5l5cl29CaALct+ZPlgBJ7sap7FifzLqYHPYmqE2tg5SwiZmJxnFX9P8F61rCrcaivlWpP0oApXGoTXlwttpsLO3QlRkV0uleGF0WH7VfMsly3IXGcVr2+n6V4ftQunD/ScfOx5rk/EHizyA6Rvvmbv2oAn1/X0sYi24OxPEYPSvObq6e7naSU5LHPWkurmS6uGlmbczdahoAKKKKACiiigDTsP+Pc/Wiiw/49z9aKAPUf2n/+StJ/2Dov/QnrxuvZP2n/APkrSf8AYOh/9CevG6AClU4pKKAA0CigUABFFL60E9KAFDbTlSQfavQPAfxKu/DdwsN48k9oWyRu5Feejk04EdKAPrzw14503XbfzbJ0ZmHMUpGRWjN4f07VIXNzDG8zHJyowBXx9YaldabdLPaymN1PBBr1Dw58abu3Ah1dVaMADeoOaAOm8TfC6ze/2WUW0uOGUcA1yuo/CDxDpyiW0n3huQATxXqmifEnRtWgHk3cZYH7rjBrqbXU4rm0YwsrSMOOeBQB8x3Gm+I9KIWWBpPfFVpdS1VVBls2yP8AZr6YudLtpdPaOUK0pJbd6Gmt4Y09rFI5UTOPvYGaAPmGTVdUIyIJFX6GqsusX/8AGj/iK+mZvAVnMo+zqST97pWbefDixjmRXUBmGeQKAPnc65dbcFW5qMatdg9XyelfQS/C+wlO7CEE8jAqy3ws0tHVwAqjqvHNAHz0mqai67VRzn2NaFpFr90mIYXAPdga+hF8CaPDGBGuH7cVcXw7aWSqcgnHI7UAeC2fgbxHqCFpJCi+2eK6TRvg/Lcxia8ulbB5DZr2OKS0tEVYVBTvkd6zb3XdNsFcvMkSk5bJ6UAcx/wrtLcwfYhAgQguSvWneM7yWx0ci4mSKCFR8q8ZNZmv/F3SrONk05xPKAcfLxmvGvEfi3UPEdwXvZPl/uDpQBJq/iu4vJGjgJjTJAOeTXPu7SNl2LE+tMooADRRRQAUUUUAFFFFAGnYf8e5/wB6iiw/49z9aKAPUf2n/wDkrSf9g6H/ANCevG69m/abXd8XolPQ6fCP/Hmqt4t8KfC/wZ4ibRdWk8Ty3McUcjyQNAU+dA3GQD3oA8iorrfiL4PtvB2vWkOm3r3un6hZRX9pLKm1/LkzgMPXg1yVABRRSk8UAJRRRQAq9aQ9acCKTFAC7uAKUcZx1ox6UAc9aAJo7maGQNE7IfVTium0n4ja/pACwXpZR2YA1yp6VGvWgD2LSPjdKCBq0JY8fMgrpofjbosjKr+coHqtfPB46GkycdaAPpm1+MegA7RcSLu9RWl/wsTQr7bJJeAsvT6V8qhyKeJXC4DEfjQB9WL460NCdt0uOwzWfe/FPQrYr5l3u5xwM4r5j8+T++3501pGbqSfxoA+mbr4reHo4RIt0zHHQCuY1X42WOCtnHLIR0JHFeGGRj1JpM0Aeh6n8XNauo2S0ZYVb2FcffeIdS1An7TdyPk884rNJ602gBxcnvTaKKACiiigAooooAKKKKACiiigDTsP+Pc/Wiiw/wCPc/WigD1T9pn/AJLDB/14Qf8AoTVq/Frxxp+h/EeW1ufBeiatLFb27G6u43aR8xKcHDY46dK5X46+JNL8Y/EVNV8M3f2y0Wzjj83y3j+cFiRhwD3Haqj/ABk8eyENLe2kjgAB3sYGbAGByVoAtfG2FLy68O+JdstrLremrK+nyNkWgXAATgYQg8CvLq2Ne1fW/E+rPqWu3Ul5duADJIw4A6AAcAewrN+yTf3f1oAhoqb7JN/d/Wj7JN/d/WgCLIxx1pKm+yTf3f1o+yTf3f1oAhoHvU32Sb+7+tH2Sb+7+tAEeQKAQDmpPsk3939aPskv939aAI2bPSm1N9km/u/rR9km/u/rQBDSg4qX7JN/d/Wj7JN/d/WgCGlzx1qX7LN/d/Wl+yy/3R+dAEFFTfZJf7o/Oj7JL/dH50AQ0VN9km/u/rR9km/u/rQBDRU32Sb+7+tH2Sb+7+tAENFTfZJv7v60fZJv7v60AQ0VN9km/u/rR9km/u/rQBDRU32Sb+7+tH2SX+7+tAENFTfZJf7o/Oj7JL/d/WgCGipvsk3939acLOb+7+ooAt2H/Hv/AMCoqSziaOHDjBzmigBaKKKACiiigAooooAKKKKACiiigAooooAKKKKACiiigAooooAKKKKACiiigAooooAKKKKACiiigAooooAKWiigAFPFFFAEgooooA//2Q==;" vertex="1" parent="1">
          <mxGeometry x="192.65" y="180" width="86.7" height="110" as="geometry" />
        </mxCell>
        <mxCell id="3ASoaDRJVkE-flD1x3Yw-3" value="" style="shape=image;verticalLabelPosition=bottom;labelBackgroundColor=#ffffff;verticalAlign=top;aspect=fixed;imageAspect=0;image=data:image/jpeg,/9j/4AAQSkZJRgABAQEAYABgAAD/4RD+RXhpZgAATU0AKgAAAAgABAE7AAIAAAARAAAISodpAAQAAAABAAAIXJydAAEAAAAiAAAQ1OocAAcAAAgMAAAAPgAAAAAc6gAAAAgAAAAAAAAAAAAAAAAAAAAAAAAAAAAAAAAAAAAAAAAAAAAAAAAAAAAAAAAAAAAAAAAAAAAAAAAAAAAAAAAAAAAAAAAAAAAAAAAAAAAAAAAAAAAAAAAAAAAAAAAAAAAAAAAAAAAAAAAAAAAAAAAAAAAAAAAAAAAAAAAAAAAAAAAAAAAAAAAAAAAAAAAAAAAAAAAAAAAAAAAAAAAAAAAAAAAAAAAAAAAAAAAAAAAAAAAAAAAAAAAAAAAAAAAAAAAAAAAAAAAAAAAAAAAAAAAAAAAAAAAAAAAAAAAAAAAAAAAAAAAAAAAAAAAAAAAAAAAAAAAAAAAAAAAAAAAAAAAAAAAAAAAAAAAAAAAAAAAAAAAAAAAAAAAAAAAAAAAAAAAAAAAAAAAAAAAAAAAAAAAAAAAAAAAAAAAAAAAAAAAAAAAAAAAAAAAAAAAAAAAAAAAAAAAAAAAAAAAAAAAAAAAAAAAAAAAAAAAAAAAAAAAAAAAAAAAAAAAAAAAAAAAAAAAAAAAAAAAAAAAAAAAAAAAAAAAAAAAAAAAAAAAAAAAAAAAAAAAAAAAAAAAAAAAAAAAAAAAAAAAAAAAAAAAAAAAAAAAAAAAAAAAAAAAAAAAAAAAAAAAAAAAAAAAAAAAAAAAAAAAAAAAAAAAAAAAAAAAAAAAAAAAAAAAAAAAAAAAAAAAAAAAAAAAAAAAAAAAAAAAAAAAAAAAAAAAAAAAAAAAAAAAAAAAAAAAAAAAAAAAAAAAAAAAAAAAAAAAAAAAAAAAAAAAAAAAAAAAAAAAAAAAAAAAAAAAAAAAAAAAAAAAAAAAAAAAAAAAAAAAAAAAAAAAAAAAAAAAAAAAAAAAAAAAAAAAAAAAAAAAAAAAAAAAAAAAAAAAAAAAAAAAAAAAAAAAAAAAAAAAAAAAAAAAAAAAAAAAAAAAAAAAAAAAAAAAAAAAAAAAAAAAAAAAAAAAAAAAAAAAAAAAAAAAAAAAAAAAAAAAAAAAAAAAAAAAAAAAAAAAAAAAAAAAAAAAAAAAAAAAAAAAAAAAAAAAAAAAAAAAAAAAAAAAAAAAAAAAAAAAAAAAAAAAAAAAAAAAAAAAAAAAAAAAAAAAAAAAAAAAAAAAAAAAAAAAAAAAAAAAAAAAAAAAAAAAAAAAAAAAAAAAAAAAAAAAAAAAAAAAAAAAAAAAAAAAAAAAAAAAAAAAAAAAAAAAAAAAAAAAAAAAAAAAAAAAAAAAAAAAAAAAAAAAAAAAAAAAAAAAAAAAAAAAAAAAAAAAAAAAAAAAAAAAAAAAAAAAAAAAAAAAAAAAAAAAAAAAAAAAAAAAAAAAAAAAAAAAAAAAAAAAAAAAAAAAAAAAAAAAAAAAAAAAAAAAAAAAAAAAAAAAAAAAAAAAAAAAAAAAAAAAAAAAAAAAAAAAAAAAAAAAAAAAAAAAAAAAAAAAAAAAAAAAAAAAAAAAAAAAAAAAAAAAAAAAAAAAAAAAAAAAAAAAAAAAAAAAAAAAAAAAAAAAAAAAAAAAAAAAAAAAAAAAAAAAAAAAAAAAAAAAAAAAAAAAAAAAAAAAAAAAAAAAAAAAAAAAAAAAAAAAAAAAAAAAAAAAAAAAAAAAAAAAAAAAAAAAAAAAAAAAAAAAAAAAAAAAAAAAAAAAAAAAAAAAAAAAAAAAAAAAAAAAAAAAAAAAAAAAAAAAAAAAAAAAAAAAAAAAAAAAAAAAAAAAAAAAAAAAAAAAAAAAAAAAAAAAAAAAAAAAAAAAAAAAAAAAAAAAAAAAAAAAAAAAAAAAAAAAAAAAAAAAAAAAAAAAAAAAAAAAAAAAAAAAAAAAAAAAAAAAAAAAAAAAAAAAAAAAAAAAAAAAAAAAAAAAAAAAAAAAAAAAAAAAAAAAAAAAAAAAAAAAAAAAAAAAAAAAAAAAAAAAAAAAAAAAAAAAAAAAAAAAAAAAAAAAAAAAAAAAAAAAAAAAAAAAAAAAAAAAAAAAAAAAAAAAAAAAAAAAAAAAAAAAAAAAAAAAAAAAAAAAAAAAAAAAAAAAAAAAAAAAAAAAAAAAAAAAAAAAAAAAAAAAAAAAAAAAAAAAAAAAAAAAAAAAAAAAAAAAAAAAAAAAAAAAAAAAAAAAAAAAAAAAAAAAAAAAAAAAAAAAAAAAAAAAAAAAAAAAAAAAAAAAAAAAAAAAAAAAAAAAAAAAAAAAAAAAAAAAAAAAAAAAAAAAAAAAAAAAAAAAAAAAAAAAAAAAAAAAAAAAAAAAAAAAAAAAAAAAAAAAAAAAAAAAAAAAAAAAAAAAAAAAAAAAAAAAAAAAAAAAAAAAAAAAAAAAAAAAAAAAAAAAAAAAAAAAAAAAAAAAAAAAAAAAAAAAAAAAAAAAAAAAAAAAAAAAAAAAAAAAAAAAAAAAAAAAAAAAAAAAAAAAAAAAAAAAAAAAAAAAAAAAAAAAAAAAAAAAAAAAAAAAAAAAAAAAAAAAAAAAAAAAAAAAAAAAAAAAAAAAAAAAAAAAAAAAAAAAAAAAAAAAAAAAAAAAAAAAAAAAAAAAAAAAAAAAAAAAAAAAAAAAAAAAAAAAAAAAAAAAAAAAAAAAAAAAAAAAAAAAAAAAAAAAAAAAAAAAAAAAAAAAAAAAAAAAAAAAAAAAAAAAAAAAAAAAAAAAAAAAAAAAAAAAAAAAAAAAAAAAAAAAAAAAAAAAAAAAAAAAAAAAAAAAAAAAAAAAAAAAAAAAAAAAAAAAAAAAAAAAAAAAAAAAAAAAAAAAAAAAAAAAAAAAAAAAAAAAAAAAAAAAAAAAAAEtpbm5hciBDaG93ZGh1cnkAAAAFkAMAAgAAABQAABCqkAQAAgAAABQAABC+kpEAAgAAAAM2NgAAkpIAAgAAAAM2NgAA6hwABwAACAwAAAieAAAAABzqAAAACAAAAAAAAAAAAAAAAAAAAAAAAAAAAAAAAAAAAAAAAAAAAAAAAAAAAAAAAAAAAAAAAAAAAAAAAAAAAAAAAAAAAAAAAAAAAAAAAAAAAAAAAAAAAAAAAAAAAAAAAAAAAAAAAAAAAAAAAAAAAAAAAAAAAAAAAAAAAAAAAAAAAAAAAAAAAAAAAAAAAAAAAAAAAAAAAAAAAAAAAAAAAAAAAAAAAAAAAAAAAAAAAAAAAAAAAAAAAAAAAAAAAAAAAAAAAAAAAAAAAAAAAAAAAAAAAAAAAAAAAAAAAAAAAAAAAAAAAAAAAAAAAAAAAAAAAAAAAAAAAAAAAAAAAAAAAAAAAAAAAAAAAAAAAAAAAAAAAAAAAAAAAAAAAAAAAAAAAAAAAAAAAAAAAAAAAAAAAAAAAAAAAAAAAAAAAAAAAAAAAAAAAAAAAAAAAAAAAAAAAAAAAAAAAAAAAAAAAAAAAAAAAAAAAAAAAAAAAAAAAAAAAAAAAAAAAAAAAAAAAAAAAAAAAAAAAAAAAAAAAAAAAAAAAAAAAAAAAAAAAAAAAAAAAAAAAAAAAAAAAAAAAAAAAAAAAAAAAAAAAAAAAAAAAAAAAAAAAAAAAAAAAAAAAAAAAAAAAAAAAAAAAAAAAAAAAAAAAAAAAAAAAAAAAAAAAAAAAAAAAAAAAAAAAAAAAAAAAAAAAAAAAAAAAAAAAAAAAAAAAAAAAAAAAAAAAAAAAAAAAAAAAAAAAAAAAAAAAAAAAAAAAAAAAAAAAAAAAAAAAAAAAAAAAAAAAAAAAAAAAAAAAAAAAAAAAAAAAAAAAAAAAAAAAAAAAAAAAAAAAAAAAAAAAAAAAAAAAAAAAAAAAAAAAAAAAAAAAAAAAAAAAAAAAAAAAAAAAAAAAAAAAAAAAAAAAAAAAAAAAAAAAAAAAAAAAAAAAAAAAAAAAAAAAAAAAAAAAAAAAAAAAAAAAAAAAAAAAAAAAAAAAAAAAAAAAAAAAAAAAAAAAAAAAAAAAAAAAAAAAAAAAAAAAAAAAAAAAAAAAAAAAAAAAAAAAAAAAAAAAAAAAAAAAAAAAAAAAAAAAAAAAAAAAAAAAAAAAAAAAAAAAAAAAAAAAAAAAAAAAAAAAAAAAAAAAAAAAAAAAAAAAAAAAAAAAAAAAAAAAAAAAAAAAAAAAAAAAAAAAAAAAAAAAAAAAAAAAAAAAAAAAAAAAAAAAAAAAAAAAAAAAAAAAAAAAAAAAAAAAAAAAAAAAAAAAAAAAAAAAAAAAAAAAAAAAAAAAAAAAAAAAAAAAAAAAAAAAAAAAAAAAAAAAAAAAAAAAAAAAAAAAAAAAAAAAAAAAAAAAAAAAAAAAAAAAAAAAAAAAAAAAAAAAAAAAAAAAAAAAAAAAAAAAAAAAAAAAAAAAAAAAAAAAAAAAAAAAAAAAAAAAAAAAAAAAAAAAAAAAAAAAAAAAAAAAAAAAAAAAAAAAAAAAAAAAAAAAAAAAAAAAAAAAAAAAAAAAAAAAAAAAAAAAAAAAAAAAAAAAAAAAAAAAAAAAAAAAAAAAAAAAAAAAAAAAAAAAAAAAAAAAAAAAAAAAAAAAAAAAAAAAAAAAAAAAAAAAAAAAAAAAAAAAAAAAAAAAAAAAAAAAAAAAAAAAAAAAAAAAAAAAAAAAAAAAAAAAAAAAAAAAAAAAAAAAAAAAAAAAAAAAAAAAAAAAAAAAAAAAAAAAAAAAAAAAAAAAAAAAAAAAAAAAAAAAAAAAAAAAAAAAAAAAAAAAAAAAAAAAAAAAAAAAAAAAAAAAAAAAAAAAAAAAAAAAAAAAAAAAAAAAAAAAAAAAAAAAAAAAAAAAAAAAAAAAAAAAAAAAAAAAAAAAAAAAAAAAAAAAAAAAAAAAAAAAAAAAAAAAAAAAAAAAAAAAAAAAAAAAAAAAAAAAAAAAAAAAAAAAAAAAAAAAAAAAAAAAAAAAAAAAAAAAAAAAAAAAAAAAAAAAAAAAAAAAAAAAAAAAAAAAAAAAAAAAAAAAAAAAAAAAAAAAAAAAAAAAAAAAAAAAAAAAAAAAAAAAAAAAAAAAAAAAAAAAAAAAAAAAAAAAAAAAAAAAAAAAAAAAAAAAAAAAAAAAAAAAAAAAAAAAAAAAAAAAAAAAAAAAAAAAAAAAAAAAAAAAAAAAAAAAAAAAAAAAAAAAAAAAAAAAAAAAAAAAAAAAAAAAAAAAAAAAAAAAAAAAAAAAAAAAAAAAAAAAAAAAAAAAAAAAAAAAAAAAAAAAAAAAAAAAAAAAAAAAAAAAAAAAAAAAAAAAAAAAAAAAAAAAAAAAAAAAAAAAAAAAAAAAAAAAAAAAAAAAAAAAAAAAAAAAAAAAAAAAAAAAAAAAAAAAAAAAAAAAAAAAAAAAAAAAAAAAAAAAAAAAAAAAAAAAAAAAAAAAAAAAAAAAAAAAAAAAAAAAAAAAAAAAAAAAAAAAAAAAAAAAAAAAAAAAAAAAAAAAAAAAAAAAAAAAAAAAAAAAAAAAAAAAAAAAAAAAAAAAAAAAAAAAAAAAAAAAAAAAAAAAAAAAAAAAAAAAAAAAAAAAAAAAAAAAAAAAAAAAAAAAAAAAAAAAAAAAAAAAAAAAAAAAAAAAAAAAAAAAAAAAAAAAAAAAAAAAAAAAAAAAAAAAAAAAAAAAAAAAAAAAAAAAAAAAAAAAAAAAAAAAAAAAAAAAAAAAAAAAAAAAAAAAAAAAAAAAAAAAAAAAAAAAAAAAAAAAAAAAAAAAAAAAAAAAAAAAAAAAAAAAAAAAAAAAAAAAAAAAAAAAAAAMjAxODoxMToyMyAxNDozNjowMgAyMDE4OjExOjIzIDE0OjM2OjAyAAAASwBpAG4AbgBhAHIAIABDAGgAbwB3AGQAaAB1AHIAeQAAAP/hCyNodHRwOi8vbnMuYWRvYmUuY29tL3hhcC8xLjAvADw/eHBhY2tldCBiZWdpbj0n77u/JyBpZD0nVzVNME1wQ2VoaUh6cmVTek5UY3prYzlkJz8+DQo8eDp4bXBtZXRhIHhtbG5zOng9ImFkb2JlOm5zOm1ldGEvIj48cmRmOlJERiB4bWxuczpyZGY9Imh0dHA6Ly93d3cudzMub3JnLzE5OTkvMDIvMjItcmRmLXN5bnRheC1ucyMiPjxyZGY6RGVzY3JpcHRpb24gcmRmOmFib3V0PSJ1dWlkOmZhZjViZGQ1LWJhM2QtMTFkYS1hZDMxLWQzM2Q3NTE4MmYxYiIgeG1sbnM6ZGM9Imh0dHA6Ly9wdXJsLm9yZy9kYy9lbGVtZW50cy8xLjEvIi8+PHJkZjpEZXNjcmlwdGlvbiByZGY6YWJvdXQ9InV1aWQ6ZmFmNWJkZDUtYmEzZC0xMWRhLWFkMzEtZDMzZDc1MTgyZjFiIiB4bWxuczp4bXA9Imh0dHA6Ly9ucy5hZG9iZS5jb20veGFwLzEuMC8iPjx4bXA6Q3JlYXRlRGF0ZT4yMDE4LTExLTIzVDE0OjM2OjAyLjY1NjwveG1wOkNyZWF0ZURhdGU+PC9yZGY6RGVzY3JpcHRpb24+PHJkZjpEZXNjcmlwdGlvbiByZGY6YWJvdXQ9InV1aWQ6ZmFmNWJkZDUtYmEzZC0xMWRhLWFkMzEtZDMzZDc1MTgyZjFiIiB4bWxuczpkYz0iaHR0cDovL3B1cmwub3JnL2RjL2VsZW1lbnRzLzEuMS8iPjxkYzpjcmVhdG9yPjxyZGY6U2VxIHhtbG5zOnJkZj0iaHR0cDovL3d3dy53My5vcmcvMTk5OS8wMi8yMi1yZGYtc3ludGF4LW5zIyI+PHJkZjpsaT5LaW5uYXIgQ2hvd2RodXJ5PC9yZGY6bGk+PC9yZGY6U2VxPg0KCQkJPC9kYzpjcmVhdG9yPjwvcmRmOkRlc2NyaXB0aW9uPjwvcmRmOlJERj48L3g6eG1wbWV0YT4NCiAgICAgICAgICAgICAgICAgICAgICAgICAgICAgICAgICAgICAgICAgICAgICAgICAgICAgICAgICAgICAgICAgICAgICAgICAgICAgICAgICAgICAgICAgICAgICAgICAgICAKICAgICAgICAgICAgICAgICAgICAgICAgICAgICAgICAgICAgICAgICAgICAgICAgICAgICAgICAgICAgICAgICAgICAgICAgICAgICAgICAgICAgICAgICAgICAgICAgICAgIAogICAgICAgICAgICAgICAgICAgICAgICAgICAgICAgICAgICAgICAgICAgICAgICAgICAgICAgICAgICAgICAgICAgICAgICAgICAgICAgICAgICAgICAgICAgICAgICAgICAgCiAgICAgICAgICAgICAgICAgICAgICAgICAgICAgICAgICAgICAgICAgICAgICAgICAgICAgICAgICAgICAgICAgICAgICAgICAgICAgICAgICAgICAgICAgICAgICAgICAgICAKICAgICAgICAgICAgICAgICAgICAgICAgICAgICAgICAgICAgICAgICAgICAgICAgICAgICAgICAgICAgICAgICAgICAgICAgICAgICAgICAgICAgICAgICAgICAgICAgICAgIAogICAgICAgICAgICAgICAgICAgICAgICAgICAgICAgICAgICAgICAgICAgICAgICAgICAgICAgICAgICAgICAgICAgICAgICAgICAgICAgICAgICAgICAgICAgICAgICAgICAgCiAgICAgICAgICAgICAgICAgICAgICAgICAgICAgICAgICAgICAgICAgICAgICAgICAgICAgICAgICAgICAgICAgICAgICAgICAgICAgICAgICAgICAgICAgICAgICAgICAgICAKICAgICAgICAgICAgICAgICAgICAgICAgICAgICAgICAgICAgICAgICAgICAgICAgICAgICAgICAgICAgICAgICAgICAgICAgICAgICAgICAgICAgICAgICAgICAgICAgICAgIAogICAgICAgICAgICAgICAgICAgICAgICAgICAgICAgICAgICAgICAgICAgICAgICAgICAgICAgICAgICAgICAgICAgICAgICAgICAgICAgICAgICAgICAgICAgICAgICAgICAgCiAgICAgICAgICAgICAgICAgICAgICAgICAgICAgICAgICAgICAgICAgICAgICAgICAgICAgICAgICAgICAgICAgICAgICAgICAgICAgICAgICAgICAgICAgICAgICAgICAgICAKICAgICAgICAgICAgICAgICAgICAgICAgICAgICAgICAgICAgICAgICAgICAgICAgICAgICAgICAgICAgICAgICAgICAgICAgICAgICAgICAgICAgICAgICAgICAgICAgICAgIAogICAgICAgICAgICAgICAgICAgICAgICAgICAgICAgICAgICAgICAgICAgICAgICAgICAgICAgICAgICAgICAgICAgICAgICAgICAgICAgICAgICAgICAgICAgICAgICAgICAgCiAgICAgICAgICAgICAgICAgICAgICAgICAgICAgICAgICAgICAgICAgICAgICAgICAgICAgICAgICAgICAgICAgICAgICAgICAgICAgICAgICAgICAgICAgICAgICAgICAgICAKICAgICAgICAgICAgICAgICAgICAgICAgICAgICAgICAgICAgICAgICAgICAgICAgICAgICAgICAgICAgICAgICAgICAgICAgICAgICAgICAgICAgICAgICAgICAgICAgICAgIAogICAgICAgICAgICAgICAgICAgICAgICAgICAgICAgICAgICAgICAgICAgICAgICAgICAgICAgICAgICAgICAgICAgICAgICAgICAgICAgICAgICAgICAgICAgICAgICAgICAgCiAgICAgICAgICAgICAgICAgICAgICAgICAgICAgICAgICAgICAgICAgICAgICAgICAgICAgICAgICAgICAgICAgICAgICAgICAgICAgICAgICAgICAgICAgICAgICAgICAgICAKICAgICAgICAgICAgICAgICAgICAgICAgICAgICAgICAgICAgICAgICAgICAgICAgICAgICAgICAgICAgICAgICAgICAgICAgICAgICAgICAgICAgICAgICAgICAgICAgICAgIAogICAgICAgICAgICAgICAgICAgICAgICAgICAgICAgICAgICAgICAgICAgICAgICAgICAgICAgICAgICAgICAgICAgICAgICAgICAgICAgICAgICAgICAgICAgICAgICAgICAgCiAgICAgICAgICAgICAgICAgICAgICAgICAgICAgICAgICAgICAgICAgICAgICAgICAgICAgICAgICAgICAgICAgICAgICAgICAgICAgICAgICAgICAgICAgICAgICAgICAgICAKICAgICAgICAgICAgICAgICAgICAgICAgICAgICAgICAgICAgICAgICAgICAgICAgICAgICAgICAgICAgICAgICAgICAgICAgICAgICAgICAgICAgICAgICAgICAgICAgICAgIAogICAgICAgICAgICAgICAgICAgICAgICAgICAgPD94cGFja2V0IGVuZD0ndyc/Pv/bAEMABwUFBgUEBwYFBggHBwgKEQsKCQkKFQ8QDBEYFRoZGBUYFxseJyEbHSUdFxgiLiIlKCkrLCsaIC8zLyoyJyorKv/bAEMBBwgICgkKFAsLFCocGBwqKioqKioqKioqKioqKioqKioqKioqKioqKioqKioqKioqKioqKioqKioqKioqKioqKv/AABEIAVQBOgMBIgACEQEDEQH/xAAfAAABBQEBAQEBAQAAAAAAAAAAAQIDBAUGBwgJCgv/xAC1EAACAQMDAgQDBQUEBAAAAX0BAgMABBEFEiExQQYTUWEHInEUMoGRoQgjQrHBFVLR8CQzYnKCCQoWFxgZGiUmJygpKjQ1Njc4OTpDREVGR0hJSlNUVVZXWFlaY2RlZmdoaWpzdHV2d3h5eoOEhYaHiImKkpOUlZaXmJmaoqOkpaanqKmqsrO0tba3uLm6wsPExcbHyMnK0tPU1dbX2Nna4eLj5OXm5+jp6vHy8/T19vf4+fr/xAAfAQADAQEBAQEBAQEBAAAAAAAAAQIDBAUGBwgJCgv/xAC1EQACAQIEBAMEBwUEBAABAncAAQIDEQQFITEGEkFRB2FxEyIygQgUQpGhscEJIzNS8BVictEKFiQ04SXxFxgZGiYnKCkqNTY3ODk6Q0RFRkdISUpTVFVWV1hZWmNkZWZnaGlqc3R1dnd4eXqCg4SFhoeIiYqSk5SVlpeYmZqio6Slpqeoqaqys7S1tre4ubrCw8TFxsfIycrS09TV1tfY2dri4+Tl5ufo6ery8/T19vf4+fr/2gAMAwEAAhEDEQA/APBaf160ynUAFFFFACH2o7UY9aKAG0U7FJigAxQKUDHvRQAtIKXFTQ2ssxwikn6UAQ0oBPQVvWnha6m/1v7rjPz8CtmDRtM0qMS30qOcchTQBxyWc7qGWJiD3xVy00G8vJhHFEd3oa66PxDoViB9mWRufmUgYNR3PxDEarHZWSBU+6WHIoAr2Pw7uLpXElzHG6fwk9aqz+Bb+BvnClB1YGqF54n1C7uBIrtH6BaafEGry7R50hCjAFAF+28N2Txst1dG2uB0WQYU/jUreFLaFVM10hD/AHSvr6VgzXV9c/6ze2T6UjfbzGAyybeozQBsXHhG4VQ0Rjk3dFRuaoL4dvCSPJcEDgYqul7qCHKvINvueKmXXdTRlbzXyvTNAFSTT5kJUqdw6iqzRup+ZSK2Y/EdwkyySwxuwGDletEmqW94waaJUcnkqKAMOjvWvPp8JOUcMp53rWZLC0TlWHSgCOkpaSgAoopaAEoHWlpKACiiigAooooAKa1O7U09qAExRRRigB9OptOoAM0UlFAB2oxRjJooAWikpaAAc0qqWYAVJbwNO2FFbEX2fTELSRrJMPug8igCOw0guvmTlY4hyWatWPXLHTLfZaQCQnksw5rCub+51AhScAHhQMAU5LHYFLnc5PCCgC1da1qmqYVNwUdFjGKry2F0UzcSBfYtk1s22m6jNtEMfk7u+MVo2fhrJzetvOemaAOOSzDOBnJzzUpgjtphvhLjORk8EV6YmlaUulyRLaoWx8xziqo0fTks1VICc9dxzQBxaanZQp/x4rntmof7ZLKI44UA6Ahea9Tfw9pElhGWs4/mG0tjvXIw+Et/i2OOKE/Z9/QUAYVtFqMxzFFIcdMJ0rTi07VnT9/GVQf3hivWrZINDhZQEkDjCFlGTXK3lzJNqT+acJnKgdBQByc3hu+lXzIg5YjnC1FF4P1ucu0duzbRnla7XT9XktW3Kx3KeOAa2B4omKlkIWRhy2BQB5FeaJfwHFxYOcDnavWsmS0j8zad0TZ6MOlevHVZJpy0p3k9Tiqd/pFnq8Db41V8ffA5zQB5Q0VxB93LL6jpSxzLKds3X1rdv9Lv9Cuv3sfmQdeRwwqjLa21+DJa4hl6mPPFAGdJZnkx8+1VipU/MCKuwyPb3ASfIxxmtCRYLi3KbAWA+UigDBpKfJG0bYNNHFAB0o7UY496PWgAooooASilpKACmt1p1IRzQA2lopKAJKWkpaACjpRRigAooooAKlggMz4HTuaakZdwB3rT2R2luoVgzN1x2oAlke30+2Cw/NKw5J7VnKJLnLMeBSkNdXGF+6O5qwigERg4GaACztWuLhYLcEsx5Nd3p2gwWKxmYb5ep3CjwnpVtFC1w65bHDYrUZgs2+RTyPlBoAHmQsqx/LtqIvl+GxzyarXGPMJBpYV5yBmgB8ztHGyjuOcVJb72hBJzyMe9RTRYjy/X2psEoWEo33u1AHQW8yJboXP3WBNLZXwTV0mxyJSazIJvNQxtzgjtViGMi8zjgMKALGqXkl1eKH+5yQPSqEse6Ul/lAHAq9ctCt2pONoNQX00JfKenUCgDFLbLoqvWpomIOWOevFVWYLdbmI3enrThNljjjI7igCwrs2Qg61u6PYtKQOoPXNZNoOenLDqKvWt89vIwBwF5x60Ad3qfhOx1DRhG+1pTHwTXjPiDwK1hNI1pKcg5APeu+Gs3Mx3uWC44wax9RupLi781jxnnNAHktykomMVwCHU96bHNLZvxyp9e9dt4n0JbiA38MZDYyQO9clbusym1usKP4SR0NADdqXShumf51RmgaF8N+FSsJLOYo3/AOupXlFzEAy/MOhoAoHig+1KwKsQeopKAD6UCijvQAUUUCgAprGnGmnqMUAJRR1pMUASUtJinfWgBMUvv2oozQAlLikxVqxtvtFyqkgLnnNAEsVv5cO6Tgt0+lQMS7hEOc8Va1SYNcGOM/KnHFVYAE/eHt0oAtlEgjESfNIep9K29D0RbyRGushSfSofDel/bZmuZ+VXkZ712tqI4myoHyjgUAX0iisoVt7YcAc+4qtOyuMg5xwQe1TNueNWH4YNVNjBGI+8T370AUpBufirdqrZARcmqx4cKepPFdN4Y0xru7jXZjnnNAFA6Pd3Me/ado9BWbc2TQSbWBBHXNe8RaHbW+mhAi7u5xXnfijSVgum5HByCaAORtY9rjJwO4FakTfMMcfWqGx0k2rztq3bNKWRygYA4x6UAPv7YLGs46Y/Os+fay7gfl6g10d8kUmmoCjA4/I1zd0QkKIgwPegDLmXNx5ijGKTBPc06cNvAQ8E5JpSRg0AXrORAowT83FaH2dMj86wYZDFJgnKjpW3BOZVG0fKP1oAkup/KjIGM4xx2rLZ8n1z61avmAzkYH1qtEgKkt16j0FAFuHMqLERujYdxnmuO8U+H0tJPtEAI7kCutgvFB8sjAXkEdqdeRw6jZujoWIGD70AeYwxf2hbGLb++TkEdTVGMmCfDdQea07qOTSNZJjyoDZHuKTWbMjy75ADHMNxI7GgCjdQMR5wHB6kVUxWzaM09m6pGJNo5Wsh12uw96AG0UUUAApKWkoAKa1OprdqAE9KKO9GKAH06kpaACilJzj2pKACr1qfJgd+56E9qpqMsAKuTkrAiYwKAKyKZHJJzzzUxXzJViQd6dbBRFI5XtxWp4asmub4zMvyJySRQB1+g2kMGlhZMglcj60+aSOJwN2fWrCNGFwoAP6VBLHFtLsBn1oAuJcq8SqH4HTFM+/Iqod3FUoYmUEg9T93FaVhEfNXGPfPegCzDpf2iVCgJOeuK9I8J6MLfbIVw2cjNZXhrT1lZTsJwOeOleiabZELyNp7cUhFliGkRB93GSa5Txppq3ETSxqDt712wt1ZRxyDWXrluJ7baEyn8QxQB4jcxfvjjjHFRt8gLZz0P0rR1qM2+oMqjaobgVSeMtC7BQcjjPamMabiWeFkV8jNUGsGdSWJwTgk1p6fP9myk0CMCOPU0w3Lo0gO0AklcjpQBmyaZuQ7T0H61kyo0U5VjjsK6Y6optzFMIw56lRxWDeuszAqASO9AFdUG7nrU9retBKQMkDsaiAyoB+960xgBKOTigC07vODkZz1yaY852gZ6cUiygNgcnFQgMZMkcZ7UAXIoQcMBktzmtKzjY/KVxmobGeARhJFzg5Bq/NqUSKPLAyO+KAMDxV4RlmsPtMC/vFGTXCw3TLby2dxyDwM9q9QOoz3KtG8p2kfd9a4DxRp32S+80LtVueBQBg2872dx8pxz+dSXkSzMHjGCeTipprEy2InT5sdcdqr28v7vaeq+tAFIjB5pKtXUPHmLz61WoASkpaOpoASkPNKaQ0AJRRSZoAkp1Np1ACUtFKevFAElum+YYqxdsPMC+nFJbJsjLHj0pv+tmJPGKAHNxGkSdW613+gaWLTRV5BeTkr6Vyfh/TG1XUwR9yM5NehQoEjxnAj/WgCjMoTKgYIpiEMwDH6+1XWjSbc2cHNPtNLaRt3qaAK5UJINgLKfvH0rTsRDGY1RVCKOMDFW20QxWxmRcgHkk1VgtgJd2PmJ5xQB6X4RT99vTBDDp7V3IGw4AySMCuJ8E2DtG8u512jgg8V2iQSFGPmnPrgUhEsJkUHcMAGo7qEXCnb9RSqs6j/AFqlsc5XihQ8kRzgNnqKAOA8Q+EpL+4MsBAOewpNN8CuIGadtxHtXeiHdhW6Zz9aJj5EbiI5455oA8U1/S20y8cDjaePeoEs1ubbcMbiOfat7xZOJr5gF5HFZNpaSR5bkoaAOa1CwaEZA4HX2rNVBg9Sa6jUM7D8vrwa5rlZCDwfSmMXavlj19aicZjKk8j0p64Y854pZIwudoGKAKrDuWxgcAVIJQHC+tDRkx9MntRbR5k+YDGfyoAkKSAqUHXtUximkQFwSQe1X4JEWRTtGMYwRVz7XCuAIxgigCpb6bcSKJEjOPep9b8LSalpbF1yxHykdjVhdWlSNYxwvOMVYtNVkmbynfa3VcHigDzHTbltIvZdNvYlKudp3dveueukEGoSKBwGOMV6B480U3Ef9oW6fOg+fb3rziVi7ZY80AXEkDkox4YcVSngaFiDyPWlDnr1Iq2CLiM/TmgDOo96fIhjfa1MoAMU1hTqa1ACUv4UlLQA6nqATzTKf2oAU43HHTPFLGu9wo9aaBVu2UJ+8agCcPGimOYlVIJyFycgHH61BFgW7n+I1HM2+Tg5pP4cetAHZ+C4THZTTIOW4zXVWlqZFIZsbvfrWZ4UtdmgxlRkvXWWGiXVwypHHhV5B9aAJbTwt5lqN2cnn61q2mgvCgLfSulsrL7HaRJKCTjn2q2sAVR8wyTxSEcveWqx2SxdZQOgqPS/D7XUi8bcdcCuwk0xZGQhRz1OO9adjapaIowpB5JFAE2k2KWNr5ceAxGNv4VdjOd0YJC+tLlXTcD0/WgxsE3dQR2oAbJJmNgwxgYHNQB32KI89MU8Qs6sc/nThEzLtY4yaAGTlmjCoWB4wynmorgO0ZZhtBAzzV3KsihOMd6y9Uc7WXJAI4waAPOvEFuza4SPuHtWtJp3leHVlIAyMj2qaLSvtl/vl3OAflyK6mfTB/Y0lu6bsDK+1AHh63a3t7LAR8wycZrCukaG4IJ4B5NdHe2Udt4hfapRgxBPrWRrkGyZgmcHkE0xlK3ALEBcmllTGc5+lS6eoeYZ4JFTX8flbSDmgCp0XA7c1ArATFe45NS8K+DzmoQP3uAee9AGhE29SuSMCp4woUBz82agg2hQOSStXYoVUbpR97p7UAQ3BCAbSd461DFJtlRsnr261PcMPNxgHjBNJZKoZg55oA2Uh+327x8mN0xjGa8Z13TW03WJrZhwrZH0r3TQL+0sbe4jdsyDlM9RXAePILfUGN5CmxkbD/Q0AecLw1S27MrlR3q5eWCpZJcRkEZwR3qi3ZloAs3UG6ESZ+YdaoVpW7CQbW6NVCVPLmZT2NAEdIw57fhSmkbtQAlGKSnUAKBUg45qOpMetACjDduc1YL4iIH5U22QFixIAFS3kIiKsrq6sM5HagCsOamt4TPcRxrzuYCokUucDrW54Vh83Wo42XPzelAHpeiRR2kVtEoGFA465rvtPvIVSONQo3HkgdK4myjRJDtyNp4NXYrtxIULn5ehApCPQWvIywXcGUHGc1etAsr4wDt5FcFaTSzuckhc54/irvvD0DG381zg9higC+i5fAGB71ZiiQxv0OMc04Bf4kzk81bt4FSMgDg+1ADYYwsZ549DUxKqQP0pdoxwP0pcD0/SgCJE3SFiMDPy4qC7kjj3MeoPNSSXKRbsdR/Disu/u5gA2xSG4AoAtWl157cR8noaLm0LkMVznrWZbXrbwq4+Y4wO1blvvliVn+mKAIbONIs7kUEd8VPdMpiII49vSnJHtYgjPHpRMAIzkD16UAeP+K7PytYLIv8ArG4xXN69blo43MZ4GDiu78Y7XvQVCqQ3AFclrSE2CsDtxwRQBg6VD5l4gxx7CtvXtJVbWF1PUcjFZekNnUEJOD6Ct/xBdj7KmSORyB2pjORltV8vK5IHU1RkUo4x1FaLT7gQOg4qnOnzA5oAWMjevJ59Km8x8BdzECoYyDgd+1X4Y02hh8zHqDQBXWCSWUcEr61oJZhZY5M/L29zU/2i1jiVUX5gOTVG91EGErEcAfpQAzUZlh1BfL6k8kVHqNsk0U8e3IkTcDVZU88GQ5yO9ay2zz2wm5KqMEGgDzu0tRdW9xCxx5eTisBl2symug1D/iXeInC5VJDk1jahEYL1s9GORj0NAEVu5Xn+6ak1JMukoXAcVCnySY9avTAzaWRnPlnOKAMqmkUuKDyaAG/z9aKCKMGgB4p9MqTjAwOe9AFqMqtm394moHbgD2qxKgS1T1Iqu4+agDQ00JvLMPuLW/4LTfr7yp0UE4rG0y232kshfaP/AK1dP8M7F7vVLhUAOF/OgDt7aT5WIAIPU0tvk3EnlqdversVglpGwuPlVjjk1NbGwtkcvMDzwuetIRpeHrPMzsU4zgZNd7YlorXpgqcV55H4osrO0Ig+aTJ24HSo7fx9dmPaYgxJ6nvQB6rDKXgJGGOefcVdt2PlfMMVynhvWF1OFFlQo/fB4NdbGoHI6Y6UAOVty5AP40jEhP8Aa/8ArUpYKM4qA3sRkaPIyOlAGZds5fgbWB5PrWLqt9JaXUaSYbeCBn1rbvLyIqULKCDya5fX5EuvJdT9xsBiOtAFmG2mjuo5QpJYdjwK6vSt4jYSDHQisPTnW4jjYOAR1zXR2yvhWbbgjtQBMzKpwTgmqryhkbEgPByMdKLrIuEOcDFRmIecxYcHnigDz7xXbJLdBn3AA8Ed65vW41+yoUyRjOMcV3Pim3M1sxRQCG4rjLuNm0lRzkE7qAOZ08f6cgUYJNX/ABGgSNQT19KrWcZ+3pgdGzmrPioZgQtxtGRjvTGcyWOwhWx70gIbq3NQx/MORmpMY5/u0ADECTIzkelKtwV6sQfemM2WGeueajPMwJ6Y70ASyTvJjZnJqaC283mRv+A+tRIF5Pf0qb7UEUBOmKALsDQQyFJgcA9B3rUh1KCTfBt2Rt0GOTXLyyHfnPPWpYZmWVWXJbPWgDD8eWqpeR3CDA6VzF9++t4pRkkDBrufEkP2zTZd4BZRuHNcRagvbSRnn1FAFHPAPcVracvn74sZDrWQRs3KRWv4flIu1RuQ3FAGNIu2Rh6EimEdKu6pbm31KaP0btVMgUAMp2TRx2pKAH1IOSBnvUfSpY+XX60AXL0ACEA5G2qbZyM1ev8A/XRrjGFGao4y9AGzbv5ejvtP3uorqPhlOYdRkkXOQOxrk5QV0gbfulu1d18OI4LaxaeZNxduTQB11/frOAPKZtzcE1Qe2mC7o4++TmuvttKgvIyyR7Y9uVPXBq7HobKgjK7gR97b2pCOFWzuZQrRxYJ9BWvp/hm+nwjR/jiu007Sds2zy/kyAMjpXXrp0SwqI12sPSgDnvDmgnTLcF2+Y9c9q6lJQI1AB54qP7Lyg7jqasquAAO3c0AVby8EKNkcjmublvv+JiXUYz2zW9qIV4mLjpwCK4i8jkW7BZWBDcc9aAN6azW5ZZSOG6DPSs+W1HmNbOc/NwK0bO4IjVUAJI7ngU29j3P5zqA46EdqAH2FmqKgOUOf0rpLbIhVW6jiuTtdRETlBJuYHjNdDZXimFXc8Hjj1oAsXK52sWxjtjrSx7HVgh702W5RozsYE470yBuWYAZI5xQBh+I/lt5dqgkdMV53LI0dpKG69cGvR/EkqfZ2wccfnXmmuXAjtCzDLHuKAMGGVzqKBcD1qfxHHvsl35z2HrWZaOz3qkHqR1rY19d9iu1skDk0AcgihSVx0HrTw2wc4NNVQrMTk5FKQduAOtMYD5m4AzUcijIxz6mp1UjqOetMdSG54FAEeSDwM8UxllJ+QdBVlIs+uatw2bZ+6dpHNAGe0TNBxy2OTSxwysymMnj9a3Ehs4ISbgndnoKF1GxhXasQPsO9AFR7ETWb+cuARySa85QR2uryxBiI9xHPXFelS6wtzG8UcW1a898RWv2bUfMUY3c0AY92my6bHK54NXtFTytRhMnALcVUuV3Rh8Z96La4ZJomzjDD8KANXxbGo1ASIu3cOR61zzH/AOtXU+K4d0UFxj/WKMMD1rlm60ANzRijpS5NADjU9sAbiPPTcKgbrU9tzcR/UUAaerujXzbBtG0CsoH5/wAa2NejVb4FO6DP5VkIP3gzzzQBfupP9EhjXj1969M8L2i2+i2hbq4BI9a8xnGZ4UAweK9T0+6WOytIwoJCAYoA7nQtUWC6aCQ4RsYB7V6RZKlxGuNuMdq8TS9VpBkAtkfd6gVuaZ4mv9OuN1q4njH8J60hHsBgjSQfIOfanh134zyD0ry+7+JF08oX7IIyB61Xt/HV1NfLxtQnnjpQB60CPMIHXrTsVi6FqJvbfectz1Ira/z0oAguYPNTGBiuU1e3UTYkJOOwFdiazNRs1eN2dPxUc0Achb3DJ/qDwDgZ71ObwvG7YOferlnpg8whk2qMkZFTJpscjtMoGF4AxQBR020+0SbmTbx0IrRlQ2tuSh4xyKsWcDby8LAgdsVW1cPLCybf97FAFfTb1pCQeT71u2sZWMsp5IOMmuPtJhCvmOy4U44qyfEUasUj5O7rmgCn4wvXRlTPy5rifEzlrGNgu0EdR3rqfEU6TQtMpXDcVyeoOk+m7ZCSqdPWgDm4pdssbquMEZrcvJ99kCSMY5471gv/ALJ+7VyWZpLTDZ6cYpjMw8SsMcHmpQhC8dcd6jPcjPPepM7oxnjFAAQCpOME1HKBH94g/WpOGHPboailTcoDDORQBatJIScH+LvjpU02oRxgpbk9O4qhFmJAcD0zTnAHLc57igBitLcku2cDrxyad9glZgyxvkDIG2r9ndRxxhl2Bh1BGatXviGV4gsGxAMBgFFAFO20m4RfNaL75wq1jeN9HkhsklkRvMXG4Y5FbUuoztscSEBSCMGp9VuX1K2Xz/nLLw1AHkQkLwNGOR1qGFdxwelWpImh1GWIjB3EVW2mK4KHrmgDqb/S5o/CCTO25Acp7CuPfrxXpFtBLd/DeXLgrGScY6V5vJ96gBvWj8aMZooAcTVqxAa9iVuhYCqtW7H/AI/IgP7woA3vFFnHBqMQjb5TGD1rnkyLhcetbPiRnN+GbptAArGjGZhmgC7HE0+rRoBk5FehK7RSxIo+6orkfCNtHda/+9ONvTNdzJaIl42yVcdMUAVjebZjzgngkVZtbl1mHlbyT3B6VA1rgnKhs8DHai1la3lV0Y8HoaAN6Gx1K/uMi3dlz1xXSaR4RvpplkmXylU5wa1PCniqG6tYoZolDgYzXawSQyKWLH8KQhLGH7GscaDDDqB3rRScmTDDb7Gs+VmVRIpABPBWrNnIJQrMzEjrmgC2TIGY8EY4FIRv27uD3xTiN64zj8adx1oAgS3CsxIzk0w2KLC6RAJuOeKt0tAFC2shb25Xdjcck+lYGr3iW4ZWcdPzrqZt3lnHNeSeK7uV76SNXOR1GelAEd7qo+zSIvAZu1ZkF6q3KguRnkisu6lcW7Es3bPNRxyj7UnBO5gCc9KANjWdSDRqoK/KSeDWHLfK0OwjIxmk1tvLvCowB2FZa3CmQgnt0pjEbG5ucelWIyWiOTyBxVOQ/Ng8Gnws24gHP1oAeVBzzj6U5QDx364poXA445p6DJPUHufSgBCqlSAc+oquVYoQRgCrAXaxJyc9eabtwST0PAGaAIFwIsHr1xTvMO0bBkd80hVT1wKtweSvLgHHbPWgCk0TnJx+AoS2cb8nBYZ21oSXUMnSPaPaofOy7EJggcUARm032bHcc9MVLCsv9mpwf3ZwKdb3jeSw2ggeta1lJDNpeGTaxb7woA8s8SIINe3r/EAT9azb35L7K/xAEVt+MlUa9tQ8KBzWPqkZWSJj1KCgD0D4ezLqOmajo1wwBaMtGTXm1/Aba9mi7o5B/A123ga1le6N1BuBRcMVPauQ19t2uXbc8ynr9aAM4jB5ozQaTmgB1XtPIW8ib0cVRqxA2yZG9CKAO88eaUsNrp9yibfMjyfeuHgH+k+ozXd+Mr3z/DmnZAYbB83pXD2YUzEMM5oA3fB6k6s7AZA6gV1iOzXzowIGcisb4eG0/tS4S6DHI4x1rplgU358tGKMcZoAqRu8czENnHb1p8e24QscDae1SPE0Ujh0PtVPYULGPnHOBQBo2Us9pOGiLEA54r1HwZ4pjnPk3fJPAzXkcF0yt6+o9K0tNv3tpQQ2Bng+lAH0U0UUsOUAIxxiq1gQd6MOQe1c94L8TR39oLWZ90qDIOOtdBE6rOQPlDc8UhF0MFlI9RUtQQSLIWIwT9KmHQ8UALS0n+elH+elADJW2xMSe1eJeKWLavcMG5HTB617HqsixafIzHAArw/VphLcys/8ROKAMeRjJbfe4HJqIMvmoefvgmnjBVk25+X0qOVhHsGATkHgUxljXx+9SToD61ixLucHHFb+rhpreFnBBx0xWNbqwkAUck8CgB0sLAnIO7GaS1iJk+91PetBleRAxB3egFV5ontyGHVvUUAE0XkT/OTgjOaYrDznzmkuJmkcb80KMMSTnj0oAa21ZsE5zTHYcAc018FlXOTmhlCbcDDUALkhWygI/WmBTuXI68j2prOfMPOB3xUw3nYSBt6CgCJIHkLDnitG10eeWMvhsH2o0+UPKwK8McEAVvLqk2n2UkYZQH424yRQBlQaYqqyn5SetaVpp6JZgI2dpzkVjxzXV5PshO5s9h2rVhC2lri6uFCjj5T3oA8v8VqG8Ruq/NyOlZuuJsuIscDaKvag63fiZ/KcEGTANV/EQzqQXjgDpQB0/glpINNuZlfaoU5xXBai/mX0smc7nJ/WvSfDdv5PgS+uXjzGVI3Dsa8yuRiQe/IoAg+lJn2FFJQA+pFPIIqOn/SgD0a7gTUvh/HOArNEOcdq4W2jJvEAOAa6vw1fyS+Gr3Td6hWXODXLQAi6QejYoA6LwY2PEjpnAIIx612IkeC+OM7d3QHpXB6POLPxVGxOAzYNd7MMXTF/ut05oAmF3G8jrIVZSOpqNIYGDmNyPas6VM3DFOg469KSGV0+UEjnigCw1qNrNFkgdfamxgpn2pYrpyxBHJ601pN27saAOk8M6w+naijocAYB/OvVYNTjlMTh1UNXhFtKVdWBxjtXU2Wu7YwsjEkD5eelID2OxvLcyHafbPrWpvyPl6V5LpviDyWEivuycHmumtvEsW5Y5JSobpzQI7VWDDijcN/UfSsa31OGOFsEnPIOaemoq5EiYBPUmgCr4uuVh0twzY46eteL3Mv7xyeevWvQPGuqhk8st8zDtXnTEyzsBwD/ACoAqg7SG3dsY9abOMwxuD0PNTzIqyhRjaveo5lIhJO0DcfxpjL+qFP7OgkV9xwOnasYfLIpA4znNbT28T6SjPKvT8qdHFYLagO3Jxz6UAUgMOu1ypIzTp4vMtj5mdwHB9avS20PkpKs0bKDjHQ1TvL2PyljVRuxgc9KAMcvhiuOR39KlWQgYYbsiomAEvOSGGSfenMpEY25+tAEZcNJlRjn8qkndfL4APvULAhxtPzHrUggMgxjr3oAigXLAMM56VsvCv2UAoAwH50WWkEgNI+0A8GtSe2EtszRNynVT1oA56zZhckR8c88Vq3FqGty49OprPRJYrgsy457UtxPPsEW4/N1oAfYMsTMCdoJ5I71salc2Muj7WgC7P4u5rBSKQXUUbAc0zxPcfZrNwWyduAKAOR0OzF94q/dR/IXJAPYVU8TLHF4kmjXOE4HFb3g0J9tnvGziNMkntXLajcf2hr0zqCweXj86AO2t9QGm+AbmAfMs68ZHSvM5zlhk9q9P8WRJp3gm1iaPZLMB1Hb2ry6cgycdKAI+tJil78UfnQAtP8ApTQdrZ604UAdR4IVJdWNvKwAlQjJ7Vn3tobHVrm3Y/6qU4OeozS+G5/s+t2zNwpfBNaXjXTnsPErbjlZ4xIDQBlXEgi1SGZenBzXqELpfaXHKmNyqGz7V5i8P2nTQ0eS8R5+ldj4K1JrrT/swUM8fB9xQBqwWvmyOXJx1HvUU8H2ck7T+JrXgjILqnQDOPT2qvcQNcrjBJ9PSgDJDfOSo5x0pAGLcflWgLACAM3LdQKjaAMrBDg+1AEMbRqmSDup6yqy8njHUGlitN/XgZpJrIhcpkHPNAF22vCqjY2CvStD7e4VfmGQeea53LQRhSOfXNSwzMVznjuKAOytvEVxFtTzCVxW5D4lX7OcnPHrXnLysApywFEd4UU4LEUAb+vaobqcE9OmBWQ7ANlThSM1WMhc5ckjOcelPldY4oz35yKAK0kjtNgev5VbdZBbsoXefes4O5uC/Y9K01cmNxIMArxzQA2JmbT2DZzyFHpUIimeAFmwPT1rZ0BLW4V1uGKsGHTmtCJtJFvIkivuVjhvwoA5Cae4VQrLuUEfhUbzFvQ4/StS/mtmgJiTGR1z1rJRdsZPr0ANACrw6/Nzjv2q0E+TOd2eoqNQBHubDc8UscgRnGcgj1oAhCjzOnIPFbtrpwmjV48MuKy5WiMI2D58frSadqtzaEbOme/egDoZQ1vhWHC9xWc175Um857963bbV7PULVI9RhCEj/XJ2qC/8LsUElvNHcR43AqefypCKcF/ZXLlbhcMV4ZfWthNGtL6xSW1cGeP7ynvXGXdrLYXAwcAntWppt9JF80bknvk9aYye/0+W3vf3o2BOa898X6mLi/MERJCnk+tep+J/GGmt4RMd9D5V5jCsvRq8Ts421PVQ0jYUtkk+lAGyLj+yvCchDBZJ+PrWD4ei8/WId3Tfk1b8UXcU1zFa27fJEMH61reEhY2FnPd3kfzop2FhwaAHfEfVzdXVtZIwMdvGMAHpXAvyav6pem+vppiPvsSPas9qAEooo/GgB1PFMp4oAs27t5ylThlII+td54vsP7U8KWGuQM0kkShJx1xXnqnDAjjBr0bwhP/AGz4Zv8ATGlImWMmNccNxQByWiMGuvKdtokGDk1q+HJ4tA8YRpdHdAXw3OMiuWcSWl0ysCrxsQR6YrVu5BqFmlynFxH97HcetAHs2s6hBA4ksIY1jYblIHWs77ZJIwYIihhyVrlfDGujVNPFhcv+8jGQT3Faqx3EWdh4XnBoAsyTBbraBkEdamtkR5T5hUADIrKeV3xu+U5wBTm88xgjt6UAabNEknyjBY9u1QOztuVjyvQAdaowyOZsnOP/AK9XHdGJKk89D6UAUZsmTJGQabE2wlTxkflVoISQG47hscGq86hDlevrQBJGd6nr14pW4ibB+bNEDKGBP3cc02WRWdunPQCgCxbOrDa/Ge9Q3hD/ACA5I7+lRkELkGmKXk3YHfmgCWKNTtAOT0q40RKL1xjFVBDPGBJEAMdBUi3M+0mVMc4JoAvaOywyTBT85XjmoZpXUyYY9cn3qGB9moLt/i4+taCac018d3CnBoAzltXkj8wgheQMGqWP3u0rjjsa6PUPLtI2VDznkCudLETHofwoAfIzbNo+XjpTEG6TB7Clcbm6jgYNPjjGQTjNAE8Vq0nI4HerltovnthASF5rS02zDw7yM+i4qydlsrYyp60AZC6XPESDnaOlarTy2dkjh9rfXrUR1QbGGMg9Sazb3URLL5Sfd6UhFC4uZb29Lu3zZ/CtiK1hi09pHbaFGSTxmqEFsABIw7ZrnvE/igx27WlueSMNTGc74h1J9S1Ro0YmNW2qM1ai8vSdKZmw0kg2j2rL06ESTefN93rUeo3r3L+UDkA8UAXvDGlNrOtAFPMQNlgehrqPH4tNM02GztY/Kk/jT0pfBWjXNtCl0MxJ95yeOK5/4g6tHqXiEm3k3xouD9aAOTPXNMan5z6U09RQA3PrRRjFFAC0/OBTad9aAFBxW54U1gaPrcM8ufK3BZAO655rCpwOKAPUPi7pfhxGsNS8NGPdcoTMsOdvsTn+Lr+Qrzuyu2tpODweCDXYeENUsL7T5tM1aESsVxCccisTxN4TvvD84aeB0gk5jYjqKAKIkbTdRS5tjhc5H+Fel6Nr1rqVqrbVLYw3qK8ysytwPIlIG4YBPapIJ7rQb4Mp/DswoA9KvYUEoMY+U84qCCYiZlYk8YqDStZt9WtQu7bL3GaneErLwvzDqfagCYwq5/uLVUO6zY6Acc1qWp3rsfbx3NUJ4QJ8DJ5xQA8XBBIbByOKrzEPGxPNKwGMY+7TRH5nQYAHSgBgf9yAeBTvLdcuQDzwaaq4lwfXmtSOJFi3Ngg9PagDMMgYgEEZ4NaNvDGLcMMfdzzVOeMeY2OxzSQ3Dxthuh4waALkshGFBxgZ6VLBGXgYuFIz1qmzhxgknjiljnbaQOgHrQBJaIF1WIMp5b8hXV6zeWloYlsl3Zj5JHeuUSbZdxy7COnGam1q9BkQEHJPFAFK5uJLm79cmj7MwlOcEjrmr2j6ebq46HOKt6qsVizRquZWHJPagDFaNVPI71EsrPJgAdcVbiVp5DxxjJqK5tfIkDDjvQB2WjkDTCeWIHHHSsW/uJWmKL0Nafh+YpGmRv38AZqnrkOy8AQ5bPJHakIz47eS5HkpkN19c1NHpbxkvIAoB/CrGnTLbBZDgEZ3NntXM+LfF2d9tYnYuME5pjJPEuvwWdr5Ucm6TaR8tedIkl9cFnJOTUhjmvpcuWOfWrUqiwiWMY8zqcdqAIbuXyIvKiPPSrfhLTG1DXIPMTcgYZyM1HpmmrqN0Hu5fKi3ctXrfhDRrbRma9O2WzhQ/vGGM8UAc3481t9CkfTdOkQxyR7WZPpXlTMWbcTknrmug8YajFqPiK6mt/8AVbiFrnc0AFIR6076c0hP50AN7UcUvSjFABTqT60tAB19qXFJ0oHNAFmzuZLO5SaFsMhyDXunh/VNJ+IXh0WWoSbL+FdoL8kj0ArwQVp6FrVzoeqQ3lnIUeNs5oA0/FfhO98L6kI7pGSKQkxMR1FVNJNncXaxaoWMTDAbPK17Xea5a+P/AA/az3UEU72ozKoGWf2AryjxlDbjUEfTtKk06JRjZIMEmgDN1Own0DUg1vIxiJ3RyDuK6HRfFUc6eVekKcfez1rIt/EH2vS/sGpoJFUfI2ORWTLZH5pIDxngUAen2ckUk3yMHU8jBqaUKzMGUhgeK8x0/W7vTpgdzEL0BrtNO8W293GvmqFk75oAuqjtNnoAe9X4QiKwOMkc8UJcWV0A0UyqR1B71IFV9zIeMYBFAGU0INx1yoNaMnyQgL2HSq+zYy5U9etW7r5rdQmQSMdKAMptzKcNwagbd5mMYHQZq1Gm24VT1B6VbubdZDvVNu3AA9aAM+INuC46frRHG7S/L3PI9auBCmccnoBSbBbo0jnAHQ0ARTSDau4YYHqakudsvls6/MMYJ71zGoa2Zo3KMFVW4IP3q0tK1201Z47OQmCVQNpP8RoA7jRZ4rGRJZfcZrM8QuJr7zYud3QVft1s7q3Fu8oSRR8pzw5qC6sCskXmZIXuOlIRR0+1drhVAbj5jxVnWdqFUj++epIrqPDv9k2btJqkypgZGTwRXNeMfEHh6C9aewkL+insaBk+iWrFooyfLJ6kntV/xNLpemW4aSZS23nLcmvL7n4hXUcjfYxtboGPaudutQ1LWbjNxLJKzHjJoA6DW/F3mAw2A2qTy3eudt7eW9ud0pPJ71p2Xhq4DqbvCKwz1pt/Pbafuhs23sOrUwHm6t9OQ5UM+MYBrHQy6heDYpbnpUYR724G5sBj3r0fwJ4Z+3yolpFsOP3hk/i+lAD/AAdo5vNXgiu7D9wgwcD5WFP+IviePTLdtC0mUG3zkgHIX6V2XiTxNp/g3w2+nWexrhgVJx8y+or581C8e8unmkYksc80AVnkLEk96joNAoAOvAoIxTh1pD9KAEx04o/E0vWjPtQA2nelMp4oAKUCk5FHagB2aFORTSaUHigDe8M+J7zw1qSXVo2dpyUPQ17XpvjPwn8SY4rHxDZx22ofdjfoM1871JHK8TqyMVYHIINAHc+PPh9d+GNWn+yjzrMHKSKc5FcrZ3Sq4Wf7mea9A8HfEW2msRofiqLz7Z8hZz95M+9ZXijwBLa5v9IkFxYzMTGQcsB70AYzWcF8M25AOeAazrrTbuzJYIxUfxKOKhinnsZ/mypU966fT/FccXySxI6MMNuFAHN22q3Vsww5x6V0en+MfLKCQFcdT2q9Lp2j622238uGUjOVwOawrrwjdQXDRrgqP4s0Ad5B4q026QNMsbd8KcVPca3pt5Di2Yxuo5UkV5dPod5bNxyOxBqu8N5E/G/H1oA9IS7swx8yZfM9z0rUjaA2autwhBOcA146RdbsNuyfWng3uDsL4HoaAPTZtRsreV2aRckcfN0rmdc8Q/aS1vbH930LZrkmNwT827J9aY0cw6g4oAfNI5YgHgelJbXL290soJDKc1Ed8Zw3FNyWNAGy/iK7Z93mso9jTk8UanGNoupGXHRjWQkBLru6Gt6HTdP2ozSfUZoApz65qV2NrTylfQGoBbXc5+ZXx6muimutNs4wttGpYDk+tZ0mtOsRjXGzOcYoAbBpkUKB7w7R2HrUh1OO0yLVdvbms6Wea7k+UE+lXNM8Oalq84jtrd5CTjOOlAEUutXUilfNY54Az0qTTdGu9XlAt1ZiT1Ir0fRPgtfSeVNqDC3i6sWrWv8AVfDXw/haCz23lx3J65oAyfDHw6tIAl34ib7PEvJ8w43fSpfEfj3RtDkaDw1CVkUYEit+tef+JPG2p6/MfNmZYc/LGDwK5hnLck0Aaeta7ea3eG4vZWkc9zWWTmkpTggADkdT60AJSA0UdKAFzxS5yabSGgB2cdKM+1NzRQAtOptO9KADNJS0UAITxSr90UhHp+dKOKAHUZ9aTNLQAoOK6zwp44u9AuESf/SbPOHifnj2rkhS0Aemtp+h+LrmSWyIjdvmEecEH0rEufAd3FbXFwu7bD/Dt6/SuUtbuazmWW3kZHHQqa9D8NfFm70+J7XUoUuYZE2NuHIFAHDL9ps2DosiD1xjNW3167ZR5kj5HTmvRJ9Q8OanppMb7Rj5Ye5JqndeCbK8jRdOi3TOgJJbgUAcCdYlb/WMSD71oW2qWjcTxZ44YGtO4+GusIWP2Zti/ebacL71hXnhu7s3dSGIU9QOtAGquo2ojO+FSB096rx6hYQks6fMRzjtWObG82NtikYD0FVlsrmTO1Tx1yaANHU7+CaPMKAenFZX2tyuPSmPFIvysrA/SmFT2FACu5frTAMc1IkTyOFRSSewq5a6Ne3kwjhtpGY/7JoAp+aeO1P89yODW9a+CNWuZNnkbD/t8Cun0z4V3r3cS3KFlYZHl9D+NAHnYSaRhhWJPTjrXQaR4P1LVXAigdV7swr2zRPCHh/SGax8USRw3IAktpicDb3GfXitDWPEvhfw9YONN2SSAZXn9aAOQ8MfCshgLlgJIyGOcdK7OLUfD/geOWe5aKZ8YRVxmvJ9f+Kl3csx093gcjBZWxXA6hrV7qLk3dw8nPc0AeieLPjFqOpPPbab/o9o/CqO1eZXN3LcyGSaRnY9STUBYmm5oAUnNJR9aSgApaPSkoAKDR2pKAFpDS0hoASk5oo4oAfTsU2nZoAUik7CgNwQTx2oyKAEpfrSZ5pcjPWgAAzS/WkBFLkUAKKWm7hRuFADqXNNBHrQWA70ASpM8eNrEY561r2PirVLBw0Ny+V6bjmsPIoz70Aen2Pxb1GSya1vpCQy7WYDqKZZ+LNKu5gt+ruG444rzMt70nmY5BoA900260UuCDCsYHCM3LfWifSPDd1ODdbUh/hERwS3qa8QW+lTG2VhjpzUh1S6IGZ3P/AjQB7y3g3wzcQRQPfRsWB+bABHpWcvgDwrbXkAlvVbaSJM9Aexrxoazergi6kGOmGNOOuXrE5upDnr8xoA9ruPB3he3uEna+ijIGS0Y6kVXu/HGhaZDJaxW8DhcYlT7zEV4w+rXUow1xIw9Cxqq0xbqxNAHtDfGO0eKNX0+LcnAKr1qlefGKZYitjEIQPuhe3415Fvz0o3+9AHV63461LW3U3T529Oelc/Pfz3DZlkZvTJqnuHrRuBoAeWppJNJketG7PU0ALQeetICKNw9aACnKFYnc2AAT9fSmZFGaAFpc03IpcigBc8Unb3pMijIzxQAtIaC2TyaQnNAABngDJNJmilwPWgB1GaKKACg0UUAFFFFACHg0tFFACscgdOB6UZ/nRRQAdaQ0UUAHejPT60UUABNJRRQAnekzRRQAZoPFFFABRRRQAlLRRQAUdqKKACjtRRQAUUUUAFLRRQAlHaiigAooooAPSiiigAooooA//Z;" vertex="1" parent="1">
          <mxGeometry x="212.65" y="210" width="92.35" height="100" as="geometry" />
        </mxCell>
        <mxCell id="3ASoaDRJVkE-flD1x3Yw-5" value="&lt;font style=&quot;font-size: 18px&quot;&gt;Resizing&lt;/font&gt;" style="rounded=1;whiteSpace=wrap;html=1;fillColor=none;" vertex="1" parent="1">
          <mxGeometry x="500" y="120" width="120" height="50" as="geometry" />
        </mxCell>
        <mxCell id="3ASoaDRJVkE-flD1x3Yw-7" value="&lt;font style=&quot;font-size: 18px&quot;&gt;Gray Scaled&lt;/font&gt;" style="rounded=1;whiteSpace=wrap;html=1;fillColor=none;" vertex="1" parent="1">
          <mxGeometry x="500" y="200" width="120" height="50" as="geometry" />
        </mxCell>
        <mxCell id="3ASoaDRJVkE-flD1x3Yw-8" value="&lt;font style=&quot;font-size: 18px&quot;&gt;Filtering&lt;/font&gt;" style="rounded=1;whiteSpace=wrap;html=1;fillColor=none;" vertex="1" parent="1">
          <mxGeometry x="500" y="280" width="120" height="50" as="geometry" />
        </mxCell>
        <mxCell id="3ASoaDRJVkE-flD1x3Yw-9" value="&lt;font style=&quot;font-size: 18px&quot;&gt;Contouring&lt;/font&gt;" style="rounded=1;whiteSpace=wrap;html=1;fillColor=none;" vertex="1" parent="1">
          <mxGeometry x="500" y="360" width="120" height="50" as="geometry" />
        </mxCell>
        <mxCell id="3ASoaDRJVkE-flD1x3Yw-10" value="" style="shape=image;verticalLabelPosition=bottom;labelBackgroundColor=#ffffff;verticalAlign=top;aspect=fixed;imageAspect=0;image=data:image/png,iVBORw0KGgoAAAANSUhEUgAAAK0AAADVCAAAAAAAtS8zAAAAB3RJTUUH5QgPDgAyIAcHjAAAIABJREFUeJzsvcuvZVuW3vWNMeaca62993lExI178z4yKzMrK8t22abKyAjZQgiQLTo0aBgkGjSQgAY0EC3+CjrIHZCMJRCyhEQLCQlkIWMLBIIq29TDGOPKct68j3idOI+911pzzjE+GvvETYPjRJy4N6tadzS39jnzp7HmGnO85tjAt/KtfCvfyrfyrXwr38q38q18K9/Kt/Kt3FfkF/evNnIgNKmQp04rFp5ww3RdT2/iF7PEL4z2QWtO1ykxoJPvxqt9GW/oenri16l3ST/75ov8Ymg/Wg5VxqlYnnYbWdfDsDuXn/wMy4NTs6lwgz7z4X/7jdf5BdC+n9Ovbsd+8M3uBlqKtHqTTn71k9/7G0/7Bw/Frej24fTs8/HX/6l/9RsuZd/w78+m083pySef/PiXv3O22067AY2bs/Pxkz/z40cPP+yn1onlAim1/eHw7C+c/f1vtFr6Rn+9zZuTs5NNvlxfPpgwXz0EYHnaPN/nfJV/NP60Xu0lrdd2lUrSz38yfP4bj54++/ob+BvRnp9vHz7YpogvVoqbbba9jwa/vLx4fjPx0//xKpYZU9p5v6El4R55+s50/jtfd8FvshO+/+DHjx9uU9Razx5Nvdpmo6Lo65yM24/q3/rvRzEbTs/P2jRprWl7dnY+mciDuX69Fb+Bbv/Eg5P3vR0Cmj7OMjcMuEK0yrS9On36v9v8ezOsTGU3xJLyGXvtJ7sxDjI8ap/e/NHSfvLLn5Sy38/ldId+WSwsW13VbEPGdj+8N//Dm/eu7OxUveFDpyrrmqzJcL2cfmf7+Wd/lLS/8eiT8bD3MoyTrou2hs2J1hqdFBUOv/bLP3vesTvd2dLKCDpUoJOGidUXj39j+d/+jz8y2u999PEH2z0tpZK1QZJGhGTAm4fAhpuTs9+93Np2UGqZtjNpOTE2Pch+WN57OD17vn/6zut+nbfsQ/zKw/e2y5WcTdOg4ZI55t4IKSnnnE3Ga7U9pwTTstlNOUTSOA6leO83L65qu3lxbZmHd1353XV7enr+3Y9jYWsTzYwMUNXpvcdoSb2ubR1enPzSg9+5KWUYJ42WlHksEk4uzy9l82JvtjspcZWWd1r73XX78faTPyVLkzTZ3oiU1Luyx7hLfUhlyIg4lDke1Z+8PD05HXxd+2jDZlOEsXi7qtOuntiMh4/Or0D/Q6X9/uMPP358GcOQNmWxVpkMMQzJhsJqJHvvrLJ4+/wLeVQ0eiemPG6m5D32oVFOhzpoDy0bFKD9IdJ+Nz344cPDVTkrrWwkrfuuxWw42Vr33s17az2Injfted2ctrnZkGRM41TQqlxzSNMYl5eHrDezPJq0tnfQ7jvu2+9/+Md/tLn25awkmZd8PabDizg/aZbFb9w4TJhXmGx16NTTPKr3yMm25ydyqOlL9VVLPo8KOVzR1web6fT//sOi/ZXpB//sLz27OJgwJOeibeVgrQ8gAVGxHHRJtjkb93u0l+MmJapuRu1wzSODFCHcy8ZYhqSny0f3PyjeifZ9Hzb9yU9/dpnFSSvT9LzpoEsfAUAlWRkaXSU8b9aUmvZGFU2jRaVr2ZHeewsSaXPiMA7vl/yHQ/tAhg9Pf3a4XnS0zkjetyknqx0iIESzphxCwJ8pXr64iceyzpG3MltPSsiI6FzXhkGn0ciY5Xy7y//zHwLtw5w+fLxtB88po7t39py24qsMIgDUsig0ZZFycXHSLp7wRIVBw75MUxYys7PXucpuNIhJ79K5++G9ae9vE87H7fZPpOaADWA4QRfJqL1MG0WvkYtlDYfosJRH5eLJ5YBhLIa+UlQgktjXZV6bbXcmydQsDtc8/+fvi3tv3Z5JOn+wbQcMk3ImLKlgv0nEMCQREKpJvEpBdWxYz380f6FpmNBaTBorhpwMNZxigpBSuBjmmfXm3sHhfXX7sXB878MXhkNs8FIolrNpLdJiKDIqeotchCFJw2vMeO9c9ORkMm/OR4khVobEuqydiiSYdpjVb3wnFy/+7G//Qml/OeSHf/Kxee/ldOtrhZqZWoomJad0UpIC4KmQXvfXlRu5aoef7npjLoasw2Y7FZvXtYXmIYtk8y6CaVdU6N/5yS+SdsJ3//jj9eWUzIbcF2rOSUCnaCqljKoMyXkUQTgtsnhv++UslXEachpSSpZELOraYdkJNSWvtUjdL97643uZsfvR/sA++WMPWrOcVHOOKpaSqWqopTKOo4kAlnMSieo6xEBHW/MoVsYhpZJSMhUUtu6acidFFTyYRV3W2lA+/PQeHPd7y/KDH7/3/Hr38FpE1HS7gl2GIS2QlMtgNYSmkKbstedkErZZqwXFA4oiogoGdXBtQaOTBLZ+IEpzMJX7cNyP9vT90/U6cHBV1ZzyTWtddZwKKJaTLQRUGE2jNVdfsI5DmtccAKGiIgICKwZNh0NVE0tKTkttkM24tvs9ZL3Pl36sJ2Vh4TXUVGzYbDdDEpK3DxgmhCii1xpmrG3tvadch2wCiEZEkGQPG4pF0zRMY5Zo0Fja8PBkm/O/dg+Qe+lWLLfFRik5GwVim5xbxH4eKZLEOPQuSRASNIvWNyTXfDKDDhNDElWoQECPgMDyUNxjZndCZCxLv89WuM8D+GH73nZ/vT1TliFRS2JKydDng/ZOMdUBsGSMIFKxqA82W/btNpZWPaK3TIiqiCFarZ1mw1hQ22FdogzS8qDdfuNvv5XkPrrdnry/0bHtFY3DkOpKCOABWAuxYlFrF4h7uCMVG8frxf3pwx99+sVFfn+aL2ueRnqPtNXuaZt7KpuyLvJhb81F9b2Xs8c9goh76PaHD39QkoqmXDZDUfRa11BTepSAlawiQVGJAESTMrw6W3X/bNFpQPesIqKqavTeQ2LYZK+eOim5jEO0ULMf/b1fgG6nh59cuJYUaRhAb615K5ZEEC0QvYtSFCA0qwsieNkJxoznw3aQyqLsIpoTHZYrUmTz2ixfqoqlZNdFWuPwC9Dtr05njw4dGWGTMBiASTIJD0ZQBKBBRAgkVaFHVNA92Ns4ZdBSAqG5FHQaaiRK1BqiSLnknKzlxHWNP/m25OPbdfunH5S0kIYuvQKieRAyImi2ivnKyINoBGGi0rwFp167FMSHwdBiYh4CUQ0ENIVa3SMn1g0EpPclibvLW1X31i/8c3/xz20vn0DpIZi7U1LJm3Q8aSMnhaiMpgiqQdDXtcWhO8azk2GLGjbkVEwtlWwMQITR6xqq0Xeqwt7qS/fuUoYHv/8NdbtNMj+NYs6EKiQhEmPSEhBRU+9Qu923Egq21fVmyGV7Er07gzArETRDhCGkxL5LIbtaF2F47xqgqcj2LTBvo/0P8our51VSqlTxIZydYZNmFQY1SVtpCVACop0I7667KdHW62cnQQlHSgyI0MMizIw9WzS3oakiGNyGg+7tbbRvc9v/8pf/YDy7SRAygme12TRqnIqIqKABYmaKpH3umqLXuvbOh825XHPbdlzK6SAKCAQwU2+u9jLqvGAopsmEpPQWrPNyUf/6N9Htv/nZi1YaNTzEBj3zsGK9r2IpmYkDImBQGKKqMFMFWMZ1UW0te6vS1TcQiHylGRlnx2SI0bIhuld3kO7n05tx3kKbXl5qtm2Eu6aSRSRa807NFBNTiAhIp1HMTIXhHWw7jzRSUzKJauIiKqISgEAEKRcVBSGqjNYWQhHedPdmnDfbhL904nF2olaPhpWs67rU5s0ZpDtFVcDoDIiZqggZziW3WU1KjA82tZfSAyKmAlUGRbsNBslThbDNh7k5BX2t+/7nf/Pr6/bUfDyxAztM6QdsUsqIQJDeFtWNJhFE0CMlFYpYDnccDsIO9Fh1cz3XLpISVARH3YooRGi5iURvrTmUSk0l3uyJvVm3/26uPVqYi6oyImwc1HtXIMJblRARBJUUUwREFAQCSWvzNe2pi8c1nBBRwI66tehSivqUJXoPBCMEkFx2/9Lf/Lq6/Y8eX0XsdTsEg2IqkWOuDaoCAIJ9gQhIY5DwbmaWPVCXYVt9iOHq2hZmWSyoKna7mjhFTShja22tgVQ9JGVjXL4xu/9G2vK3f1q3WcyLN2oZc+nzzay73QwREcENsicBLECQIaJqKYXvd0PGJqWkrHKanwasp3i1E7DmAT2k0Ot8aIGsDBODrk/5tWmv/+Bmdz4kbVNNzhO7mEX1VHXNmkxBZhjoy3pGHUZrCDXpHtjz6XJ2uvDle9f94ZOnNoH7eXM+GQIFgK4HGwbEfLhawjQm4TjdtA8ukd4I9KZ9+x/KZxgGM9MCRqyXL5VQMdMhpVzKOGYjRTQJAWGEgmT0NqeS4I7efPfgfNIKEctDYhxFRNSEfjPPjQKopAyiwyB/+u9+Pd3Kb8/nQ+/StHnT3OMEVsZpLPaJqOWc9fmyX9ra1j5NujIX782SiQ8qXDTnD571w8c/+Px33ExUw1895qIOZW9X6xJJlCEDa/iL/c70TVWeN9E+/c3vPcqMdRFqTFux0ylPu91uyh8Tainrvq91vry4fgpHUq4lak6mGHsP1ZSI9Gzz0f6LrYmpIl6tVrQT3uraQlNRYqHsGw7PfVfwl/7rr0P77z+pL85SyWw8i6XOKLtfS2WaxsEojOgrio6m/TA/++xntQzz1WMBoSmjLrLdGFd5uElfviivzt1Xq4kIGL2qiQ1FQi7nMt+YfZAQ8QbX5Q2051+czU/8lNlwflj2ePz97/0YEAi7qwp79yGQp+HB2eP3zj+7vMIklhVIm2tQU5K+vfYfnV37WVUGTe0VSHeS3uqQwnIKgBVRZfd4OXR5g6/whrfsz/2Bl9bYQtFx/sEnv/anvzslA733adjuNtlsmywl6b2ePN6sB91CzASW95RkEsHry7PNk+dLFgTSOIBH6R5gX+qgosbeOgCNsNQiS/6X/9bX0O2nV4/5xXqzrrTPfvnP/OqDh+WqkoQKe7KiSsCSaTvM/fzke2nz5DCYRcCUJbkvaofzl8/3XzAZIkCxV0F4EIJgGAlGqz7qmuPKb9Kwubl59jV0+9/89CqmMqZ24O7X/oV/8ccnrLypaw0rw27MhgjS1OeqU45Des9me+YkwcBg0TrlbLX1RT7JqZScc7acUlJGNxEE8rQGLCeRDBHXIdtuByf/mbtcm7t1++fHv/5pkt7LB7/yo3/lfNub31xOMEvJzCSat9ZXxNqONpl9+1i/hKXeZNiE9rWRN4ulLLXuclZoNhcVUQhAkpCHaw3A8lB7sjlyZ5CIO6uTd9O+/xcfP/liXTvOfvBL38fFNaV3Ws7ZFBIevXtQE5QK0Jy7j+3LSlVXy2F9qR5rbAvD1wklA8KmycSUnYwgZGC4GkMqUkQUqoiq3Hn63kn7393s/um5lbTetM3pZ+uhp2F4r1oesxI9PIJiPkzalkbO2byc8eqzS1FVE8klJyAgmsjuvatA0U1VFXQygoIbj5QT/frgEz1SLinKGxKfd9J+v9brn3ywzddPD2lyDwOG4SJlMyEXAqoqXQXhPco+bWXdnP9KvVqHrGhCzUVhHUTOuStdLZc9CVFAyQiIzGI5c13XSqSRWyYNSryzbv/aR6N/+Xf+2OOTubr1tLSSCB1V4QrEMVDAA8Q8N0nO3lMtm+88e3YD1agKMSM16KFjvkkpaR6KHA8JChghkAGWsVzdbLIk2clURUT13Wl/vW3bMj4ZN2JJgh6WxPtIuqtKSjkJPXaxrhEmbePdLFDe+/jLg0d3EZAR0Y/5l0WHpOLVTAXkkVYhI8nwILIQJhFguLf+rrT2dLvf7zShLS3ZOKWTVL1vojkILakk9O4NUOmr5NP1gKzed4/npcIEAKNH7UbQ+xVGotdjsEMSuC26exBplA5WClcNhrfW/q2/cgfV6z/+rfj+8unNo++25zc2GcIyiKgVOZZq04RATsK+Hg4tQFmilJT1qU/1SctLNu3rvLQeyLq/XMfdrgg0heqx8iuaUzJlylz2FZMiGMAl+qGaxn/xbrq9+O6mD+e7pXYSpopOpEEjqQjpV5IMKKV21dQDC3uvc9JSZDs1qIuQBFOkpAlGkAIQEDl6wuHHIO4oVVPq69I3GsUj8G/8V+9Ee7VBl026aY4IVdCR0pTXJCrw1opJU4MxB4w4Wk/ShnJ6OneESwSJHCmJqnoEBeQx6qX0cI/bLCoJriAgI2anwpnu2rivp/33Vsdl1WuKhnexUEs5p0QNCLwOY8HSNSV3QimiIpaTecrT7vniECVuYzcyBOwucnQGhUBEROBoHwCihYdYsotqWwsb53eiTfPn9lKw3wpaNFCkjGNmE7qTjiHc1wo7CUIBUVJUVclu2+KhgKgaGOHoPXJ4APQkIjgevEdOAiAIs2j7tRdVTWL5rhLE62n1+vcDp5JMhQ3QkofB2JmiNSd5lbISCBAqonIeQVETk8rd9gVFLSyHUgBGAOEOoWcclSuq8cr2EoQy3GHyKJAkcGfa+bWf/9kfbvu02RAQkDqMpyWBJKPX7iSXWkONId49ACS1lIdxyFhp+2tBMrpTVVKRHmqiuUjvWUyPmuWxJqXirQdIDx12p3ksoiWDP/zd++u2lByR0NENajaMO++dquatdwKkd0nSK4IhZrqKppLM0EKm7SirqJmZQFKO5AqSFMRtAlYUqoAIQQCg2iDhvdVRu2Wt3LzDTrged6ebeDaMaa0y7caEp/uT0srDyzi+U0Or/ZAYi6hw9Vi17EYsrmm3Lmfv/UH3MFkPup82Ze5pcwBIybJqMiXpoCnBgbQxtbiGaFaVpibR1z6/C60hF7OsHkGVaH79clEzf+mEqCXddycDkVQESmxCvCeTfZIOK+OrRmsFIMJX5z5FRUVIkEGSCwAxoRIgyEkQ7q17+7f/s3vTJpZBJWkNh4p77Jc6bzftphBqOdsNg50RWz0+zal3OsWKRrS6LgAEEFEhAboe3QOamipJjSAi2CEqmmRieHfnEOHeWmN/vdP4WtqBZuHiq/B4GHjRWKdkAYREoDBcAYqICEXUJCWlJ4nw7g4RyKvautCPhjciqYgIKYLAMU4IhUiigwBb9LY2Z7ojenj9W5YM0UV6FhF4W23s85Xthk7ShbYx7UC/tZdko+Wi0V27S5l2V7e6TUKKsJejJQjcfl+OwuLu7qa8jU734d1DbFjuOAdeS3uSRRhWEiHBoFNiXcbCIFRVN4rGAJ0qdI9VBALGCDTcKlYEMJIQut56kA4X3howKCXBIySMEECBFu5UE7vDw30tbX4wWc4tTexxPN27jGk7JDeo5WIpmQcIDxWGB0hNg+YNpDW+SrcIzInbJy8geVtVIUkqhGB4qB2tvgApAIhp7/rv/Kf3pH1fTwaU5Hm7oB3NOGR7sstcoakMQ6rHNSPk6FAld0lpSJ0OGza729sMt/0piNt6DkMk5Hh8ASKo7kERzcfPOLp2iuna9bXafR3tyY+HSW80tSXGE19bmbpa4lx1R4/aF+F6M0eeTpaGMfYtZeOQ4qblSEbo2kRN2KJNZ+mijS7jZNFY2rjh0sqwgGSQSxzrLJeWTOgOLckjAtP0l+9La1IILGot22CI1tOtbpweIMTEkptISaKyCTFEdHoTj6id4qqWUjpWKU3Cj6++dvD/U1A0OZZfkwoBFb/dJbJfXwf7WtrBrFmuyFCE2ViQxSyZ6vVwUlDndaQYBJ6VroOyAegR4a17dUkUEbFRg4Rl770HoaLHEtnP8wUpjFBVY5CispARHrH/2es93NfuhCnWMrR8iq33GpKSiZqpiocktPDaCWHzkrxqzr2JAUgJpIekkiVqxbiZK6gWx+yDqCooeuscAIAZISIQp9MgZLj3iLgj0fg62ocnHq3APSVfZhfTSURNVKxdXACwhQGEYxTv2sUdAKzk2UA71szboW1PV2EERY/+LKkIFfs5rUIhIHg0GMcwuXv004f3pn38wGXxpbXNy1ppSVBEIkRkOFb8JaAS7uEkuLZwwZFDBR7eROi1UasnbyH5ePI6FYTyK78BVFFhRA+C4UJGuPdIm9dfUn0d7aPzmtaQvmwOyyqDJFHBMSrJyeC9m5pEq44umTUEgh4N8DBhX/arJaqv84LC5kORY2gXBeSxW+iWliJCsgKge+gRNx7P1/em3W5eTpqGyKcPXj7dB4tWCASCLVsDYFmThqBJWI61JUW0poJwIds6r8OgCXVeE9h9SFCRuA17j7HvUeIYRkZTBaL38WjFg8PrY53X0T7gmKZcOZV84qmK5C/OznNtNkzidWXO18M06eFqWeANUnA1ZCFsmLM491fYLb0+tfdKPsFNOvOr05STIoCc0bpoEAIDvWQ/zAG0sJx7vzEhhrORV6+PI19H+wO61mDW9bA2SZZsyqBJSgoBwlVN4N7DAAohZFBU9ZxrdVV6sZZ2Q6hHsCPfxo3HiBE/37c51tC8NguGR+DWlmvo/T3GoXVQhlHnQ0TKZrpNEZbN5NgJSoiw9yCPMSHpQjEVel2xObmZ081L28al1t7R0iBCHq9lEOTP7a3VKqpswkCLAAEVSxp3xJGvo10Y3iUZ5tVSUiFKdKoqKcd6gXf37pIJ3PIGVIUHrh2CruuLm61fvNi0RqFmHiPfYwKHPz/NPBjdQ4IIBkUgJmqg3F+3m9boQnjVVIpEdyfEDeIKgMFaoneX/Op8NL1VN6D16ssnm9BRrhsjCLVUmiBI1Vvn5SvdrmJtacgUegSS4FgF7PFX7007jc1pqEo5ZiqiWU7isGYKEVAE0ZoLcXyqhUGBtwMh7eWVh56367UMB82RxkFFiKCoH3X7Fa0bvbaUFKTDkhBmaP2ue1Gvo51LqZp0NVuCofSIYZMiNNWUICIylOxtceUtb/FGREc01fWq7ZZewM3mULfa8yavepsB5TFH8/N9661S2SYhO6yoUy2i1TsSYa+jXefJWaTmvPSIJARtSrVpOohSRDEOKXztOhBCARIFZPTzfcT6cr9Z59T9rHzpmsOKrbhtewP+MWMLILe1qXnbKl1glsRVI44plXvS3ny4eMHB7JlGYzcBnrXvDGudcIDVeTxPTx49uqxak0CEAklwWFKxen0VWPDYf/rxr3427HxNpYqaqbuvvdBF8fNa+hoq1Unz1kRjTYMs1yuG9nqH8bW0cfl4KGohkoROqkpqz6chI3gsdTK8UfXo4B+7VgQCdPq87xCLvafl4urEiSZyZ29PEJpMAC0ZItKCtTU476hMv3YnJKpIDpTJewQz1Or+wUfDvlPUEqr1uoSJxhFSeEx0sMGvr3uymdcc5pc1KHrbNPb6rr5jT7m4HLve5s7aetxZMHvt6fDgZahKStO2r5WqlqM61ecQgSWvGushFBIienRM9NY89MOCovPGh3wzj4k6TpnOYxD8TwCXcKeorAZBuAs9IHdX/V9H+1PfsUcZMY6NCE2W97HZ+VKhdElsznroEkE5di8dw0RGXuclUhKbasKLdRMQM4u468kO0dQBDHp8ubJTM8TbHfW919HulzNxosOcaqKgV2w3iBTKbskqpM9g78csmAiPSXBifzFDnNtt1/UquCg8wrsd8+T/BLNCQykyCAmDGVwTGHFHAvd1tOe7q4lpZFsPDCJC3FU023AjreZsGtbc2FsSIW7zxwiwv3x2gK/OdRmabFOnqOnd3RwtnKKqPBZiU/DYC3BMS9+P9nf/nx+elzFH88MrnVHcS4oZdD3Wwbsg3G6LX6/c1nZzuSZfWtSXp2Xa9p5KGZJJv4O3klBLehVOScki3IVxZzHydSr/re9tduOwgT7I7KFJkcbSrg/5pEekVPfzzDKZexSXMTW3scoOFzf2Wy+aZm3z4PogXTfpm7MtWkdmb7RjL6OA7Hkwb5SSTKItc+0BATi7pKQR/b+8v27x4Il/nJaU9ttiwdA8RVtDbrKogYA0byLBpMYlWclrb33Y4vpm6SoCcSfdEadjYoTqsZP11l0kKXSGqAXduztdBKIi2TsgqdzVZfX6/O3VU0s4H2rVpOzVx2Qx35g/NGNAdGQQyXQ1X2M3pMjLPm3Xi0tHOcatiF5NtjmBUHOIUo6eOElKkBSzJaL37qSYqqgMNVw03Vnyfy3turNLHYaW6VSRJPuT7aDLjHOoBsUsGBCgZ3NJ5lDrc/3i00WM3mpDS6hNvcltGZqiBEhlgKQwCBXUW93CoKJgUgZE72wPfO3nkU6eP/voxdWDj5L0sO3mgt1Op+4ryKBYF4G3HpKTJvNqAVw8/+ypiqLX1syztD7wcmtD8ujHTCPJgDJIJUUkfCXDA8CxY5bq7qH0u26VvJbW5w1jvv7s2f69D8ZO4my5LtttXQ4q4SFpAL1XuKkldfdt7XH5+YWISHhHAi1FKFqPYy5URBjBUAYYkaCqsdYVABSgmkp077WGwPs70Y5+nYYrx8V8cfP+1vY3D6GI0LJPiZ3Jdt6a2AR3ClfN/fDyxZcvY6gMhJRUYQYYpzERx2eh5LH159ifoElq3VdRNVVpyYzeuneHxHrnNJvX0r63v9qNV+Ojl/Hp5+//8H1ZZHtq9cbyeix6KfuyRipJ9ivhOT25/PzzCx/hhNBMupgBytOc4NTEVzXdVxGvmAn6GgIVMwlVIb2vQRGvy13HyWtp5XmpNfbD+PGL55/fnFg8FivjZsxt1M3U18O1SFKBXzslyeH5p/uLa08la3Ifp8PzvtNnPME2sQoQ/Zgog2wE7AwvxuV65u6pSBpTyTST6K32dUwLbLnjKHs97ZcRFHplzWdrvzRdoVaGknZ5s5mK5QQiCKolrRefPb8Gt3rbpsjeA6IUem2WTKL7K4sUKppU40a57BdqgaaczGyw5eqyS4qbnr6zOXltqvku2r/yrxOiXutnU9FDzYMgUKPbM03jdrcrp8e7bYJ6Nd9cPL9xKyUrKBHhrTnMnOgckUz4807WgImJ8JlEnStlEknJBIY+7w9uFfVmyB99dAfsHTV0M0sh1V9GstS9GuEQ4QqZ99djfiDHquJiG0WiAAAN5ElEQVQ6X94sIdPg3j1lQ+90rwHVHqQjOpVIr3TrDMIjOqNDg4AIvbms66xT95tp6Lyu778b7WBmSYlRWlJb9k5IStkGtaRSaw/vvXskIqimu7rUCGj0JsIOAq1BQ2OG5px+nlQMeu/ewwNKNjXQFTuIJSoPGKZ6/dM7fba7qmhByxSuPpbJqoMCIFoeRNmiMjw82MugCJWFyUSU0WrSoDX4sg5Juvew0K/KXwTpvbl3hyrZ9djkUEq25pLPoDs8/+I/fjdaevchGWd0pHHiZUQ4XSP1quwxiloxlTUbu1jeWzLQ3WuVFEgVfa1DtgND0OtXznWIiBHWRDRp7wsA0uNqGiUXmKnD0l19Knd1WP3mn2o0Bc1URCyVksxUtZiwt9YzASIiUpJwoJiB7tEP1VLA6hjXbZpsHzATfvWW+fHtTKJWpjHZYmbC4FJdypAEJ9Z617/zbroFFgy084tlm17gg1OxFB7BsTUr1uuLMg0S3U+5kuJ+XlcYfLU8WV1kClpp3iUDvQMot/fRgp1iWddhgCBn9laZxvSEsYglG9L11aD/+Z26vYN2ZbRBUeZ9EVn6GSQlAQgFW8BMVam3eRfB0ikC0cPcBkvRzbypNOm3fUv/eJLmtmoqIhB6ax5R3dRb5OHBZSv7N8wGuiNc+52/MCFExv0M1bYvHlS15JbEnao5ZxM5ZllFpAdUovWrymQM6m65yqVFD0DNbPMKmLdJVVNRFUk5J2VrU1FRFZ+u4Zfp7rEad+2EH68/edn6B0PT5K1fi1kyE8kpSCs9JYGoxDGrIa6CXtfacjEPwMz7JE2pomqmt6gQAUKDdqwuMIlmduHusOio8+Fq6Jf5r92t27tom4Rb81FEFt26RK8qKF4IzVlUQMFtdVxQwL7Ma7fdpl13NdXj6xSiZinpMcgBDUcHWcJb6x6ai8ESl2UxsdbmswPfuxv2Ttr/c3uVRq5JhE1O69HRQwtXGFzlGEqFHG+3ZbZ6mB1lUA81gGWADNo15ZyS3jaKM8mx6uTRW2s9PE9DsiHflBzesPGrw+ZNVyPv6hM7Ey9jQEJyyEk79nOLsVPU2/CVqyqiqqKsh0OTnDHvMWqTUZuXKUvOOSXTJMfAITOCBObePQhZoGaWk4+DtgZbr3X3n7yB9q547W9Ygntr1VMx7d2DFEnwzmgHkOH+Vdwv4d57WJHl5TXH3BipEEPJOR1NNvBVlpkg19opqQzHqTyppKhrq/uXy6G88X7Znfcdvhs3USQOq1m4TrvtmC2tmqU3GkNMJWJjWobM7v3qpZ9MVOazM9nPJ2eXL0Xai/M2Lx2gHAdpIDyC3nvQe++tb/ywhJns8+GL/eDPi+hffRPtnV3uy/tDdIrwmg3nMK2duhZli2wQyLHT5Ngk02eeW9/X3Ng8DrOAEBLPFKzLNLzK3yY6/bafXyFo7mzNlLWJtMov7OJNsHfT7s8/ePkM2Ojq4nMaYl50iLUJxdcBqnZsVY+QiLXpFHPTopFNyyhBEVIPKYNecXL7Ty3i2Iapx9Bn9mBbNXFZRJY1Kt48U/JO2i9ePvLuthvCUjsM7odDRppb3uU6nx0PUkZAQyIWS+1mGc+ahxlHCKnCkJEsQ/r5XEAnIYaQ4630gCjCA76sIuvCh1dvhL2b9h/9rusKukcAKRnlVcekmclto6cTbuK+bLlfh5NyFSHC1jRC1FWFmkriV+7tClLFIJDovXdNCCE0mpt4k7z/mrT4bHx/U0yZA7ods04UW8pk7HlQAZ1Bud0J0R3bDV6uxwxqKKnaQms2LGn4yoQ6js3iFJFgb1BjeNApIkB8/pZZVnfTXj893ZmufVQvwRZiXqUM4lJGCoLuMfC4dceQoeBwo1APikmECCkmdEnpqxDWjl0e6GqACDrCQ2oOMyBpe9toqLtpr9LDnK3mxwPTio5Wm5+ZaLKkIYjo3cttb+dmkYHXq3aw+7FIKwBlV5ttNoO+2grp1j+oBhVVm4Xe0TrVAqr88mvTou7Hzcu0ubQdrzUZQvTivDQfzLuIQFMyRos8bPe78Ao4Q4aM1tBX3Y1J5/EkJ3UPRu+t+UkqObfqQzsA4b2amuZhHEGd5OLJW2DfdNOwDsOgg7oTp8lr2LRrPNzEkKjR1o5cDMeGOqiqiNi25JIk4nSzHEJLaErJRJCircfRgiogEb11RtBr1WEoaV2uF/Qv/6+30b7xhqxtTixS1HYawkiqOfXWV+Gmz003Y4nj3VFPEKqal96D0attNxfXGGLUZIKgoi+VaksCEkyWtnQoo8ytmO/rYUU8f/rF22DfSDt/9uGQsJFDXEFGcr8vu7w/tIDV5ohw4NboCiCqWFon22EVTaUu2YqoIDxYu7tDkAEmMfZlIRC6j5HepDXBi3/48hvRYv3ZVDJQckvFoq5tuC0kHahmUo8VUZJdBNF73LiLOBmLT7YskwLhvTujAdE9hYhIUsBbi/ByU3XIMWdZL17cY/rpm6c9fHGyPTnIOA0qkIxU6v6ATeZiKan0JvKqx1rorXsExDTg8yKlqwTorbZO0CPcBVVVBZCU2D0e9mcv9Lzu00l88eU9xmS/edpDNC0C7Vs9XsU5L9KZ0C1Z0mNDqyiAQYXRez/uB4+dXu61bCx5b+u8LNJr7SF2dIcVLZBKTraz9fl+OD+f5y+/ePs+eJtuhwvblqFdTCKIXn2zwcVFXeP8eMdJOtTkePcRLiQQZPRG7dfycLs6vdW6thK10XJayHB3oeaEWNcvNnm5/OB7v/S//Obv3WsK7pt1221/kxN1cV+9JF5WQVuYN4wIb3VKFi2G7cFsveknH1zWGLJHfnx5becnEje11uaU3GtzzZkd0Sd7fmpKd1pdy/Kz/L3hb/6Dy18ALYiWzzcIg0sxednXw4o8FvRaI42SsjK8Jz0m9fcd2Tz0vM3c5hY87mbm6CGWjYuX1GNKCIKQ7Os+Nv0nf2/vb4wZXsnbJheV+mRK54uDJlkHv4aarKKKLjmrCVmdjzpQtF8J5PjiJaO1xaLX6lAVMYOKROlrMKZjr1vAUtfT9tuX13a/cchvo63b+fdtc7zFJjrVpinFWreTojMm9Farx0LJxbyq3tZGYWptHlqrHSkniCaYAg8OL3Swm83xKkHceGtxddHsnoO83zrDap+WL/SXLDG8+9JoQ2pOUjTlMqzz3ChywyRFc7UeKgywa0L3dnCPlIeyaAJUZDN19RoCEXhr3dvNy3a1Tved8f/22Wt50z57EBFqsQbElLWdGnuU3c7nm9lFtbskk2AJSajNT6+5xRJcCcslp6NpMz1dV9PquXX3VteKy5+9qEu/9+8nvJ3WS21eg2q+nCQVkVQGUPI05et57pqEUDMJx0Qa18XPL/JpXTVoKSeFE8cJh+O+J5GMubu3dV0vPv9yQb//z9fcYwrfNcbPK1AGbYRI3pyMPxMrQ5a6X12ThWczNgDZTCPCo445mFoWUbAxQ5QimJlanMmzJYWx1faPXtwY7mUNjnKv8Z398fLl1eb9jaPnSZZuZSxJGPGCwVz69cnaxpEt1nUhr/ujTZR59llFhB6Ej4Uw3x/aSX/+8NGTF2vkBx/H33/WnPUdaO839fRp6pfPL77z8AKSivGyHRNKQjneLL123Qd6qFNtSNuzfaTNMmuYiUVEWzxSgVBCix94MX38x08uXj6f0/T6lutvRIsOeZrlY4PPKO3w6rwHIVDValhYomaIiKJgrD0PFsIO9taHm1nHVvLgbenPL5cfvPfrH/2D//XvPtnIW0Ly/5/ceyY2cbHE1lCdfS6iYLiLECVHTWMOKtdBqL7nyaH7gaWG9fkwz4e5zJV9cbO2n7tH2QzyB//D/3Rpyx0dgHfJ/eeNL/iszuc7aSqWb6PBAbgdBEWvgbpIhHA6fXFBRQtZDjfdkmjXwlZZLkTKqdrw8vd/6+mnfueV6DvlXX6DIC1PFiSFCNzdIyIDUgpb0GttjtYaNL3/K/GlPpKbJV/Nq2x2m3GTUh5PH5w90XEqPh++/PzTJzG9+8/UvMvk+QVohw/ON9PQcUwt4ahbcYea2//b3t20RhGDARx/ksxLMjO7M93ZdtsFRaQHtUcPfgEvXsSP4YcUPHjSosdVS9UiuO2+dbvbmWQymSQevIltma0IQn6f4CGQEAjkH0nbGKC9vfp+BqM1MRTTsBM2VVgLyHcTmAKseFXxrw22cPWz2F+ZFgDkacWztOthgn1CsEAACBDGGvtEs6zUEiEcRMGDe8dLnuteA4zZVaMWE5LEHRnwYn5ukVBXf5tyrdaNLWqDTjxI88RyXjMPU38luowSUZI8j7ZAEsK2fbQ6fGe2oQ47VPKod/y56sRDOv5WFaXQm00K0HptASqAiyX3k62tyEPWmKKRHrICUAyX62cH9IIlypBCZbnqJ0fcGo13HvX7i/VkZE4nxCcbRpU2mxZAAvkBXrozSEPMsEge5uqTMl6Im3rN5TQyad9kg+H+WDbZokDIVFWyg8VyXq9AtWu8/G7D2hrChGb9bp7T+s7T4cmrhq85UJaky7Fmj5/fFYqY2ejo7bSMQh12+bpafG95tv7JBmsLAGA1KmVB987TqJii5W59fjEr466SZ/NV+X72Mg48ZL68PpQSs8AoXrW4DFzjFiU7ooHhNI+TNGTqcjItUAC2acRlOHzxZL88+fDmo/Da9XJucuvuXvBr1/SaWlvkWepro7g96C8ncx3gAESbXs4/xYYRAEAadiKALgDc/G+04ziO4ziO4ziO4zj/n5+trhuV15esSwAAAABJRU5ErkJggg==;" vertex="1" parent="1">
          <mxGeometry x="500" y="500" width="99.9" height="123" as="geometry" />
        </mxCell>
        <mxCell id="3ASoaDRJVkE-flD1x3Yw-11" value="" style="shape=image;verticalLabelPosition=bottom;labelBackgroundColor=#ffffff;verticalAlign=top;aspect=fixed;imageAspect=0;image=data:image/png,iVBORw0KGgoAAAANSUhEUgAAARcAAAFtCAAAAAAIAXGvAAAAB3RJTUUH5QgPDgEU6xGzMAAAIABJREFUeJzsvduPZVmS5vV9Zrb23ue4e9wys7LuXV19ZUajZkYjxEVI8ApCQhoeAGn+Q3jkhX+AFx7QIGCAHkZ0T3dXV3VVZWS4+zl7rWX28bC9CjTDqCMiIzKRSJMi4sFd4ct+buti1wN8K9/Kt/KtfCvfyrfyrXwr38q38q18K9/Kt/KtfCvfyrfyrXwr38q38q38/1P4TS/gX5J4+nd+o6v4/waXl+U5M0uwf/WL3xCgb5bLn/TL4z6rMArGf81iiPE1LwvfIJezLeeTXx+uY4o+ywz6l75FIAQQlJBf7/K+ES4hkKA7RoqCWcGoEv+fbH6L5FikoPr6lvj1c1kBAaAkSKA50I0EUHZ87f/+y0xVIEFIkH1tp0387d/yQeWmEoLpsBhRU2AKLIHl0JNt/OaPASoZRBBU09dExr+eH/Mkt6uSBEGQY9JQ9Dk8LKPstjDdyl0ohM8yMmfaUi4ziTDB7WvZTV/nPjpRADnLCyo2y70ZOCcsqkCqTZCSz1Bnc0fvFBdMUKKXBCN5/fhr/fr20UIQJlUVJbcidpnber7ZPPLN5fVrH8Yk0gjcfuf7z9t++dUvv9iRSVdR6TB34Obho6/2a7OXJtDKa3pT2qyCr7Z98r1PP3n57NT0+Ku//t//9PU1lpGetNOz3/nDH79YHvov/uxP/+rSJVKgBHMDZHr8yMv9muzFjRQFmgfG5La0892L5+eXP/zuLecQ/XR3fv7P/uKhrAzZfvi7P/r8+ZJaf/z5y3/yL+6vaStnwSrLjEys+8dd8NdkLxbGqsowMu6e/+DTZ+vNaTv1ZGh/fKyTL3D8+X/3v45FwfjJ3/tB85vt4bKs/Pn/8Re/ev366pgwwYwABeDjgvk67GVR09ORuaw3L777+z/5XmjvWVAfM1nzcl033t7+7pdf/kzA8smPPm17Feql7l8/vnpx/1c/+/llgATNVIILaB/VPfgauHgpZ2I5be3m/OoHv/P9T+/ml5f9vrMGHXJiv/DmvOL2p3/+8Lpod3es1u+tae6DN9vLV9/9Yr++ef34II0EzCSAS/94i/7oXBaYxn7b7j5/9vzFq5vTq09u8pcPvc/ey9wdGzqyxpDGBT/4y8fwV694Wc/2+tcv9/v7SwO4/fgn2e9/+cWD2vjizfWBNeHiqo9G5qNzmaD5qx997wc/frHFutLx5eV1V2XfFc0je9+vPaWRNXF6dh/nT5615oSqj18/JmiyaDxtp0/EhoeHL37x12/cptjx0R55H5mLr4vHze1P/uB7pwB5mUTuY+xVlfTFkP3+cYxEWzhmVnt59fPdelpcorLfX7zBG1FIrcuwtX3exuu/+j//+a9G0Ij4SBbzUbks290nz07by0++88IuX3ZvL1U5Z6bvlzJ3jhzXhwEGlsYsxXb7PNbTstiscnKmcp9tYSbmhBNjxO3Nzac//dE//cUX1zUL8XEcpo/J5dPPv/Pi5e0a57u6f5g1fbElZprzut9nhJOXx2stpzbEkbt4U1ZaTptGBY0GjTmimTGisWDulddYtxevfvTn/9tf5Byoj/OS+Yhc/u4f/s5pcXNRdblYVPWfn8+VTI2eWV3U48OMdVsvs/ZZ7mDuvp4CKhkF1j5K3dzYXL3b4o1LtLqPn37n8z/7mzePOcbj+AhkPh6Xf/+Pf3CSFW0vH723ZRlXPcJoqVFkzdQYM52QGWXRaJCv27o4YMhMA0gJ1Byoeb0Nk7Kjrufls7vv//oXD3N//MUvv/jwjuTH4vJ3/o2fPIuSLTH3S4+tVRZjXnPZHIBUOXolnKwp0AIW8jnoQrQSclQJDpasalaRVuZTVZmnmNvNs+/89CHHmz/7s7/8qw8O5iPFX/7BH//ojhBs8ctjmtFEr8zs6aY9LfrrK6oPeLvZanJdLCLx+Ne7nU4RVpX7tH32ci2GWcZR6ylQoycHYkGfwHZ3e/PZd16d55sPrMDHsZc/+YPP2RezrD4fByQBKjGU2d1cRc0eBOgtnFlyKqtylipzOCEJNUeaMoesqmCL5bikj+0q9Bxp220scfPdT1/985/9/INq8FG4/OT7r/BoSyV0vVzVSmWqLBiZozWv2fPYRBZhZrPY2GdyJEwz+xqYVaXei5g5CZXMzapqajA7tuypoo8Zy49vX/2Ln/2PH1KFj8Hls88/j1puTprzerlk8yoIyikUCBAY+zQnjBGhMroDJarkYSoiOE1CVk5kmgADqofMy7jPXKwSzL5g9nF6idsX63//AXX4CFzunn22lm+6cuLyZrgDCVA1U4I3V+XMIyHi0RzDFFaimyTaEQA2DxoLSmaZioE5azURUyp2jcm07a7NvlfpTvHqv/1wSnx4LqcX3/30RLfp1utylSm9SBWggkUwxz5VY/egkc5Mc5aFMKgSaJrDp8wzpbIaZIMBiQKJnGDM2ieAsiUT93uynp3/4//mg2nxobnY+tnv/PDsHFdfeB073KmEqxIuA6gc+8jMMWHiaKuhVAVnFkiCRtMY1xkcowpegx4owN0I86xpNTinJMFbYH8s9nYX/+i//lB6fGAusX7np7/7vDOuFx/MvVqEUQBKcEpCaU5VJt1QE76t5MzZqJmCpzsVQM6ijVllqNHImrSgQQIBDXFm+VTa6YTriG2F8OrDKfLB/icA+OT5Z599d8ViZdUjzAyotKVKNelB7dOY7HNMsDDhKjqY01kYc1KXZ8i5alTNmpkuVLGxplAhpYhZZkgRtCyOfd0XG770Wf/Zf/WBNPmw77p/+Pd//9PTwMnG416kZIaaBYeyQBBzAllj5JxJyJd1a8jhEWYcPt5gOblOjiqpHjqMlMzdHLRAjVmpKUE4zizV7AvnPgo28Xv/9MNo8kG5/Cd/8iPXrHXL+8eZYMEcKpipUk4ge7ojr9dZQ1ZYtm1tKLmZkeXjwubSaoRh7j0JQrSnd445ZlaNPqtKqqmSWCMqxxTdqD/6Xz6IKh+Sy3/5D8/9C+V2Mx/e7KgiGAaYB1EwN+Scaq36w1WYsPTltC6OCrKZaDUnQ+VihKtfU0oyDWRbmpvcUNX3TCmlqkqYkZIEmS1z97//Tz6ELv8vFUrvK//pD/L+sSBq//ICq94TyoQZAJJUjTRHzqHKrBLMoJzzqG0RkDifokp7L/No4XFUMuTeR9IogazRsyrHmIWCPfnelTnn2Mf0f/QhlPlw9vLv/cH59WSOWOfj6wr2XYTmpEGk0ZBzhztqZh9Zo0ALZ1XOsnAL731Hjslw8wBAomRIVcI9HI4co/c5BJUoIJZQgYBQmaMDbj/806+uzQe7j37nVeuuC+MUb+7LmZkwSIKhKoyqyixEaY6RWVU0oobEKlo4qrKbYAF0s7DVm8Fz71KOfm1uPvscfcxusjKYG1EFFUlVwhkCbz6AOh/KXj776R8sD82/WGLu+6WCYyY8DEXWwNONjVlU7o/7TEiwcKMZRLE5UPPKKlusBjwijjqqmpLMrS3mY+S8XrpgFA3mzCkogKqC6ETI/uCrX0ofiMvtZz99ZsulJPTr5cGMmGURNS2QBfjxnI1Kyzf3pSyDzNysLVIIEVSMrKVB1jHaakGxpY1ruqKhncLmGHP0kTSj2ODIhJmIygIhhAnbH/3PX1WhD8TlOz/+dAGzp1l/2MmcRaJMoklcwimQhoSuj7NyFr0FtlOY6FXmrTWrrMNr5NNBXapwY6pEApxzZmbBzM2M7bjEq1QlmtEpBnXzh//TV1Tow3B5+fs/PpWIIJQpaoyC5qySWyFamOhmmDPHw46UVLbE+e5mNTEiwtvqRIkWlgRmWVWfM818jBrymqjMnDkLoDnJgMjfuBk0GrNIYLHf/4oW80HO3U9/90evctSMNR8vCI2swsxU0kmYpAQNOcfe9+t0sY3usd6eNtcoBkXSxIakDQ34PqdCFOCnB+/C6D33JVT5FP0zIs0MRdNRyQjOtCwLLi++okofwl4++/yPX620wubKNJOmBEjQnCLAQBVNuY/98WEAgAHrzXa3rUtz+uJuEUTRQHcygra4N3c6bYydMUeNomnOkQTM3J2kuxl1VCmqACgZZfH3/odvnMvv/+H3moqMZ3XN9eyqFMwJqibMPIwAWWPPvnc6XPLtfF7Pp625eQvSDXWIuYeZuVmEB4PIviNSDhhqznlUsIa7SfDDl5KqaoRXgsSY+r2v5BB8gH300x9/f8mcsbiNrrbYsIYJmjHJyrShthhGzj4STs8qLLenbVu3BfLUnGquIjKlihbclxwwV6xtPCxtuabB3EZRCRYBmhtZlUZDSpXC8euAln1y+UpKfQB7+bd+uEmoduLctSwSlVLlBCdIKjMtQrP3a08VWV223p5Od5/eLspxeZzXbM3oSpHmbjUDu1TDueqSM3talbfKkmAioy1xxIUtnJAyU4t7c7DlQOUP/9k3yuXf/nxZW46KBQ+dTkBwUj01Dn8mQWe/Xi+XXSQ1xViWm3ML9XH/5f2ba7XTugaNiws0Z6JGIgAEcvbs4ykEmqIBBUaj3A0JQpWaI7mYNfN5cbgK3X/5/lp99X30nU+aG7Og0WcDXTSLpKEImCmZ1qtSNbs7QWplbKeF82c7OYvLtq7rZn3QIqvS3Exu80qTVc6cotEMpQIEgagpN7KElDBzTEKAUn30MEm2Pn/9zXH5d1+dzbNGrv3xqkZ6lrxUgams8JEGFgtGHksH3WI9ncb1Fw/ttJxuz2oezfM6G8xSSIFm2a1VBmaWhUCUSjjaClAzD1tXTtTMXo6kpXLkQHPWenf7DXJ5Ztcl9tFnm5d9NQ1lsoFypij6EFAlmZErqrKAuXi0Ni97eawvn3tXZTEToAvKzKyCpmGyxZzymAlIxxZFuSqRKgvHTFRWQpVjDtVQLrbk9Nvnb778prj8g1M+yvdS7fuem8Z0Y2tc98p5FHnRDCooC1GVCdLAtSnnutye1o29sliQmYPErKo5KuGsVK5zTEEpCqJUEEFCpQyaMqHKEkpEAuZm7qLdvPjlN8bl1onqk6GZoy6ycjdIbb1M2FBOQceSCxIKBrNVfl6GYsXNbbM+9BRqUYEOwjAyZU2ZKeToGiWQkArGp9s4K4vSTNSsAcHCYdZaGUrW+OkvfvW+taxfkcu/+dwY7GmBnlmX6bLmMMLdrERNsAjpN0cLSGOotaZ122nm1adaMA0EJJS5I5MpVFHZc1QmnMARsCPhLGWSUqeEPQ10bwx5W5bdTQzz06ev3zeb/9W4/N0ffDKMOVLhBMp7JU+rSs3N52SIdiSlIZEGSYJlc2CNfbWQNHpZZNIVnHNMILzJhkQz0ywRMFCyJywikVn02mkG7FoiWlsRimULB5KWfb54/nj/TXD5O9/BjrjfHYKtcVH1NA71tkbllBFHfsghAZQXHXLH6uW8q3J2VYKVkMIpadSa2osISwlWZSOTRsoKbio89fzJBFSBJFtbt+Zp4eGnfYiz91o+u3wTXP6j79u8bfPiT+1E6Fml3agcVaNgOKIulKoEQUCRGqupzJbzXl2At4ZKlsQ50ph1fUSLqiGjGKpEwY6SBz01AOo3URpIHmuLdTUzKqeGlKiE2d3de6r2lbj85GZfT8uXMaqGeQswXco0qags2VG1Qqh+245X5siaPdyrzax66u4sorpUKav+8MbuNk06qlAyUtBTClZSFQDQYQBZZcsWvq1KgZolSZLR+PzT7/7svVT7Kn7AP371kCvnJXNKiqV5QCCJUmUVaEfHkJVUR+eEKc0lCO659z6EKk2ojHN/vGBREZf7i93eNnkDUGNWiVTVcT/juNpAd+Iwyra2ZQ1lwil5lmjmbo2XX7yXbl/FXu4eH9ygNJOpim1VM/SqJAEY8dvL9UiBoXQEEzAfheKcM81pTjNqjutV69LGuN7vy93dbVb0GRozIUKlo6boaKoWAZApkURVLCbRUGZmfliUmNurl7/+mrn8Y9/VuYZNO1m/7tE24xzIWX60PmMe21+lOoJsR4c43W0+JFFKLOuy0UhTZUYw2pvH+3r2/BzlxSM0pyNfZE/tUiR/2zdLCbCSuYGKSrozNKbMaNNuz183l22/Ru0BXefWIufFFIMr+qEIpBKNlEoqATRBMJXHahoJl0sFUEmHKr1Z0cxWPLu1ORnNe6YE1RHAPco8nprPf5O8pwFVxxdomDOUs2csXrTzy8uvvlYu/8XtQ67VH2ZNt/WM67jfWylQw1IqourputARMqKRRUuZO1NdrtWIGlzLPWSMME3gdqln25wKoV9mPj0KSdhTwLIMT8YCQLSUMgOw4qL7earsvRA+w0+v7t+Hy/ufu/9Om6mh+4e9A7GtBs2BcORM128L6Fw6yjFoRjOHLOjBypqT4rIAhjKnxt5O8GXOZtsSLIbVuL9UHSEWGE0yA0gAIOkCJPoRviBrwuY+MucYaQ76AsvLe1Q9v7+9+N4xCxiDxi/ztG37BeGSmR0TSwygmwRLkDTyN1mN7AYzHrEmSDNqqD+MaIs35iWjcnY6qwSonAYI1vmb6RZHAqCgmWaiag4rzmJWZReqUKOWgp9fvniPE+a97eU/P+3T3BtrFjWHYonYtsY5R+aRmDbHoYhIM5IkARznpwH0dV1McGsGXB+5vbzBlEYBNct4eXy8TBxGoRIVQUFFHJV4ZeoVjqOGUwnUFHPvCRrNFlOC1/nuXcXvbS8xE3Bxm/u4tMAFfQ2iZv3mBXZkDN18CjxKDvxwkwgaSoi2LMF6qvlGWzbXvKIwq4dZ1v3l0mXOWUVIGWF53NUEBKlkNBSMOZRWnMN8DgBGWhjn9HZe30O998TyH3JmVeCwcxWt9qUJNWsKR70LIbqVfmsnx6UKWJWcZIvWVgebcbGrn5al74nqey9Os+z7pQ+YRJWZw5xVMlAkRJGCw4AZYM7wVA44YDwyMzNo8NP5/M4G875cXqxCQdAc2Vj5OFfj8ezXrGNmi6BYuRe8nkZVUBIBMYVGIrytm1tkNrtMWUfBq4yOOaGx7yOpEiBZE/zYU8eVf3B2Q6HKqjKNKqp8Id0A1rHXbl7ef21cbltSllYlC6vLOAyi0AL5W8swo0RIT89THFjSCzCBa3NvSwvMGvPNdbl74aL5ItM+suaYJaCop9E4BQGl4nHBUaK7ch5ek3hEd8yMRhJT7pq+vZrjb74eLv+BiQTNwZNYV1uCKVcaKDp4ZNKpKXhNiBJRdrA5soRgrEEVPZa89Hz49Wp3bisfx6lZX/brPNqyymjHs2XHERMtqMpoSZqXRhQhCGZ0IykV3WqCqyfb+bNfvSuX97yP/uhmMF3FFWVcLTzcshfMnjxGAkRCKZhX+GEqdQRPUh5upvNNQ8ifn5S6/9nrq62nzbmY13qCmOwWiMihpyDxMYYACJY1TvfjmmuHr85aF5gTVialh8xNYmvXv3pHBd/PXn7P04ekRFiUNVtmYZYmVQeAwz/SkQcoN/LpcVogDcohd8ZpTaIuAVqLvnOJWNxsYFndd7w20EyOnAkDRWPhyDcKKrojU6E6NpT78ZNQShSIrojFNe4+/+uvg8vGgUlUIg2GFshRi8f1yYWW6tguBwWSpJeKypS5W9WQaPKbmrawkLx9/rM3vyLb4tbCfSVOumcBkql+kwUgD4Mxl9IoKZM+6NFCs+y4BAuaVaIwYnUXz+d31PD99tEP7hqzkHLPFC2ay5dloaMEM3s6RQBYmPIpLIvDvzOWQNJd1jThwLjwXA/7tXe4VUeUIc71q8usqtQsGIkyP2peBbqDjjlSMMu2rtGa0wEkXFkzp3KU5gSk8eYdm2bfy16eGYPRKRnnNHUaDY3taJTJOi5pyEFnzQmKZlZMQFCWWQnuj7+sDTFj94zTy08u9fgrmN+UViWdBQ1RiTrasmgEYJABgICoNAv3Fs1hnCapSk+VQ1MzZBjhcH/HgS7vxcXoLjsCCJmmmkQZgS1Izqo4jlgFzVRZJgFuBihKSqiEMqs3eWpLrvvZAn6+G/Py69Oz5nMakPu9UHUkliAyqCf3yAsHfjot1kaZm1d5pSRN1hHYYMmXZvJW7ziv4H24uDNIeEk5ZpoZsspMR7bES42qJyNBpghAZWIJdBWOHq1pwP6wrOdTq6Dx9sW4Vn75xfn2yoXe769TqMPTFEBaEVXHlVQqSRYWp9MyRxWrSnbM/9NUio2Odl4XK4zKd5uK8j5cSFtIxU4kRhk9quCBAiMCYKrmcSawsuhJkoXj6QXTDtKodO09lv1603163M0x2wW9GgbMHn59P3WUlh0OlgpApYyFw+PaLHy7ObVLn5LgaQRK1lMFaw6t50ZAj2Uf/XyJ1qCWiN3anLMsjEEsm2oC1kLVxhgyo6ZIU1HUjIBhMtMGjVbq46bZ2PtErW3FlrufcJIxKvus68NDR4GVdB0lIzSECWXgtGbr5mi2nGbDUqNUzaBJpGGS4VtxXX0Wfpsr/5hcHGwGIxpYYwqQBxGVKQYCUAU4adzFcM0yKdM9vKBSyo3FKj0uxlBNxtICObXUpcjSGKp+ucyUdMR1JZodQxKlhFsscbpFSeNxCM05J0JwT3pX0ekRdI0qZPb5bgfve3Ap+mJWVYpFI0VqenMqRaNJkByckiIlmGvQSEiGEFUBQnDLSriXqrWlWc1Z+wz166xxGdAcow7Pxw5/k3oKUFghtpXeKVXOubdTs+ZWfYqULTlBEmgORSWNRHuXHP67c4mKUzPN65RvuRNGzSOmaHSqCiJhVaM3E0lnkgTSJoNit0IWzMxYZGJAUtZ+vbyp02I5x34dZkd9UBUQPLIBpFRVCth600bKCI3rHL1HW2IZStGFNrOonGZNXDj7+dmbx3dqKXp3Ll4eMXPsjOZ21J4jh5EWcEMBVPhqdb10qAp0P/Y3K1oQI71QgAMqYJSsj3A8Xh738pvbZZ997/RxvEPEqrA0a0tXZRWNtpzOBjQ31Nxt1XiwrVnBpVbQ4WrYUiPNgrF9cun/8njfD8yFzszHgt9u5zmn7AgBHMdAGIWjqdG5n0b1x+tTeaAhy9mWJXoScKE4jSSru0b2dYf13dZ5yTZHL5aqAJnVEdKLNVOVsGC7OTcszSzAGTjV431hqDwqYUpGzZw+RyU5Erx99qvLu9zU78xlA8NzYjk/25Zf930aVOnhPPKsJrh5cZp7a/0+x5RmwSxzGLg8vx22S4Y6kh40qtRfz3OwzQfznKdt72PACEE0E2DbM+vlpSrSPNY10qIxBIGLt1Y15nzyNRIOJHIaGASmLefb/V3SAu/MxcpON/TY1sUKOVKSEGsoJTu6PoxkzhbLGhp5zUEIpAygn+0+h8qOF1pJVeiLzastKat7Ru7jus+B8CNvZOWq9YX/8s2RpC4ZYYGqcprJeTnHSXVhG7MozUGiyjBqBsxDpuXmnYoQ39lvJOP27tmzbQ20/vCmF6K1U2sOIUB3ibB+7Qlfmumoxa5mWTBbtm0JZr8q0lbQOaecJjhH1365YolYavYBp2hPcVq8+vw58lo5Jj0Cy7PnMcvcQYPHUgymjHvNxGRVVQl049wr6Lt4f5//ygTxf728q700oMTTAgCV+8iqKi3hdkT6bfEaI/vIw8Vrp3GVdViRQqa0F5/PcT/L6Vki3ZAJJThyvblOMJFFdfrah9yIPL381ObRLEpI5duN8yEnG3ex8jepE5PllG9ZMhNMY4Jrk9UxIfqjcSElRqBgNfZ5/E6oyiNb7BFmYMZqBVqbS9SOrDziDDEv242bvejj6iYhRTue+Meiow1CmfuwGkdBEaR2fv7sfFFRoJFHyWWcMC4XW1GOIZAFmNNG2WIzVXNUzDGqmvtTPu7tT9535SKS3jDhnGMvGMMqH6M5QROrALNEXa+GgAXnVj1HSQRFDwrm6zKlUX7oQ9AsKFNOa6yaMwUSaa1sYLm982vOqWJAAp3VrVnNN/limcmjFItEKzmbIxOafQqS+oPdHPFhvL0z8I5c1hJpjmwLr/vomVCNzPabkIJq4dj3/c3rfclq28rdafGUOaE3J2rG6SYPP5uOKgNpxqc0NiplTpqU7gb37bTk40l9T/OaVcer19xO+/WyhBRPu0SRknMUTfRQmoUqMyQdrutH4gIIZpjuUTmOhHzCrEpUajCnmbJfLknL62M74Ujhk4ajUsNaYuUYj+VMHRM6JBzRJ193ASU6nZkzxdjW25tIbTjG6pNmjpzdqeUZxnVbZJk0uhFzJnLkU0mVuYEZbcmjZ+ljcTkJYDgyHFmCRY5KWFUaNecMlqL5yeyE5bx67ug9cZRPlcOaq2Kt5fy4zyPM9FR3duR/Yq3jowRE0JQg7fTsdpO4qy1XCCE3Zt/pBl9vH/t6Uu/wONJVc04NEaIFZ8wSrKGmiCLfmsy7cTks381a0zwqdTRJO4oV+m6siGZa3ELb3a3qHvssAyWZ+xk93TFop7thT4NtiMoERZnRmvnRe4GSwtxsu7vD0NLlzirRnDlnCQWrtg4sUGKJKgxc94ce6QaYIx9BVZX6nE/pvbfV9N24EHyqgrJMFUfJbPFMCcbKcmvNw9Uf77cXNy7EHDDacswMGs3MTxqV66f2y0ddkyXhKahNWAVBGlpliWG+rstpKQ/CE6MEJzEbkVhcMeZAvVkrglWjK/tk8FQGNp+JUablZj3tu6rk5R/FXk44iv1gS8t+7W5tQdts9pqarLL1bgPXJR8fvsxRcmKOKdpxLLJsWYPu1zXyckoZaAp0MyPs+MiSMqNsBQtudr5d7EjGwMx8WrPiItOc1Vgeus4ph2bOkWkeYTMl0JVjzGRrzVOWlwzYW894ficuR5yflK3Lpe9azuG2rhzX63V28217dufJtl7zup8qEW2OXm41ewYKE9t5tdZiMD5Z/uZvrCD5EofJkGlhVYTMDAn3ON1uKjZaQU64OWnhYdm7O2ELRr80zp4J8/MKYfa9kjkfrzNhbvNxk9W1bG9626fdu3C5/a3zjDCVrbd3KFtP6Ntl2SdO52eLyzzAONvzcyOpPgRY/vDsAAAgAElEQVRi9qMpK7bzIlvW67SbFyer+2k13fRE3OBRKRkhFa2dbs+rZG4+zVrsYSXnXNw4r/QNCpVmsV+xtBan1i8zx37tsNrntGVb3VjMPmYJetvPZHgXLk+936iCVYU/e77uV5gV4tTmXqfbG4ixBLl9Mm/OjdAYMIjewGIs2+kc2ZbYoMT2fPnL11Qd20ggW/IorqQkxXLz8vkWpJv5uO77qR/RQKS7m4auW2MJNTDGej6ZMse1z177VW62oJ1OWxgveX3IrDjGxX1oLjzelZkITpzi2W1m0pRpsWqfywKGhxF2XhAuoa4ZLs4FMzO209aWM2KTx7jw9tV6+rPHSrmFqehGII+TSLQ43b18eRtLa4vI/nh/2fa9jIUlvC0GIq2FSfllYj3dnuqSRI05Cw6P5hXhEOhjT48MWr7ljfQOXF7kU821L4vNWJdzm+K6Ha264ggv98ZMoi3NJOz7JUMTRVd5W1YrtbUtmbKFDT9Z21897JPevMocQlWFHcV37fmrV89ObXNEiQ1zXZZZ5hVLM4YnuJ03dzrf7HE6N1alqUrKWNxaC7DGKGg8XCaCsnjbB8w7cFEVBLov52ZsW1vMrG0nWjPjNHcrSdUnLanFWxvZp9WQqhRYWmAMmaGNtCDy7oeVP5/XPAEAIR6xBTgBPz179fLutG37fU846bF4k3kLZ800EafbLSc27OU3beZV19S0HGjbYh7O2i87nXp4uF7ShrmN7a3CU+90vpRMrO307HYEOHdTWzYOeVmOojWmQwale11i7v1xYKQ0iivKzbm/uQkBJjhmXfFphnEPA1zVBHe5K5Sx3Xz6ybO2nliVTBilWN3TzViGKl9v7k7L6wcS6yut0QdVHfRp63pqWtE09mu3jSkA0xC5xNtF7d6ey7OElVQWt6cp8/1x2I37QJepWPJ1iRFEQalp4bN/+bB78zHdzHXMkKq9iebGEOej8fmPtr/+YhgCR2GYE3B4LLcvX96d3Iaqrb2G5pA11iSK5V7cnj27w8NDcdxfPUyOSrgxfY3wQJTm48O0iIjTtkRAvflbfhTZ23NJGktSu3l1U1n99WtfFyPmhAwWtp1jurOUZXNUeL88XNRcJM0DcrdjEOZ0Dws0qffl1enuzV9fByU3KuWlwLKcnr96fj67Ek5MjTGuyUCa5qzFwHZzd56oxa+P9zxvYsN4XNy1WxyOSWleu62xRd5e3iwjkeFtvlVx5ltzeVaErITbTz9br5rXh7ltjCXQaE4LnpY5GqtfOzn3DsxdFmuJMREnz3LA2rr5PFrqfbHHB0+3m+XL+zEYMB+TiZWn2/Pd2RlRqsgkcTQwMcABrWWx3ayareV+/2jnm1VqXpFz7JpJeJhEa1ucolnW9fXyWKo5zN4qdPv29kJUohAvvvfcJs1P2/OWS5CLEzUVVruH5ix3WayzT4aFpWiFdtP2jvLwSjdMLI3maJtdhfhkO725Z2Os8zGbbX5+ed5C8pg5QaM1aq9ZiIhskzT35hW6vv7iS5xuWkO/LqeNly+7KgsR7jSewTCTr6dtoVD9UW8XzXxrLqYszGp3n3zCzqVx9Zu8Ngy4CTnlVdNQaChsJY3HkqrnHLKKdYvsqSmPoLNE10yWBwuWJ6qyRQs6vLV2ut2CjFh839Os6GKNfYa3pcQSql8D+/0vX4+4u2koPbw58blPmpll5Ziq5hbjaoWAr5sLULeG0+XDcXlhSFC8+973nl33aIETWjWbl/SGMAEjBxqMJUG0AmxCOQfMz3dnhSWGILPNo2lXEYyl9l7JuG0TwVlmS2O0RkUszctMKqjm2K8XWfOgUF3z+mh4+OKLvn3yYuvjmm9e9yXimmZQAlOesWEfaWlpcfv8i8c08C0/tuNtuZQdoZ7n3/3s/PMOwX3ulxXz0m3Bshm19zJCVfTB1hjNBWKKtt692MZYAbd6wzW0LfWoWKKKdC8vbbc5rN7IY21l4SqL5rkPNiGp2fuYuVgs4T4qSzWTNzfr7bPoX47ee879wUdRvV8ZUZbeOarMHG25e/HL12VgvV1hw1vmj+7m8arbvv/jF5XknPPhYc9xf7/vo3gAQLhRxCwkW2vcF28+yOWzT5eRjOYkzGxrVbDWzM+RvSz71dYGtBd4WG4X8eb5CcvNGi2v3RerfR/7/f6Lxy3X8+1ZzS6JMnDdzs9eLClq/Lqvt8vaUNfHRF2zg6rKrcyW84q2bHh9kQZtsv3tRvOW9vLU0MrTsxtcrub7Xn1IVjMTEUtb1sXCwuYOQ82SW9m2u2pMW26XI586BeW4PkZknSguFN3V7+c6M9na6Vw8RkUxHPmgnjX7eLjM+zdvuve1mbV1jq1mMm+cRWOf+XhNd1S3NudEIbMhp8Vys1UyvYHr88/ejGqtoLf4DN635JJUAmXr7c16kS5d6p2WqiqRrW2zGhXqb7SEVHO3KjfNkYjzZmWWMztQmNc3ywqtEDNngjVnjYStsZxv96ykchJETlTVuIz9km9e//rSytfzgiqFX2sM0kzgyNyzhYdlWl4GKiVYEOvNbeUo5jKxfmd/8/PragNvE818W3sJiNBye2ors6egfmEssFQVq2AuNlTWBMzNjTRfcqTHduveHH2CWWneH8/njVVWnWLofB373LkSYMzR5+JhZjQZjPN6LbOcc0Z4256t11FmEXuOK1pzWPO+tC1KUO6vL5OlE9tyY3k6LTX9GLKD8yff23tx+tsM1307Lqc8puPefXqHydZJsk1ZoFKi1RCZbFdrz/cpWGtuGhljh613z7d1bfk4e13mXJD7mOFKKxRbOLbJXXTk9TJr7rmuNzft1GpSyr4nq/ZrtdX9tK4rZi6pOWi7EN5W4LFZYu/S+OLLyZmxxsa7qGikOwqDhbj5nf3xWoD0t3+Y1NveR0ooY3t5m5fWNgKxPpN65jF4uIZhcnloz273N73W0//F2rtsyZEsWXZHHqpm7h4BIF/30exm14T8/9/h4ohNdtWqqsxEIiLczUxVRA4HhtscZSAr2WNg4ifU9Cmy9wpmnjhCu9zW1vv0fpn7ycKPQcsw5YQ1DRSsQSru+8xIers8XVYcMzmPI0rG/vKY3syvXri2GSnDiOkwa03Y1UYJE8d9FybXW7+mu6qlF7IQWkz/6fOv/5Z/rML5D+WyCDId0j9+WlMXpVmam9Zjr5OzAdZkC0WaIePaeiZYMVJ8ubR+vrT64iLC4r4/xHJ2inoT98qEImclALG1O6BQJCMhzDjuQffmXUpaG+OJWyu4u7siy6pSvGEekzOlfXjyy9EMoulZFd5KMKDf//jb4x+O6/8JuSjAEs3lxw9L9lu8FVn0RZsNA5hy4hNgyDErc08Bxdp2pC23VZVi0kN7czA09v1NbxV2wJuItbYHVKsSlnDviwxYEwUg5lHb457FogHuijaX0dfJpbkrKmOJrO42xgT2urXnT3DeLEIgwqrHGjA4P36/boD8gQf8P1SMpxjWU5e//ecP4R907I8RVXOaX58Wa45p19W9qxpp6wXbXn5ZDRnFj58uV1EPeXLgqQtn7vs9hG2Z7fa8aG5BFYg6Ra03a9YbyBLppczjeGxbhIxp3haNAom2LIvb9dYEMZXNlXnLgzyOwQ8/XKRufd4fQ45gVX05MqWkf/fJQ/MP2F//0HixYWqU/vEmyMl9xFGXpm6rz3saFP3isNutG4Y0je2xPq25RZUsT08dPQtizNJ+fiuxbS6Q1i+I43FPkYxuSNPwEqpWpomn5jjG2I5yVfZ2W60CMgHxFqKmbl+7QjE1a0hmT3laDMJffx79wzUmtO2Hq1eyXb7/5TGh/3NyuUzxMuXTX5ZBD0WrI7u4RrN1ma6ul6cFaOtlmZWV43is3aogpPevrGm15aLTalJliBmvlG4Wc3vcJxXUBlWJrMoQqSKEyDnn2EYBtMvTbekGERG1Zc4kKVKQskqHVkmmWvbF1HD8yz/LX9k1oJGzFFrK619/+Zz9D1zy/pFcmI5C9u8++jQVX/X1132Jylnuvam7uJrZsriHxJ2TzKlQK5VmNcmmrOpPUiiq4iCQ2xPX2Mdj28YQMdSJSgRrDKxpUlURFY99G0lCl4u3buLmk9kvmRUzTBwkZRU5/PZAL18ixeL+yuViulbOY0SGrZdL9u9/+rcXUOpbRc5/JBdFppJPPy4Cd4F7tXiz8wXiMlO1W1tXV637xvu/jbx5bwtY4f22oLJ7q0zxSu1ABWveeeDCyG3bj5HiOnfVYetykZxltzSfzLmPx2/HNqEmrav31agq2ZIqvNccbeksLKC21XzmiMztQBf/9F1ftczn9nYEw+zWD//41395JNo3B8wfyUUEyUOfP9mAcEbY5fl13Bd3ljSPcqnRF0HtwWbbL0R7fvL92GRZFxM3Y57lz+ktosy15sErUDVjjgAhkdbn1O5OBpsUkGN7eXt9qYMKwHvvy2qhWlNMuoy9MqW3gSPjcft+Dbh+Ga9v+nL7ePOrzkLF/vLyFoE0M6hcfvzLrw9EfGu9+QO53KpEMa9PnY+1MjNbu333qgW3ROVhbU3ej+V6MbG8//Lf7cfLxeaXzy8qIuKLZ2a3E8zgyigNslXMIRDEMUUVKKjO2VRRj/tzhjKPx+vrNqVAlGhvejJBxGh2Ik7EFiH08fLy48Xcrp94xNv2y15PvRWFY75+fgspNRPSiPX75zn5zZn3D+RSsGFatyuHXEDO5LBnlqvrrIzRBI2Pn/d+NbaXf/5vr99/vGHMx+tbayVtWYRCMJFGWI+toARrHtNNEMeQrmrSzMJan5zbNhhERhwjRLK8KRSsDE0DrURijLmo9V7QePn1c+X3/Rj2pIH76xxvzxuVjO31dYdTFFFiY/JykbGA37ig+kPrdGlaW3qvJSHzEE1bS1DhEm+PxKt977Vt/1zN7cuvxw//9PcP/rjvaY7laVEx7Ko1onzdZpZp6hFLl/HoXV7uAZR7xwedvppGDPn1dtUs2Iw9JXvg6Os698XzQGvG4UXJsPHTRabP+//92f6fIR9Sr12Rx7EfX/rqlTn2gZbpXqxxdK2wZ0jZt96p/0AuWqiU5iqqysyzXtQUEjmPEOG8Xz4+i9rnKO9/uf70v/ynSwAU1+X5WaEeEMYoKM6TN5g1yr3U921Lbc20S/e5yVqfJ+v+ujQkmPuuhtQUX5q3Sz+P7gbYeruPY1lW2Us+/8vbd/V6wAh76tgjZqmCFnF+QWaCimGqvlyWvfCtrd23c3mCVCEdY1thjpoB1cUMDWPbUpzc7ou2v3z4fGdv15/+8jG3GfOY5X1tUaWKPLZdXKpItbIkx4wBUY5Q02a6ApnR2+KqbW64aFnuj7EKc2S3vlw+3HqQVayYra3XKfO363OPeP70/NdNm2vM8tvccJ+soMzJ9dbnodqyENObiV8uL1Hu719OfTsXAUm1te0v2aVTYgs1thKXGEeiRC526PL8/fd3uyzLU+c4UkbQmvGYcCpi7sNF4iuqsNQUtb1cPAgkcQSQsclaFC3EdkBz2x5TZM4Ub5qzpNuoqsAYB1HaNF7fYMvln671/LKt1aoC3m7FnMICm663HnvSdcwUMyldL0qovd/v+AdyKVK0ffjkMebYhYqcTDc5kNsRhDeTpMYe3bsjWRijNjYzCaNiRMEWY45RgiIixd2Vb6vGNksM91dRPXhD5dyrt3rs6/7lZTJHFLytsvclBIAaqkRzHykzXr/sH1q//f3R7FInJp5YqnLLQtrava1220KLIyMIa+utDdQ3Ksq+nQuL7IHrp26L7OnopdvxIl2+CirVzS4dslV7NlQWLMc2004LRHPsB3tfY3977CVVosJCxRSh+6KZGGMTYO8+inGQvcWGY3tLjYKqtIaIYjRRMSlfLWaqL8fdb20et7y39QkmSRKwNUYepeZtuTw/8ZApMZ1aUK9lMavI9yeYb+byzCKt+sdP5n2pYOu2mO4zSnUKAetdoLWz9TBftFTnV8FXPz31I1QghhizSKpII2ocyqmX58s8KFGcmHL/bdXTSZiPuMdMGIramxXj2HZBnU8vlhTzdZ9b6vNSEpqt2VRJM1H13qe2y0q73eT+MiDHgFJPRYVQg+//8m/mQoJIffrhU0hbo0SluTV/INDyNJfaQqqZz9RqrcooCAr7ZdEQV5jUQck6/Y3QUD35E/efLy/T1i5lkdpmfFmvqjMpmHFAEivv5cKCMMbRKjNjlmMGIUo56tfs/aqy7Z1KVVWVHksMrh8vUXy5//a2uu3DTFqz86zZFM73djDfzKVyimT/X/96eY11lmli0cXbbXuLqaGqzXQsbOB+aWO9Hx99En59jGbdbHELFMEDcF/2aVWQMRUtDL99WeJRy4WSpWH9eL3MI7HM19yq7lOcu3JA6GrN72MxzkMx1PoBneYmfNPnWhIY0jf7cOxVMTPk8uEja8Tnz/uNNaJjOsIZtjaFMN/dwXx7fglKtp9+WkX4UFeAKd2v8w2PnNPERKRLblnOYvBAI0UqpmFnLWoimpFTlVWZJwS2Umk+X77I0lpWQ0IHKSbeF8bMw5JZyc4IZLnTOB0KnHTAysx0lDdoZ043dbVeSWHMLLssV5lZ2+fX2w/Px/1w5jGutcft0/WXr7CRP5/LhSkC+/uPnmYRrmakiIuLytu5yVquN5PJUm0zo6ThON1qOOJY8iogKpJze4xZZEZWoJBj7m8ivr/8+qH5D/L6eF2+++nDo/4tk+ZxILxmWc08fbkDlhejqKEiMxNCuqBJApBkKmZV5Cxd/OqZ29uXR/v+qdNyPKjzfkxp60XIb1zyfisXpgj6D3+7RLDbYRAvMlnpzzV3VbXl6UOHac6leVUTy9ghWaKqOUdkhyiM+fjyllDPmiGwbvFW7Tss+vjCza63Hy5f7Ppff1jjo/x7rItqjRLsGyHCDAo0HA6YQlBJAC7BJt4KEGRGUwhLei2inTFfP39Z//JT/VbPt5c3tNpMG6M8v3X5/e1cvPL2X77jHFT1GjStYkQuy22/p7Tbh9siAKQtHQ2uHKNF7BPeWgXnXrZQyNjfJs20BkS09YboNxvHgOPxpfa69B+v/+lTtQ+Pf3ldsdTcJI45hy6KQBbNkSfZC5VFxTKtRL1bFtRBVlFEFTTMqpz3L/uHp2U7OBBqkK7M7W072wTeu7b7Zi7QxIef/EhwmgTRm6LUKNou12B7/rgQxVFrc9OEVOOWM9W6qzqlgo2VOY4AKqtEGr52wtzW47ctqvaX14N/7+4fftxyY3/bX1Rj85P+mJpZNJtUBoUiFQUTqd2libpZiXVj7FMIRaOTFK19a4sc1TnvDxjNtPbf/nWA/+AX/elclLj+9Mwh4oUKkQPOFNOm1p/HTjVJRVaaoskMEPMlitYQqqpM8BBWHiMlaujZn2acZmNTWTrmCK1f/nt/rv7lw/7498flkkcpYRrUlhOqrsaZFlEqk1XwEh0lBtQU94K4JFRmCTu8Sma+RfvuGbtKHffRRJEl+fnXmUkVxTtHpG/kIpCS2/c3OwDJGmlfK9bFm4VdX/c4hghELA0x9Ait4+0eUNXTDVVwiosio5BBFUq05hJDsXFdPyZ/psTj37/T4f/nW443uY79INpFj1Q/wqaLNkdVVn61TxtZHMkMkcd+8VShHFwkKF+r0h+/fJaPP150LnObaVoaS0Vpjaj/n+PFSkp/+Nv6UCF1zmY1c7NmbbGcCiHnQ5uwKxI1s3A83rYpIhp5cTgLCZXG3LdBzonu4m2ROhUj05+dby8i8/6L5H1uHXnoVbjNvloysdS9SYcqs0YxFKlpzjmYqDIcZWJTRDCkRUeqtnnwy+cXXJ4unPX6mbt/kBFtX5r+cP8CAcreu/r+Ri5UyPNt/3mfpFppikokWq88KjGiMmYBkAanMUbmnDONpR01HBWgNUYdxywSwlSz5ixpCxiaIZfvyafqVTFevntu91f4WhGqgPUTiyOIArVma6oEcqtZkpA6RFwf0CWitfEA53606xL3l10/9JZl88vd2rUHJDrk0uNfXwVS7746fiOXUspteZmTotZEvBGoEgvOolFMMsoo5lbswYiMZDXJ6apqjiQrVGseUQqTRJn3Pk91dBjJ9p22LFNZ9yNuT/o41HsjU+DMEhdDhLj9o5eTFntAIRATiolk6KpSxxvjt88/86//JTe5XsRiSx538acnRuvSUFh/+PgvJ5T1T4+XVoA5t0PMVZMCxmVZROwrcNsbYgSrm9eei4CAmqV4JNXIgoDJiv1tSxPCNCohp3lESyYgZd+37dGenghQvfeRUebcOrxKnSdOUhVq3kw1tKrcwAhpzDm6VUWa+z7m4+f/4/6/f99krdJAszHQ1ufrEdKaZT0wXUj8D/Tzn8hFBbJYLau5W82UznG0LlBEJXwmamxbN3XjPMwT4kIlQ4RVmy6qChgfv/3yiiZZQqIYhmaGQkbBVG/4tPsPPx02a+xRqKCRWWYC8wyiuTJUzbVKYWzStGJOY+6V7bLwzqf1Igeu+Lcddo0YQLHFHFK2XgSgArUdNY0sVfnT61EpbV3a9cnUnLN0zQddtACOnZ5HksejdQi0j32hw2TZsQdVa+yotTnMKrYtJDRSoKLIaSpMRY7UZXEsP5GfPum//xavmTnjK2tXzqopYZ5VT8LMGK2rN6AS5owIugbVxyPX7yb10/LfbpUNwYwt4jFoZtYlozj3PQoGELB3Xh3fzyVFtD99uIidjp71gjVEhCJqOhgpSsSuHupNqS50P2REJcn0suZCITNFc5OimZtKlTJDXDJSm3Tx7+p4vrW3hzymPO5RappMpBhZQiSqOcddgIrTCoVS95lY7aY5ZOmc3rDJ7Z++G/VYYs467hsT2rXoEKlgqdXiqmf73Z8cL6CZX58UKmBNZjVIliloS1UW1EsqoJplRrezO0K9Kqx0yeaYs/UcR4AxRWFqQhJIagpw8pjNVr0u7E/PLWp7zOqr1DQWFMWAI5NaTO1N8Gg2I1WyYmrry3PVlWKm+9t4iOx2Ox575JEj4BZSGeIF1VokttFOZQre4TV84zty+NOn2yEQqZgDm4PSIFx0bz7mkAWhNqM/9qerlaJAXNv6ZSBz0d55T5t7vmxUm5onTCAlpTUYpcRTVXVpXa9PccnlkpuMY6GslYlZVsleNVNW04FOsSHY9vLmEnPY8nRpMaUbkC3D/H7vQR9z0tlNjmrumJxDqNV65mWBjoby3y+Ifz+XZcqHH5eqQTFGQfkVs8fZr83y2MfJCK65v466aYgbpXWbj4OiyjQVlZjjlNKootJgCkKK3bJOgr7aGstiV1y0IC5XvywxKIKSbjULIpxQq3CUz2OYZD2O1P706TketCb4qhYqTWZBnGzLKIjIfNgFMWiqZkJXAHzvivfdXLTF8uOPbYxjcPHS1iCIVIqqdVeHxwwXQWUdW5bTlgZbe6ttZ6YnYWLCOfP0aagqIK4FE6g1HVQ3U6H2ZmznYekZV+1+eGnT4qKxsxQ1uloFRSrSVt2Px4HlelmXuR0LXME5WSybmZmElJzVIlrJknlA3cCkSYmQYr+7Ir2bC6N//NjiGBViq6o5UCSnNlUt2gpmZJVbx/br/cuyXpbe1qKtl2UimVS1JhkzIslUcfPuKiWu4qYFaevFHLPWS4/KOTP1Jh0ImBl0psBMpZBl4HZcHCAVOfaR2jsOefnluN3WjspTXpAxCxQ0EaoYQpCzFcFgRlBxMpX+5LzLcemyjSrr7bIKtJrTfEZam5fW3JNdcz+aeIvt39+uf2kmbhxKbVQlWGlEbMecVaABYq0XT/DAjJjiAhpCrtf1bU4UKSmFmAeVqDmSjKyk6AzVKWKSdRwIsFg195wRmRl1QADmlpFidnZ7t9Zil4hsKqAVqkRtCASw3736fi+XHsU6dLhbX9rXl27pLeLY33xZLovCly5LA8w/jsfb8vQs0rsijlkkh2plKt/ejplMEVRVQYRuAWBm0eZUZU6a5jzCtbIOFYtRgqg4RgZxemELmMcg3WwLUfUxDxW3/mF0qyOnnyj+KvGlqex5kmcvlFBGiZvSRHvbwXefqN/LRUyXRdHWDjdEORqHWFt1ez2473f1donZ+0UgsI+vuDUBqxRzGxEi3pWZnF/uwcJXDwQzwKYjGzS9q56+Rq3BmGmokibFVMlkQe1k3BAiqXW8XlYXv+RBElUZM7I9RTGqtJlEWBFsrgJSvFRUw8s4EkJQoN6U/If94j+cS6E/f7g2v9qoqSfzKFVhvTn5tldkoZLIxYTt6Tsb82gyqutxBDnRzDIn98dRJwFK1ZQ5DSYRambtKnTrUlAhT62RtKVmpClMBeIhFmN+VcnVsXunaUhFHAFVZKhjZEHEuu2zqksqIlkFBVzFHZaWBcnU82xE4J2LqXfHy1g+fbpehZmhQpABU6mcaWhP+yOoPLaU9nz9uNT6F30tsSNhth26BH3VpHG73wviCbXmpgjUWkmm06UaxSBNXazmUgXthMRukkylCGopFbUs1pLG7dOT1EHRXobcW3KOdm4jdHavraDNK8GMSnETUM3Wus9KJ0oe1QTgtD83vxCXj99fNICD7fTJFAGOUegi1lWVOeZR4/V4WlZ/rsziGAxCZpqd4KjjyKwsqpuqCJkyUtwtBXUMdDUtyNxyildWlUFccoLnIAqKNTCBnQ09DmImq0K0OG0EDmHBlPM3mYlGZoIxBwkxM4q7h1UJMhiR0ETJO1Xd735HtqyrFqu8UBTromInDaoxTqg7fDHg+Dxu2RR7ptSMqabFyhCV2u/3LZQExN1cSUWJm0m6CwtVA1AZj3mUISGiKVaZENNCSsGaoAgOINq2wEqkkvSS2QZs0mxZ23E8qqmgYhY4xgAy0JfFzURVhHMbOnOUB8r1z+XC9alHCJhi7iUKmkqWeCUzTy5u6bK2tidiMsc+0cVqBcQsj9aa7tt2zBIItbW2dEkY4AbRsu5MupiINXduhMFRpsUyEVFJqHR/024AACAASURBVLo4BktkOJj339qlGSJIOIVScCuxfpXj/jBHzBmpTVQXMGvkJFu6mFjMfZNjbmEiJ1PlP56L6vXTqgUBFWYi5qJCqLcKE6iKIUeWa19NrJG+qpaABqppxOwduR95Or+sWVtaURwwLULb0sESNRNVNQjPm33RymwKyxKKNvVKNWh6psdvffGGMY6Cus2C2FIUt+3+cz4dNkecLBQllOt+1IOFdrvqqNKKbTvmye38c7n4bTWoZMHhXhBqFqHMiJAgcsocwXb58N1zV45a1DkjsqCopCQZ+37kUNHKyKQqRV3qq5QmywyUFMnIbc40giIzRdSsjPWP5+yoYgKFzuM+pYGuIFVwmEuTQufrv/3r0qkRTSCVkFTzy/rYj0CFL9Zo86iKrLJE/rnvSP3WGKpRynZpY7vP9vWYl1WVVQQyq6RN8duCorPViESktIqSim08RlXJSWOr09YprFKttP+vvpjJfL0Pv1SVSSRaoRJJnva5IjQpJeLIsUecYvhSkaO1gjZb58vP+6Im5teImkMkW1HMTSNrgNZ93LUtmwq1pN654X0nF7F+tYKKqJlwvr1sSlEVgSIJ0ty7yxz1Kvnxw1L0UjJSEZFShORxTIg0kYrq3cwErJwgkbpc+uJapQVUJb/kkyDP/2+cp8sSzQ+oNFGksIGCHAcoJeplYqVNSO9tv296WVcZ3YU5U03OP2HZVAXtYoVKdfeAQuqdC9735t312dB2Tlwst/HbFzaApJ0KG6H5pXWXGCOULDQcPrJJyg6IJy5dIiCAoaA00RqEI3tB0Jd1vTbVKiuVzJwV6CYHY9CaHEMQFFCbm9V2nOphUGTeyxEASqCrqRJj4c8v9+W752jO1CY20RwEIyFPRl0Xb5hud5qLktXeaRh+7zu63E4yuRQeb/dhFx+kupummlvrZ1N9zApdLkr1jAhVkYtQrFFMM6NMQwA52yBpIupfcbWrFdWhYLFSrDdmVnKSoLiqHpNV6KZTTljzycGLMEVmAKD3pSvnPX95lQ/PnmRNg5qI+6ka0oKSMXUaW1N6H1mi+ufu63S9gDRpipfXl7h+tCOsL81EqELrlyZzDyWk+6VrAe6SparomVWoZOzbpEAEqlISYDMTUWVU1aSImMEzjo1rN4mMrNrLGwsiLY6MMpGaQZGs04CUQf36GgC23huT8fbG20+3SUaOhqgSrGQRYlBRIiczrZlJRh1Q4Pcryd6bX5qSaFDM17f68MNyf2TrSzNAGVWi9AJUisXKUAO0jQlvkxpjqJtXJk9MHyCpZCVEU8AoUendZqpm7m+v2q4zKzJJRlKZxdU9C10Yx3E2HbIUDJrnsU84AddT5v36Jh+fcyOPcUIphdNEICbnvoFhOQNuFicR+Pd/+/vrERXllNiKy8dlbPW0dCl3MCB1ZL+QlG6ZDIpCQlAhSpyUu8MZec4IqkWmqSoDCjlpA1Ps/IbA4663lbrIVBURdI880m0RZBeejj+lUECmNjseG69LcLmZG8m3f/11vdhIjXE0mHiVHL0JIAqeZNOMfUrXaks8CiW//+vfGy9KkXQBC7b4/hrPn9wIUwBaMcZuKhmCDFc3U7DmCBcsoxo0MhCFr+RtTYp8VSWz9ETpZra2NqbtHTF30w6WuoJLmwOS2tyGSGmritNJpiwCse3T2uJyfbIi9/u//xpuZMd+FqhznhIkAFRTFET3ObEIp/d0wXs1U7+fS6cWhcJKEfccc/l0EWtSSbNKJfJz740jYhWcv5cZpa1b0QwVpHgW8dWLaq5nSqlJUfcmZt4WDg8RZTDrXMDAVKoryk6DCdXzXD1UCxXb8bbTtKs+dx6Px+M+r8tVS3ymCjMMJFxPkDNFIkqwj7IGJhPNWO80lfx+LueSSKmY4cQMXVdNMZ8UqkAs4r5Pb96WbhJUtxAStlyGOovkZEGY+MofNgd4OkohZq1BtR6j0eyxhSvnGMehtIpgQpoHmMGvb0z/EPAW87jzPkTFu/QYb2972Hff7WFFmaElITBTg4JQSmXOYEbtWEV0ZZZrke1P5AJN12yhWmT7SqlMsiJN5TSoL0TMxqrVzTOQTcSWazvq4H2MQeUYBdIQQncTqELTCqJSh0uKjKnCly9vz9mkHmCaiDABQixnTGqWgJmZLKVY6J44ot/6YvWG344D6jf58oqh+zF1MTGVxVAzRQgNyznHxBTLqbRm2fr9H5/ZfzAXQnt4z2PK6txjuV3+MQOWQJoszDnGrEDIelvGy1161HEpijBmJIaiVMEghRRvBi20Li6Voj5KW1fVyGPO+3c6n64jlq4SoihaG4TLjCCUlI4oU+rCQwS9355a1NuEi9yIvPVRYzvk2inm7po5RrvYMUxj7jPVpHVjVhREoO/0rL2bCzxZVeay5O63C8uUCYNTVER0/6qTrnnc90xIzWM/MnvNUlUUCRWWiZiytS5lbtdFTU+/oakImMJtjHmUu5pB/IB5lYpXlciMKQqWNzvSEWgtULosH5/3z7jPZzdqRn11/zWXRburxDHpTTPGBYIqoBSqQRTU5N1evnfvX6pUAZNcXbp/bKNEIWKnGbZEF8Gprx8bSYG/vY3jvrl5y7NVgoWzeNHbeWQ0V7fTzzNnc2NaJmIeU96erizVQB0lgIlIk0gAIFnQdhQpZDYr2PrxyY7H9vNvH3/6m+9RUkfMapfezMwk63iELV1n4d5AEaZUJQpirXfle4VB763TiCTnOGppirV3YaXq/1jfRF2rqgoleahCalppbIOwr7Pr2YR1Og+ISvfOnCqAVGYuvYsgd0ke4a8XXlkiOQApNj+v7GnOrCKTI5KmwNGmmn/weeT9t/8L//Txr/eZyFFJ731tp+reFmUlmJMlMGQqKgqEiff2bsHUe7kIkzI/v7XvQ+wiB5Opgoqv40AlaauNmcIMF+1Hg1vTaTj73E4bKgl3Bpu5impKCJizxOsceLsz9tC31vemmaoTSWsLZ0BcijKiwEgnWCoohFM83n47sPCX5fN3GRLHQTETUnSMMcUonKUFk6SaGAOcqmBEWXsXp/TuPYOV1Pbyuq5LNc8j1b6O6BINquh5GTMyRdIovq5i2pwDRcGpAOI/fAra2yVLWlOwGClqsdXaBJz62Ir58mkcnrH0o6iuhhQoxRawAEFdRLJC1EuglvXyos/+S/DLr4xFctSlmcrx2LdtJsDuzc1sPUpVoGoVUS6Zwdb1z+VCMdN8/PzSvv+LimoRClWISJ3cdtcqCpr0bW6pDpi5xEAr8dbD4px3QbLUF3eTAqE+q2CqXCoKOQb8MaSwvf21Z5kOra8iCtGqEq+apDbMhDBUZSrEU22XH/8uH9++/Px92AiKmpjuLy+PKagMLuvS3NXhXYaZxTZJlIlqt/cqeH8/l+gi89j29re/PB2EUdSUKWc25wsYOK151kzGLGEvEbdSng1pj4jmM61UvbXeJImEpchp7wCUc4g0qUNE437535YNOSzLuo4UaOdbtimLwjiOgyyqWznVKyxbwP7m/8rjVwkRUTFM3X4tWy6yHF8OGVMm1+Vp0YtyXYdagBpLput7B8ffz8V6z2NyWX78YBsraaeqQKVQinPPX0CB8NlklwYdopKRJqXmplBFJUrF23JpHBTRijSwEoq5NAZTLKOabK+3DTaGdagpsigizKJa2WKQ/YGiuKsgM+fQoNbbwz9NHeVGF2ty//I6brfl0tvjeSjn/nr/vEStiyn3mWKlViK6+J97n263m3TDpdsjSELUGpCigBQESLKIKhbXCe6sMLr5PxTUcr7/yqleNjNUCpJiRmGdl71g5AjsR3V92x8vryjlFBGSSAFqjwJJdZoBgLkBIhy768iGfegF8xBQdG2C+XLc/no7CtaXITLHh/3xNn7W23dL6IizF5WJ/u7E+04uT0+QgPHBc/Npgiioy1kIUFnkV8mKLTKEkTO6ODK/6r8EKEBJAhVD084mUqScdzgiNMnJ3KYupsR4UJwpmoCKFJEZEII5K9BKxISAOWOMltMyCdTMbgJrrcaRyw9PS8whB4JCXC7X2+OxHfnRVqsUO3XqzfAOr+298dJTEZnTeghUpCrE/GstIIiiiLmSdXSGV6KSYpXTzaDV2l5hKlUkM6aXn6DtNKi7ZMKSTLi/ppxPirrPtVlWQk9gPtSgqPPc6NOangZjmCkiMmBWanAtMWlz2+Ryq1TPlPLSszKqPT9+/Y0fmiHDXASq658cL71X+cIjGVMVyiyKkckyJEWtWOcLr8bSJiZtFs3JMjfUDiUL3ZkUMhSyuTMGAJorURDjnL1z26qsL+MYx/T29VM8QesQKrJkIYeKdkmoAbZeWg1dOlDiBWRqNdvvu1+WSNVhTQKiqII1X/PXN9bNZEj3Evjl8vuv9u+OFz8gHrOqpksrofXWKgxoKDQ3FgNAwhboohKcwlLEOKDH47EHz+2fl4I5ywKSB1sjzsZNZdYxqs3Pb7otfrXjbQ+zxgAEzCk2R6IhQ0VURVUgKADqJrDr81pxHEeSRM2x//ZFLtcTGm9AY1KYcKU+8/4Qu1ijQFi6LBZ/5j3AdYrFGDEFU7JQnmPJ4SaFBEWZwhRO6c93NoEc6ZlWqWw4ju1Ighmq9tUxR8sIuOnJ/BuhR9U4yvbXYdvKtmrse5VhryxDDvE5S6WILESJMJEB7SaVhmvrzHnsdzVtFfHr9mV+vLQwCTYNpLD0rK3B1fTxKvROEcmi+XvMoHf2u8dTJY2zKqA1BZ4+kLv3kBLAcjrUWcDOCek6bEKnyNswHkdlKhw5rKQJFqmogC9Xr6qEzIjGGbMyX+YCbHX72PaoGQ+bUsMlwgJFf3h+fbg9K9Egw0VNRa9Wd8YjmmoBL4+xL09dirPokJkqHDPEsbP7U6sHn40gU6b25R2VwO/nUpT2FReIKlKlKomATBMCsPOsIi5GgBBf7lStgu5f/RcmCnDO3g1h3tOtta41weJMhBtLDLqiPfVp399sSh7G6uCQIuF9FIOaUUUrZhUEJ4xmQems7UgVbYLYP2/L95+eMTzIwjxKBTnTdieGLbLuRVShqtLxHuvknf3ukd6AJY4sYSU1RQsEWQVkuKkoU0QltYOiHASEAbCqoErUWThqq9i6rplVPLNDFVVEqvrquDxfFw25dlmlGGnmnAWjLGZkZhaZKUJAIWLeeluuErnjmDDzbiZt//L95XItB5KomFNU6iAkBdVWPkVMq8BgYEF750P6/VzG/eK9pF1QqQRQAOWkCwKQquZNpWDgKddswtejBJFIisjZeiSquvbr7cO1hkTExMwsoArqyJRlLX2+3SRT+mrLjFKqWVaZqujFcyJOomicXU9kuJ09XzGDKaJutrZ99L//5486psSsxLEH1JC0BQHvqquPw0WYNfL9u6ff/7fj/nzJGWUrtEipgjoBA0UINamsZMFcJPP/Ze3NeiRLjnSxzxb3c05EZGYtXd0kh6MrPQwgPegP6P8DehAgSBcjjTB3OCSbTfZSVVmZGRFncbdFDyd5tQCTVd1kPBYSVcivLNzczb7Fsw41tr5/2TyF98g30qJynO5e3ep1Hj0CyNhRY86eIZpbGU+DO2SYpHczDwpPIlVFVO3u6d0tKQKU4YlG1axvwfOypWcWRtL46mqvT8XMvG3BaGZJhTPDNVEUTAXdB3KJMAO94Jf/Ai6LeUSkqI7NPN0dEiAg4QnhsGxCkerMkkzCSVq3bvvNhpBuKaVWldu713oxnjjNSDMLIUGgjpRKbavTpJkiYO8WkSA4IDoVhxRuI7oTjASxT7i8d3Ba8tI6kFBlCacjjgz31s0Cz4QIyXAvCnaI1+IOocERZi8ZV7xwvrS+KSlYhrDWMsxcKFmYwZEIZHByIgJWShXVLmN6BigiEox0lmEaBr25u2v37c3riyOFmk3kWxKjuHNlmqa7As5A923rZimFAeZax57DoJ4tkmLzQxKlc5L6ksHE0QwhXAatEtfL48BmvbfN3cP36krPLMEcoShjXcy1BIVh/WU+J+F9iWkUCGlhhqTt+ZtCCA+CB3MwIZOxKz+twjex2OPsGZEg1vFQJ+VyHE4HVQ3lDZlbGjhVglhlOL3hzjb3oWf6suahYmcfs6JWiaBcbfMIEKd4hDSnlpNsYWxEQ2Eu23I+3U2+LEYBIDxAoIBnxlbFSH1yhXcRTvfYXnLe+o/zA8pwylxCj1CiwHgYSjURKUWZIGQOsEczeDD2lO10izAHeYAB8lFoPFZh0WHSMKpSaslVheatL5ROWad6vBEZb06DVgJT20wqUVXmUsrAGGQ6HZQc9eaG1PYtq3ki3N171uk4MNP1Kt/cKFlvAYdkDyECIVJIJZJStLetDWP0Nq9oG/8SnbD3HMMuYUMNgrBICXFzECXvK1qspIHkgBvxogizHsiUPeETbCjZgka3SXtY4aTN+PapWV/CvRAXSrtuXEclVR81NrJrGKIMWgetBzIdKp1lvF3a4Hg8o+wdwHIP2SzjOIJw/pivX5FZ2zzACa3OeH5weqRKprWo49y3TGTjoMt/XC8v9KqQO/q4iU/HIZhEFKHeWhCRQZCITgSkJzUQkgtRRAZxpEiCkUplyEUI4qt1nWRpQnXKvHdvxHAx9k6L9UTDcZJaS0g1gcU4aRlvBrJAupTbW2rr+sjWs2gklXQnRaaMxxEdWJbDsViEeSZRgorAAY/MTJaq2aMzwTYlAtrL0Xwv1Av4MDaKsxOD9zxsIcCJ9h09J0mQu8MlWdPB5B7hmcHsIAaVU229yKyyXtsEh4gcb7yx7WwhRZXAuqy2zTwSnQ4F3lnD0bqg3B57623bEoVbtxzuVm9DNgshmDGBynQY1lIT9Tiird3ASISDFMk79cetlUqSTA0ZTpyZ4b/Qh8A79M30eKW4DKySyBQRtgQk3MAs5uHubgWFBASzvbcHZyQJ8zimGRKLw6IvuD0NpGKb9ShkYK2jRoQHlSHca9u5hplJi5j2dnOc+sPsGw2Yr0Z3b8rtubsb9oNdmMfDoTDXjctQom/dgxCZASaocJonRVhTZYLItBASmYD/Qt+t6EDR8OIuTOGU6QSWyBRWtQQJSNg9QOx7pG6CmJ9fAkm1pAXStDsTw8bbm+J9ntcWXMWISHK2tNYBOHSgHiTpFoQ1Nz1tFnLol+vVREglQt7cvf8RzNgj4EnqYRq0tt7AsdpiJNEzEwzeVzR7CrKvNCizkEoSUSbFC1v7l3GJwl0OsmxqDIYRJz9TWVjQeiDieaYJA7Ek79QkMFOGMTG6MxFbgsswHW7uZO7e27JBrZRA2HrtoJaJAHjlpMpESWwtWz3dZd+Gm9XW2ahUxoWn4e5p0Z6ZEDBIhMKpLZ2rPTWwYG2MTBZEuruFu4AQXQhs1l2EkpjwS3FxoyKKwplGEJByBiUYqMlgZkpK0SjSyANSgAgHMVUkwzu5kxNRKZl6evXq5jA9fByPMW+9ylJpDee2bC5ayTn7IkLsJBzM6Rzbh/Fd6fP4KrfZeu8sgq1Pr7xtRkxwQoRtyeQEQazClNasZmCPVg2LTCRYQERI34xVIlnoZeetF/ewAAM9BndPMFvqGF44hJgCGZASsXGxXboe4sxmQnAmSmeK2P9HwcM4vXpbDtdHH6auOgkNfc7uS+wMY7iTSpAoe8+i5ZAkyHa9O1aL8evTp6enjpq18fDKbAsHReGwhYTIuxMiKIGkAjbOCInWIzIBl2QpyiHsnsEw98LLS0mOL+s+A4hgluaRTAgCmIVFKMw9qDJMIp4n1NibNhJwiswMoUwwcxvKdBoF8+ynd8N5bUx9bhZrJAV4b3AAM4kAEb2kFmbidh5uaLs6vz096LWt1YLk8Gqz3JIzPZKRHb07U2byvohJpgS8bw3gTDCT1FqIyZrLID2cxvnFX/0zentkOAqiuyUj3AkJVQnz1AxRlGdC5W6Q5gEmQJ9fzJkAMhKqIDuT6as3b+etTb6ul4Xgu48cPz+xBbtrAmULHQdytPuwQ+sdPL7j95/WZS5Vj/XW2paxT8Xh6ebOTBmRhADt053s5qAAiNJsLIIkb12qAJDD9mJU2Of8pSiCiUSst2mPoHHe81lFo4P2jWDs+cchCSYi5gx340gQEEGno/gKKfX0+mRPKx8/PWzLUkTCM5MpPYlATBkdgIhFI4LPcl4vN9OAZbk9vd6ui6d5DMNpO3NyJgfgGyyRmQy4E5woADdHkMY+eOcwiALeWlQhDa0YX7jtfkbfuOdCZ0IG7m1UNXcwIRAQUnckETKpEBMRYadjs1BGBknZ/QZUTydyCtG3N0NrV6PH+w+e4J0EQjsvjRPQSDdiLoiE9+6TbZvtUz8axnFdS4RduBQCJYM5svWIFAZYKANpTCbMlPu9dxfoZlqHqC2bjDWYB/Ljh19cL7RvmDNVJNyKFjMiJksUAbjsk2imQvvSNXeCLRETWA9TJU/oNB5GdiJiZljbrg/v5xYyqO2CEQT2GkMSE2WmUwXM4gZI676RiqbU4eCepaYVRBKIdq5cBiERJMIcEYZQUmSY7yS3iGCyxQfetqxT2cCqnwmifolfF/u8BZwC6r2VQbsEIpIj92aVCQIzP/9WyfvEM9IdWlSRUFXlTEpLvXBvl/c/fpx7Cang2MnYScJMAcR+xhCkprduU7JY86iDSs+UrM5IUXoO7chEZiYJsK98kZkWYkyeRLQn15Cq7OygNYZRMkhF8vJL/VTd+04iZ1Cy9N5TSHtvpGXrUIqg/QQRp8yMffYKyiAQuBQVohSBG4QyOGM5X55++niWYGF28QhiRkIElEQAMSVSZVeqXbcbXeZWhrti520L4s4F2rk3owDvF+ydacwgDmQiYr/2JRMyDCwq2UFKW5NSIoKZlV8c1734PdrWoE7qyZms0bONVERAcBHPcLZCIcUCiExAdlU84BZCdRxJ2Jnhy9SgRGLnp8fz4oqKjC6kjZGAQgjEHsysQCbYLAQ2f5xu8FhoGKmvaI1ciNg8zkszKpbhSSIM3w0HnTKTOAkZiYQaMSEagXNTblmYwoJ1qEt7MYj6JVy6EQUFpSdDSm+DJXFlRlBhSs6RyTlDPBOUlDvVZqfUSSkK9kR2mFGhQsvT8njezJyJdxK3ciZBwIn0QCYYwUzWQoQQD8UHXCX94DP18L0v53lJepZDBIgoEkmcGfAAQ+Bg3wm1DO+hBO+rujwbVZHUS7v+Ulw8mEOdM5KSa9uOmygLA8TqphIADYP0wH5fSfZdKULEvBtLBZjC4UJEW5+367ZLPznBcDEPFuxPvAgmECPAYQYBSNd7/MPtw9m3Yw+OtXtmOMWWagHWnYLD/OwoEAaHFJJ96k6K3JWTxkzRASELApVS6/Zim34RlwcnISbZn8uVex8QlsJSmDbjmkhS79F2f/pdBEUJgkgpAwc/y9R4UIn1utpeB05AshIvlslIUyQyWQQ7McYc8CBRik/Tb042+7UNNWd4RgQDrAiKFAQHiDTgJumBJFYWl52AScgMYgMRI0IClElSB8nz+RfjgjmUQWAiCi71ej2mQcE8MNyYo0TyKcwykzIiZecMUXCZxkF3UiYJTzdodl6d3ZJJx56RRJwbKeBBQQliCDHt/qlAOpWCsc3fyW+mTxcn9Nh2pQmIwAIV3i/L2P80KDmZtDDxTrcOZiaC+2bp4SnJQLKq5Pz0cs79i7g8LSf1/WYuwtN6/XQ7IluwE+kgRGbOVGqx2Lezz9yxDEquA3tSJmuRO316XK6uluBswO7zkDk4SDjBnAGGBACWPWKAiCOJ8ElOb8dtG2JrIULs6bTL0FgNew/0iNyFUamHSglhQraNai1C0bdlWT3gRMKQQoL5/Dfk2VzPR27sIoAQxtPjo3CRjM4QHuFYewj31EzK2BUtAaGMVEihTCav06jl8uMny5JBymapoyUcyYctpXDPKt4ClLtuCxIEIrhxl6E/fSfTiQXsjr0SokLUYfuFmZgI+72HiA6vD3AiFvKtxVBFOHos13mNtLSsMgzJWF6+vryMi81Ooc5Cgch6069rHF4PgT19xSITFN1AtGdxZ6Sx8v50GDNDE3Ua9Omn9xtXtUMKkGVkjsxg7qVU9qSBe08glIhhoLKnF3NGHWL+6fjbkxhVn3eLv0zIUZs32291yQIIIpJIp7tbMiQUNloUSeIUKsNha21dnCDD0IK25W/IJ/nT/yA5uHhUoc3LUcb5EoNqMARbRqQI5tXDgwj6TLkDCEnjQTs7RMfSru/vTRjOAtFjZqZmkqfTOAlliQHIeauK7CMFXKQ7BC7kWp3fT18fZ0Y5tK6UCMlRj5eLBGXs98ggySDWMt0Mg2aypea8JRU2kNBAQ9j6mJmoyVHtM8fuZ97TH+fas7nsS0a9YbnmoiNTOjLCw1qurXfbC5x2l1XO3NmkMvAw4vzpcl1JhERNtRa4e5FYN6c6HItKMzhyLAWdRzFmCDwDyARSarT78nZoUcQjAxnEdQhvTh2ktDsf7/1rurutySV53WggaiAReAAi6DlBfMjepuP7j5/JuH8Zlw/nr50odhi6D3d1CmXAvaen9zC3be22p8QSee7hzhxUCoyVxJ8+Ps1BRSUBFWSKgkU6MsDToY6T28Lt6R4lNxvF9jwASgecMrm09jHrHYOtgBBhfgVneAtOVlgiGR4gOB1ua0KG1ZmChqFHM4iYO4sOXbhLkB/s/PQ35SossyZEktIio5PKYZfNBzIyurnb2pN38g+z096MJEH7ZbOff7yCmIkkk0sZp6JawLSRWJCwaBUGt9uTybo9aM2MIlnF3K0LiEC0PNxONdJUyDrcIxxaNYgoIgDNCAiFNZPSmtvlgqEgYrmcL/n6KwpLZdGomTQg5x+fPhPO/TIuP112KywXBDFhJZbCbuvOZ+hm4bHTyXM326OMYLCQdy2iy3LdXEBCXKpWLodj4cNJCNvt+bwYJaKV4Xbi9alhscW3cYQSVfW2LMRFEFTCHk7vhpVFeOkiTtaEccYBMwAAIABJREFUBF6UmoskRYKIkmO7Rnc69y2o2vk6Pz09xlZOQPIQzSiTlPT+ff/bcjg+XKsZkSl7EphISqEkM0em92gBIDthz08WYs8MMIttNJT++OgFFimq9XSaynA6lXJ3F27rq8f7h6ceaS6h01TiyWod3Q7vuF9DxkAXLUXdwYd2P7w62qpCgFSGsnLRHkRMVbxjZ5gJ93Nj1jXLOMT5YzQajls7qxLrkNvzDePw7dPngi0/g8v797/VRgiSmpSxU+Gtpxsyets8mSldn6+dSUAiUjhbq609fTzrUIItZbp586rKq6/uajlM1tt2GpnKxd2do67p1x/vt+8fp8OvfsPzx2vKs/4xkyhqXx8eJlHNIEouyCAQE5KYC2Xucd/kSCtFRWI69cdzniSsL1Eykd6ZhRWljLFc578Nl+vDPzAykVQ40ifvloRsqxFl32YSBJMQkEyBwJ5wRMHNvS1XZ4CVRKdX7351R69fvx1Iika4Xav30/25dQNpofn7f/5Ts/yHt//pV3Stn7boAVbJSM40Gf3+eHtED6IIYg8klRoZ+/TSTZQzLEjKQF5lwnUbbw6jWLSWDvPFtPdEatGn+8/FT38Ol+2y3K2NEMQOzh69W2Zu1y6KSEEGA5ySCesMRY+inN63i8Vms0lyKt++e/fm7qs3vy4VAaIsQ94ey+Hjsti4rsLKH//zP58jb8b//lej8hzXTZGFO2kmPI3y6eN4wmbW3CgKAVRs50cjHYUg2XrTm5P0IM2tYzjdsCcddOmBSrSt3dKMyvbQ6svXus/i8vHhRrSXfWKIxfvWzSO6WxfKPYz0OdA8MhLkSGLXor66bS0imcrp7devX7/91ZtRAGRSG+ByI5V7XoKC1aM9PJrQ9NXbQyxLWg8QESMpM9GI7fLpzSsn98Q+1duNaXYDKgZADDXscxzlaM3Tt7Se1LcWRai3nmHE2r//YJ+B5bP5JB8/fp0o5F2tR2zp3d0dgEOZaN9lJiGQEYSgfVlexxo9Agxm1sPbb765++qb1yOwbxAOCQINp/GmixWdKIYxtzApd6Ovcw8zB4gclOHuSRF5+UnG5lk8KRkR5rGr/iOxj/6lKKVnguA9leMxPEUckVyypYRmHev5T/d/c57w9umiMXjvaFsPf5ZaBQUoQwK71jaBjGQCQ/awHSE3J82E6OHt1+9eHY43gzPl86CTgojgOvbmJVq5uSnWvTgtuc3ZezcjTnAmwk1gpO1DvmYaYEQplO697WXyfN478zRpdhIEOZT9PIN4P6wp3JmDyjDxjz9t9W/FJe4//UO32pa2tiTZFR3pHqyxpybsBSOxbxoJAUvyDrckS1AZ7969eX16FkXu+6gAG7EEIWUgW+bK0mdLHUf0vmzbslnn4hpuiNBdXbJcy7FS5MBJQQzvwG61xpRJmVIP6ijq0S04lmsn1Q6QCJklp4ZqvX776fMB95/N+fn0038znktmJohGEVWl7G0Bb7YLSolAoujgzEhiT6gbIkAGlvH0+uu7m6McKoL2uVUSU0kLuV15GNznrqOmRZ2+/vpV8vl88QgaySJaMlFkAGTreajK5qKIneCRyUKRtNsRJ0uhoORo7klhZkS6/2uVwGlEIvHDd595G31RvSx/+fiqGlVRJ6paay2U1s+rd+x2tiSkOooleW8OIJOwk9qYdTidTrdvX9/qoSBk/xUoXBirl9NTqYcmy1g4WKhMb18fA1O25KqDRItFoqdngoltWapoMwmESwIUGYx85jg+i/oz3DKCKXlAEBeQJhNrRmQZdP7jg+Fzx+5ncXH58Jeb46yclZS91FoYMQRyJZbMPY9kKIcamX23DiHaNwKgKjpMg8qrt3eEpL8qUBMKF/E2b1aF4RnzpRMgoybKNGjoMFTJKcrSsbl7JEFrt0BEGIVn7MdtEhGDgzRJM5PIzcpO9ZOxZWSSszcBPFAn+fD9hs88jr4AF2T84fgbgCppcYZgE3YeT2ZMKRwQneqkJ2bhqz5ZIzYhhCWJ1Cq1qpSvX6ntLjv738mZkoRtabRRdMmcG8SaZL+IL0tXrtrpOFBbrh9neDqBx7ClSEmHgcwCSGYkI4VYBurhc5JmH12pdyPWQunM4Ww6RAOjtD99vL4k4PtSXMQ//rmOyqI6UOcMJbcaSSoU0EoyHIYRLGNl6aoZuy1/BkVa0SLl9usDPP8r3Q173ad1Sz006yhb1lGjQ08T1nbdug3ZSxluCtpjf1oFQYzIPotKEmfsm0rF3gdCCQ5PB1OkkAABIaiqdZDtlA5Kgv34rw8xvMTE/EJcus5/rl+fKlRYld0pAbh5EIPKVMo4qYYOt0PqWTQ7mAmB5ERCtBy++u0Ywfz/Jm5RgiXDSCl4UNmmO/Oh4fYm3L3ebJoYBkUZgi/3M8CsHhTtWidWzl2AoDsNKVIIYdgTPJ0ElNjpFbUaZQYSLJwRvP3lO3+R+PKluACYP4wSPKRRCSYLYfh6nRvpNI1ahkLMZTiq2c5mZqF0IlLhMgyHN29PgHAG/T9fa6KM66eHBwINCT4QY4vqUgHqax6PN8ol+wCi4dWryxWUQKikbbUoiDl2JmpmpmdlZBDBETGwYp+Gg9J3WrOnMCeB9Kc/LhovR3J/IS7Gcf6UY0xKjFWKB3XeLudVj4dXVSMAUipKYQaA9k1akpY6yOl2uHt3J2DeVUvPBy8l4f4P76/8WhBLPwzj+uC+ju+O3ZanC311WzM3r4epGr89f1qTzRPCma2N7EkS3TwlUzQ5hAjJERHdTNU0E6y17Oaju8Upubdj/v6/NKbPvhq/qF445g/r6GOOycKA23VrS6+3726roG2QOoTkhra0yCBKikwircPx7kZvvnpdgAhiPPsAZ5Jr3v/+E78V9rbiUGNrEVR+9VqXx0/06386bouTD9OojHr+eDH32KkOvfn+JvJuTgIR3s0jgNyfS8JFRZWJWHdDeO4kEp6sj9/dZ/zHLmQ/Cxc4Lq2grKfjqzG3bZ0vl+Dx9t1Xxy1cKqlIwtZsj5e1RWT4Tm+Wchxrff3uFsEJpuC9YAgA1ocric9MvQlknQqhTm+nvl6346/fyaCdFinClHJ681ODO4cBQW0tme69mxszg5hi9eBAOpjSGpRLLcK9TaBM5UQiwpn7tz8Ssf596iUhsfWncWu93vn1PJ9bx3R8dTtQts5K2Yoje26Xy9pAHgoi2md4dHjzprSoRBSh//V80Xx6xBgrhtqipIfTyHl6W5YV41iwCUzHaRKCQ49DpgShA0l9G4hiJ9yDgRAAGbkLXeDesmtbmHUcXCWiSE+EdS9y/eNH7vVLauELfsY1Q7J7nrcaQ39qlScc7g6D2PWqI1GWpQ812ZcHC2FhEiauU831lu7+YYyaGYxdLbrn4KUvfQ/LYmp+pODTIHj7bts2vxvluiEtB0ppIOc8GMdDI05CbJzD4MuWA1/gKDmjSAbALH6gbrSxI3nRYTwNlXjzxKnMxC73f3GM9PT3wQVwcB2ZCy0Yo9BQOIYhrC2P21gRzYZhLNbW7mARSiKu03GSJKO3t4BD2Pd2lIBTFr//aYWnwB2FRU53nWX81atxa1mPpceamhc7vkL3JD0uMYjDhAhpHbl76EuLZ9Z9OOs4ck2m9TK3nrDwDu5aCkdyC+Yctj8/dXrBLPRn4kKIKKfjYch1m8ajlymjULT1/gqqmc7HeiBfnuYQYuJAl3o8FsoJ5c1gsktgEamZCjP0+bs/L6Ai5D2FIIcBJMff3I1rlXHA1C7rwd9f3tSyuKIMmih978XpLTIjOCM99oDYljJMd7fDeGG9HuYnj1gl2J5YxkOlFO+Ta/3w+3OS/N1w6UIR9dWJfAP04BEinGzLQkPpIVpZ0tbHx5WVQSBAx1G5DmN5fQtnRkDjstDNwEnaL4+XHy6595LuHkRbsdTjrYYedLi9PQCNff5U11yDUIabLYfu4rsDr3fOgMMTCKaIy3g8HE53Y0lw8FB6z7peowdxUKoQwtrr/uNPVqR8STv6wu+R5ObHm43GUlSzdQxwNjtMRzSeBo5t2c6Pc9RCO99PyzDIeODb395AMgHC+uHevv71aMz2/v11KZGqSm69ZeYjewx3N5YpdahpW0rHOGmYISEn3K9TLun7WIyCEtkRvKd/Rp0Ox3FUzsmtlji2hnV5WLcOZMthgBLL4S+/u5KwvP+74YJAW3OUPh21O0hzKu5zHW6ntg5HbvO6rPPZdi8/MAvTcCtSyptvakjCd+nMhY6DYvn0uM2hPUslIIgg2SxxePeuhm8uGduC0vPIUxgDyYNTjJzhiGQALJHRd5+ZBMlhqGWcBqaDbxDkZmjzMC/X9IjOVWtW4I9/7Lvm4e+GC8EfP76ZJEWTUyjKkNs41bF2ZrPrfJm9t+AwgJK4IMuxBJW7EUkMTQLxgAM7Pfz4ad5aMlPumhShGh4tD2++OszWntbhOM+LrznejsQTECWjlgYhymczX2IJC9JR+5ZVB+U90znAVMhNTPWGIN570jBOgxf5/t8e8WzD+PfCJSSefvhmzLYkaTpLi1hlIk5rHsu8XppG4jkONtNyMyATFZAgY0K//2E9fPM6v//jveNp41q9N4nkXcrki9fDoXeq9x/WXi5P3pOOh6ZDuEuhm2VZeo+MnbrJIN5vtu6JQszRN6HcyBHcKsP5kCbGmnK4qWqef/iLieiXHbtfiAuA/u2vvwY9xrFDu9McNeapzVu/tuvc3RqDJSPBIGfM969v4acQOEEogH/5n//pf3olP/zLn5P7qmil+ipDOmsSxSHi5rf+tB358cfl8naA59qnIt6rNx6Gu/O4bukgogghSzdN4gwaHFElgWUrJJm88cAyAn24tTlLrWMtl3L407+fOSPKi7KAn42LYr2/DhwrCQx7KoZfjWJbt60BwcRgDweY0BjzwkcfJ4YggpMl5O2vyuXb9xnXrRCZKUMlI0BWT7dlOL2SOXT47fr9v2+/PWLO5fs+VdLo1qEnnh7QmmF3Akm3ZN6ylmruK0s0pyYDRYZyBUiS1JiijoVMp+V33/kY8vlJ3c/CJTT7x/Mx2GdFMHoi0tZZqDfLrLwr43aqFGfAL/dfn/R5ssBA8v/47reKT39+r37OxhIbsnAiurLxTTH56s5SqH7dtuXh5qZIu8RBpDGPvkBf1dju5rTMcCoePUQo3IrCnbulCpGeKjH5FqoQECko6khuE3//rw8MFv70d8UFAbncvxPty5oJ6s1B2VekxV/1CWEJKKVIgtg//VCmdllvEAzA6e1rnu+//XiOdRtVqcbG4obeidxjudDtuLFm07t/vJlzPVSYnQ+1cCmh7q7E1UpLRiaFBxgunJsDWrbF6yAU2zAcS8ZKWmQXAJFKQoYP/+UH6N4B/564JKzMP/3j0TM3o6Ccu+4Xtp0TFM86kFIQSRwkfP1++IYenl5LIiILcP8tHj9seV48b/tKVeBo+0ah0DLLpGjZG9vN8WLdU+Mhb15lz6qv/HqlaT3X3S8ESUTeKYnCXbVQJEX37F2GOFVNtygMOE0FFmWwb/915tChfuHX6EtxmRzhD+epJTjBTGOttgkxhwUo3dJJah012tyFiLnfH6fT/PDuRuDFPPz+u0NEkQCajRJeaBeBEER5WaUSZkWSs9Y0UcVCD6eJKwlZMjI5i7tFRrB461r2JxfxOFFuq7klGvVpGjnh4b3XqgHo9Lt/+YHZ+cWI8l+CyzJK4PrhtWRUpkKmOkRDZyFQkXZ5asnjzZsD+/zTQ7DAfX7Pv6EPd3UEGYH6wqW4E1G3eZjImlAKOQBCXi8yUestSYQDPYTGYbt8nN4cydpsgVybrIHEsycGkQ6cyUTl5tXh1B8ubTtH88tWD3e1RN+lhOaG+PQvv+8Dk3h+WTf68npJNl5++u9ex5MUHv2KcRT4JVLKNJZNOmh49fb1iX1uSzoc7g8oUu7eCGtQKFbmemq1tsbbXE9kpqRsEZEZyyoTW3ahomwefQVJ0PyRdVS/RvZkcjMPKBGHp2gduiclpq9uXt21sfn2aX5cya1fQbYFETG8O+K7359L5PBSsM//7/Mls3EANgSI7Ou3kRLVcxiLFtUQqcfb42AUosdv7t5MytSNRNxB/Rw8MKpACTT/eMZoy+bzk3NqJQdrbz0IpvXHPx7+sczNyLn3XIKAvqySsyWqkJ0fn9atzX1XuCE8uGq4aZbp7asbrSmncRpZp9ORwzzMtFIqzbLo/f/6f62CoSg+y+/46+dL+xEx0pfvf30AaCPRPU5xDMhYhJm14nScGJk03IxLINO7fSTSmykOSr48XC4rmAWRsWnvzEzM7p5J6Z0G2lpHeocWiJC7J7XN+rJOvj4+NXT7q9D6r4JIDxcqWngjxdb4BDHKZZm3qKWW6GsLKnj47hyaxPSihccvwgUJiv7+8Ya2aCK0D/eLEgsyIkhkVE4366g6+DJ3COwT6Zj9zVBxuZ/dnwYDidgGkduBRdk8EkO0OSfeGjNsJpkGlejNmdu2LefLMW1ZQb0BCCewsxAcmenklOl+heSWY5mSjbbSGhdm+AzGzfrnH61yZJp9wcb+5+FyGZIQ3//+7dhA1lpRJmZhSgsmD5KqsTF5az3pyIdxXTfP7X6a0lu5tfNDHwjeUmt1nx2iBIY3EDFs9nHIiWzrC4nqMGx9w5ClbkvGJZK0ZAsiZFBQsMIdxOFIa1vJrSkt23SqikZbbT22UMw9lNuP/76AE4gXnU1+GS4oFuHxh3/8B866WtsqORUWBYggqXU8CHXyvhlxLePYtuu2tPljTZvpFh8e2qAMiBCDrc1n5UDMM1O6+mJlHMSe1rZBx5qIZjytZUIozIKFkiSfDY/hXKQn57PBTVoLa5ftwjc1QmG5nJeVxDhMH373R4MRC/vLmqNfhAsAgD/96U3tQZnp3lC5VBVOwHk8Hoj2oEXhSq4jbtfl43n5KbJhKOtlEwKLePMgZT/bcjjEZRHJA/rKg05HSJ+pYxW2Ze6kSiIYqrqh8HMWOZAJSyriCRZI9nksQ2bW9XKqbL0MI1fvW4LFhd9/e6kBKRxfNnoB8MX9CGgKkFm8eUfuJKrMxAFWUUKsPIwSCQ9zEi2wKNM4HShs8art0vzp7GFk88Nji2TJbVnXvi7NTWqdfyj/7Q20AGtz4rT1OhugVOs06jAMhdJ6d/MICAcRwt3Bo1ahBJciRYOGEltz2h0JuI5SJvzuX9fCMo1o7Yvb9M+oF42Iwt//4Wv4UCNJ0loQsXA4AwTvRJnJrNSEECGKYeptvt6AeVzvl9MEm2djXfYZzWKKIOl9a3K6w9UrDcPQKLtlswwo6ZBuIuythfsulyZQIVuB5FpIEe3cb+64l9vK2br1SFjWMD10qQ8fPpFRGeoSX7BP++vni+sFGKhz2nbzK1qJVqfBmtZxKMKSjDDvs0sRgbuyCDOTmbm7Wx3K+vTURKLNzUO6RTrIrTs3nV75Q7+74xZL73Z57EO4ZGBLSxmnSobwdW6Bbed1cxnZtPQst+OoKTWFzaK7C8FTCl0vxqUWreL/+Z9XON0eYvmM5Oj/WwVf/JNthCaV5ftvbrRBQajc3ImChCM8Y3cqB0CWwswIczCbbcvQrRn3hkwW9kIBTWb0bRuPpzGb16GdOQsvrXeqYonYY4s9EuZm4WmJZ9Osllyc+XRU1rGI+dw1zFWU+VkASyQcSY/fL8Eyjbw+/AxYfs65ayoddfn2q38q1guUhN0WyQg+KIOEsxbqZjsB41khVAdr11rUlpUYAxmEfNf9JSsidZqmZik8P2QW6c22OI1BBDEXaUiL2NbWPH130CFCAJE63JwohqFE69G31eW1ZHcpbMRwNyk1/vjHJw49lPjyXvQzcZlvxYPy0x9ef8VeiZ2k9DkaLJvUQqxU2dpmyWW3FkrWqUqu27I1jzDvk6abB2kGcz2Mkn0oDARjO88WRdJYYM5g3VN2e3hkW1sPyt0/GtmUey+Hm8ORohQNKHBtdBg0ZhtIDZJhTnf1w7+dUazWWH5WufysPr2MZTPxv7y+gTCTESf53DUDQ2EQM3yd1+AiydRdmEqBmG3bumWiLb0XjmZQkqzD6eYm+8ZDQVsy27wZkolGJbgGSi+ihcN2W/kMIgcJEClEiGTRUsCAiHKsZXyl7JS2tebPzIH5//h9o5SK9Ytvuj8flz6qudr5T9/8uiRJ9JZcrKOoDscpIx2+rhuUiYR9o1ILE522Ht6ZhGLLwtFDixINN69OY27dbNTH81AR5pyZXJU60kmodGaEtQiXErvlEjEisQmLMmWSsmUGhdNhGiKpUDosCZCiN9/9b/dZcsK6fcmy/hfigvNNaUz48Pvb191DoilrcxYtKoq+tcHMkpBBSbkhB1HkdOjMO/fZmnF0KbUUHu5uCxTTdi3tp/kw7slntPvjYTfHs0yNcDMQ7b5lu7fA2rUM46FyGot06xwtqnQ4KbsTMRI0jO3ffgCLVN+++MH4S3CBVaeU7S9vToilFAYlOTORb0IRvoUlCNgQsE5lA9IScOvYDZGcopfc/QBjremjBj3cx1CDhQK7MMWlc25sufuEpxPMU/k5gjeVydsEO8CtqpupGxAroxTdxWIeVMZ//t9nphi2+nOuur8AlyU5JOT+/zz8J85sXEuqJZB9ZXZzb6sB2ZP6kklLEPvsNX2tPJ87M6F34gwJKnFW47pOb+TbpzaOWYRFOQLPwbpoKekd3YI6EsJOjCBiTs5gW0rXgZyCeaatMnWrQ0lCFnaLw/TT//KDFYiTfQnV8G/ABUhizrj/3fQ1WawaRJRAB5XK/3d757YkV3KV4X8dMvfeVX3QacZjglNAEMEN78Brc2PAgcEcjcHGY3tmkMczGmmkVneru6r2zlwHLrZsggAbqdUyF/T3CF9VZWZlrvWvNaA53VIzkdCCcAeXaZ+dzI1VlCkpbZFiHaZiwkc1nWtEHUwF7plBlOEOIKN778HsUV7X8OaaMpkI79UoSWK9/w5oI2WDpNpeA6++8+97hGpiWd70XveGXuaJKJP6F5McZWJJCWRShjgp00yS3i0BpGegdNHRUQbq6YBbJRIPS1fYklQH+IUfdxq26OHOQTYnDFg7FvvaSQRmp5JLliQAIkQWtNZ7JIWnJ0SIuA6VmhEWIuP2gx++1JrCFv9LyNa7e1nHTWdZPpc/OEosKFiLiDOSmSyTYL/oRwqQ+cQH6BThwRLNiCMy1OoQlsQqeei2R92IzfveQ3IO9kBasrAT0brCEDPEQUScLKkEEKwxsTkg0ogZNA3cF+fgfWyHT//h6wgFwP62q8vbezlsC8x67p6djMUQycxBzpydhTQ8hSXFwy2VFSTRbOjdLFgjBZGZkbyWPtjilLIc2jCSu2U/cImMjHRPzrVhiTLTSInHFiTrf9Oamg63rmEgGXNe2/ty6Ubplh88+PjbT7wmagZ+zdya2/KCJsokllc/n35rM1MSg4lIyftaKkW65vBmuJsS+ewlPD3AIkQRlDDQzMocYKqb/UFOh25hy36fYyF4RAIBXqfZZxJ4HXxNazScjhzRPCNMkEzJUseCDLfOEtDNvSd/+2nD0Ln6Em+7Sd/ES2cjVvb9U8oPhTJBCSXldCACSRLmAVBaa2izE3PJ3h3KJIjuEelgL8olpzKV/Xx8nIdlv5vnFC6agUhY8zVNMYmw3nmuZ7qUMh5J+GwWaRyQspBOlXtwWozFS9Ynf/7dg9aDeIfHmz7Wv4sXmJUBahaP5z/+3bXxM4GgTF8b7sRBGWHOCdtHUUhmaQ6VKtSpRbL7ggiyPN5syty3Ms92OPRpuylVCeZuO7MsBCSITSJKBkdEgKRuNhI9EAQ3ECOFBdazUqIMSeXpt763G8dr2ZqT32B5uYEXZ7YUJvKzT+hRNWOJrNIpky2QBikOiwhvy5gRye7NX+duJBcq88KWTKExstJyOU9Z2uL19PTkSKSSdesH6mlgXuO6G4uHiYd7aN0+GpGzM2gGfBxTW4H3mdWmYB7t+V/+0yVTS+WMdXt8/14QLirJ1O3y8/bwRDyQzoUymqw9RhThAWQsRWNxgTULMEsVo1KSLVmUM4Lg/XCxfzD1xpN8eHI0gdjbYEtOh05YAw2RgHv4OracpUBrkjN1IUZCPLNHd0RBcR8uv/2vr0KCNjlndH77VfdGXrAU4pruvnsyzzhNMICKJhlr3kiKrYVwvXEgM5fur4drkgiBbGEdOHkY3XJ3sUjucxz4oY4lIt2qkvfdPtJpjaEmdkusx0StA3Hh7AQvrMnrHENL4rIx25y8+sd/fDrkGJ61Id787fVdvaB3PJQQwvJsd/jmUVUSyWiFwyyEf/EWCOeDjZWzt3W0CDqtyTg1ocrQ7VTGcn2Je9zHelQlyc1sWaxSnQYK5PrAGJDeQBEWzHWciiiJtoRISUr39fNQmWN8sP/Ot74GS1FPw1tcdb+7FwBnuF/TbZ6Xqw/vb46IhYXSIzIc63irAOm+qkQ3I+YkFRFmWATVWgdGGTe1Lk9fffiNB7NiHANprbe5tW2tObCv/xITlmqdiBBBPExjHYagTC4OB2VaMlhYLIeT8+9+63OSA2epy4wbbNHv5AU4xwc9FLve++kwaSna+0Il3LK35slJ8BBuZkQiIFZVChAhuA7TSFAdmHYv5rGe1M7Z1a211lp35SJljSFFrqNUkWvcqtRBhcUteBz7oYMzFhRlZZnu9xd/852XqNw2I7zfWMs7eAGe3xdwWy5zF066peAB8O7uS3diJeZhq4eFhsJIKoWZRInIaZzGqqxgxG4XRWViVUS3vk7PbBRBCkS+LtiLNR6Dg6QoR8MyYxip8y7ZPVjHYdBhqz/9h79/UQfIvUEXu9EO/e5ecH7aAfSLKxONUKuDGZFnunVRYVEZEVSGIcwJxF5LBTHFWEVKLWKHq68vhw9OSFMnfuUeAYDYG9b8wiAkrSnZyZIcScLIeVms1G3WzKDFRKfNMAwb+tGf/WCRdmTL5yd3AAAJAklEQVRyMs+z9xt/Xd7NCy7vtVT06xYskLpmQdq8X1IFLnUYeMky1bHTICychE7MzF3LMI7cR3369fzRNyfhAd4juvnSkwYi+NJoHixGM0ynFHzlwc5alTz3IV63zoWlzDYcc9XxAz3/3l/9oE+HMYcRelje4pn+lr3g4iGFCLVn7eWHD+9FWLPerCiXkhY8lvSUogLmInARdk8q2TqGgamIv3xeH24OqJ7LDoe+FqCOCPfeOkWIhI7H9ydcnh2urehQJZY00qHYbFHvd/RaVTaP+Pt/+3dnPuo4avVL5zctAXofXjBQB+C73dX1Ai7dk7gUrtsJh6tZKVCnQaloshIPHOakCuWYTWvY+ePnp6f9wqYeu/PBU5VDRTNsab1rJBHXk0cPN1H4Vd8HpEi05OFYI/pinPboqM086eN//uvHhqpZRuZdHN7i0fU9eHnyTbbmgjh81SK2wmWIQNbjk7KL5hGlDgooe0Sp6p2Vi+aYvpOxcPvyq/lh3VkcLOceVMYNPDLCWvdIF6TT9v6DbYmNS89wA4XxtBnTnJhyyk1Z7uHyX7738QXrIFRqtcWvb3huuS0vCDU3SPHrjuWjkyMpQuKkdSOHRhllKplEqh4gTi5MTEMaM8LHfP7Sy1GxviDzeAnSyt57uHmScAhHHzbHI/PIRAfbdY/oXRO9NXiUoO0Gu8tPv//DLzEClVnF2uXbPS6+Dy/PPnh9BYPlbEkalEsdeod78ODhCUoy4sLmhiRBgrxHZXdrr15c1c2Uw9DgNHRCX+R1hxAxEZgjZajZteahTPvZiBzO3qNBkyTkoZx99s//8jMTIjoqpuTz8s5a3t0Lnh+LMiI12+VXsNNTCBUS9bkFa1qjTEtAJawFmDKsO4OY7PDklRXtcbypZr0Tox+UmUhUjUVATFoEC/PYukzjHBpLoUyAhgGxjOPuxz/80SfXUTJlpDRm//WJ5r8pL7jCQyLPSMQ59vc/cpRJh41F91rDOrmLpnEhWI+i8D6IH7CJ67PPXnXuPlKpi0TXjHQUMCjdVBWAFEV0Ceuh03ZJtkMMlqJRR9uDfvLpPz15GWVgSq0D9aX5Wz65/o/cghfg7MNkyUTEi93Ls99+dHb//oO62/O9o0D3vWMiD+8qsyUzQMGEemS7Z3sd2foWC/E0ZetLM21SVaqQXaQTi7LHqDknW+pmrpIuPISPxdv52cuffHyFUtNRalFc2z7fbSN6za14wde4n0xE3q9fXe7Ptg/+6Bs29+HB8WEGSfYAhXUFXtfdVmWq+vL8fN91kxdZNhGbaZDDft8zzYZCyPV+l9K6McBpLUrdVOEyFDdlnZ99+m9fXMRkMQxouqVD992NbqH+O7fjBTjHgwhuzjGfx37e3H+I0KNxHYzrDs1OVZaIhApLqdg9efzFy2Yi1092VLUTYZAa3D39YGZLCxo4o8My03uAIVuB1eONM5bD8y8//uzrBUWFJk6RsHY13fzk/195izqy/4WDtoz1zl435fiUclA7vOqliooSca2QhAprPd7w+Scf//uz8xQuE7dSJ83ebTe7NwO5tXmeZ0vOzNQqFBbMPaUU3ZyoHtnZ0x9//9MXpmlgHSMlD3ujW1hxV27r+wLgGpO4W6JC0rx8Y9x7auHgTc0ow0j7PaZtAZf9/PTHn11ZI2TIo0etP8FHMffokdFdSlhz94wuA6fbjgYug1L6IAYZymT7n/3sq2cLE6BFuQm1bn6Dd6JfxS16AQ6oJCTRdnh2//7paZ21ZwsdKrMCCB+OT2Q5LM8f/+TpnkoRNGP+7eGnT62UfY4DeXdn6m1Zx3DVSamDfRbJoCnHCuIprj//5EeP53BIGdI7p9LScSsL7mtu1QvQMCrade0/3waUBnW0kOloGv1yZ4sUXNvu/PL8sy+9Emu2xduXv/87py9f5JHw4d5JsT7HEt4kO1S3o9DItYgU7pSjlGm6/OrZ54+fvbgqhVikoHeLJd8kBOgtuGUvwAzcq17615h9OJYxkrjUaePLPO/dXh2Wdvlyb0cuBX2eZ8mnj+X4+OmnJx9tUh7UF76bHdEku4zj8URMMvCm+P4wz3K0uWg/++L5FxdLjNI5Brb0jHe4gPoV3LoXABf447ArunwyPUiCnGxbO4+8nO15lsO8LTYfTKaJ9q11HeryMf2Ok18M4xByOlVctTAzQY5H07EOyieShxdfPjukNdu/vF4O6UBiBImx7whyW9vQL3kfXoCPgT+9WIyThTGMwnagMpSlIXD/D8+evZhjS8Wtg1ny1SeH9LTdcuKzjyfXrScIIBlUy4OjdJw/e/zzs6vZ+sFa4wEKJkoLXjg60m5dy3vyAuAv8Cfgfe9uUWrJXZ4eTcIxjsNvnf4AsdgifaY6jNrms2VTUHK/q1dHx8RaKxGllU3Z1Hx5cfXy+fMvzpZAWiewYJ2kmeEZtd32L2jlvXkB/hW/l/udZXAJNdupyDG29cBxDnXfI5ONxecW7XocN8vL3fXZxYO+1wc8Dtk6dOpnTx4/vzrf9eYJQNdiqTU8mhL5ltXKb86b9lnfjG/sG1FGuog7Z6hqypauFcjwQJqtU2wxjjxsNeTho2nz4F4Zii3tcLCvnnz6RV+HqcLX2YRgxutygdvdgv4L79cLgCkSzqbhSp0H7+I5DgClWSibURkomnIfToe9j0fHpyfHR5nmfn1+/sXVoSurA5QB7sRAJITovVr5DXgBgIm6mA8wKhbqPsSaZo0ckVFOpM0WrtsxLLKOkLF7JLVdu8pKESlARhAnAkQgv72D7a/gPa4v/8kBkIR7DmuC+bKmcgsDNDKPmrS4ZtdAHpbDktQTzuJRkszHhDsxeVMCCd68q/Xm3N7/xl+PJUIEYEaAZK1pZSLOpIxmCWN1eHC2SEMmwSwgwRoMIBxE7EC/9TPc/8Rv5Hf0S4Y1xpm6RigFMTEls3BQGhgE4nBPzggP0QxKRqoRPHGzio2b8Zv18gtqEKdBmIBIoBBzrsMp17Ea+XquanKCko1u/gJ/M/5vvPySNdsSUiXDkxPEBCYHILl0vFHG5x133HHHHXfccccdd9xxxx133HHHHXfcccf/R/4D3SkeX+nixF4AAAAASUVORK5CYII=;" vertex="1" parent="1">
          <mxGeometry x="520" y="520" width="91.72" height="120" as="geometry" />
        </mxCell>
        <mxCell id="3ASoaDRJVkE-flD1x3Yw-13" value="" style="shape=image;verticalLabelPosition=bottom;labelBackgroundColor=#ffffff;verticalAlign=top;aspect=fixed;imageAspect=0;image=data:image/png,iVBORw0KGgoAAAANSUhEUgAAAPkAAAD7CAAAAACN7G1HAAAAB3RJTUUH5QgPDgEps3n/IQAAIABJREFUeJzsvTuPZUuSpbeWmbnvfc6JV2bem7erq6pryG72Y4QRCALEAAQBYoQBqVCiQI1/khT4KygMCAw4aHZ3TXdV3bqPfETEOXu7my0KUSSGWkY+qpVrYgon1wdzdzO3bW4B/GQ/2U/2k/1kP9lP9pP9ZD/ZT/aT/WQ/2U/2k/1kP9lP9pP9ZJ/b+M8t4P+zl+Pu5V7+fjv8/R/l//vjk992+x1uag2e/sP/8uft+7/9d9+aLXf2fltbtrbt42FY4f5L6/ijkr+SLdrn7qt5oPvb8S//+vv/47vrF5GtHkeVB63j4XFkFd9/WTF/PPJFiJpoxz5pZXnBTXs8vn7/63G8im1aZrbbg1v6ovPjuwsqz19Szx+J/Govoiwi5IfDMi6qy1lLwC8XM789HNdxidMtZdvZms0395e3Z4uHLyfpj0MeViK5er8y0VY9XPZd0swO0L7+5aEtKTPsGyrHwEHj/O2Pcl9++6U0+Zf64f/Uvg6ESxTWY1sXqPZ927aB1nb0Ov3Fq0lN7Ze9tF9kNBJY1+2d2vXVF/J7fJmf/U/tr18d6ru3td3PMkdEova0wzL3CxfMU11/XSP2EWltzPPF3TvNGDxfclPe2o9fQtaXJ//XX7PMxqXZBi92R+67d0fu3+4SDXDUnIl07ueNfMzTTcB2HX72+DihsdgXOOu+9GqP//JXlUOrtnBEvzqF2eVxuVmb2aHNIXM7nkDTTGnu007HTvYQMac1jlGVCOhzK/vC5P3mL/t7WHV/3DxaPxy8L9u8uV2byhduBd2+xm5Uoem82/Uh1pUWNZD7+TK2GQuq3f7Fv/rbzyvti672hf6nfYNymvd3sVjFYr76TZi02GbXZ2l5/eoyysIq92mn1aoKUCq3QVvbjG5sdy/1b/x//5zivqDP/9v+drv71bKTgrkuo3dfDxj05RhzmKUvufPlzw/pHBIMcQhUZhVEjnvevrq9fXGzng7t2Icd/uxzuv2L+fzf+Ho4/8fTCbRZDh37Q1xtmRaaBpnn8IbTZVuxme1M0WTKokiDkNPiuKpMlykPRsD/bfyvn03gF/L5//gLl9/tP95+pclRkLfL+fo6RwvmJIaial1pl3HzkgmZMuEuWkqz6Nh2HFYKIMH1KB7Mavub/+tzSbTP9UP/P/ufMFSXvOvvajHTyFFxfd1j7QCEvKTZ4cXVcrq7qtldBAjHuFz2MYc8woyp1sxXp8kXpBhm3P67z6XxS5C//G98N2Nu622NHrlvY16GHZZoUQUwLxMTweShvd+MZpoWYSrUnJkwA9Y1OBMzUTKfhTFnYW7/9WdS+QVW+8urV22whujjclz3UaKRiNUEUZmuOcYYMjtevm1f1x4qmAmVIZmShHUikKwUo2OkcowJsH7xHz+LzM9Pvh6WQw89DjcvLQuoKTO4udHIKgFjmHPx6fu3y8/adFiYUqJZCWVE0PtCJVwVlkVkVbnb4n/zHz6Hzs9N/ot+vLtxixwAuFwdOWoOKBm1zzFYQzUlHg9Lm/I3vzm8VvqQlUqhlBmRqWRYyowRjst5WCOYRjWOf/XvP4PSzxzV/mL5kx4Gh1xjsgfHJjhszB1DkJsACv3YR8Eu7+2gIXDupDtrt86SBGy7ADMmUiW5jXRWaLbx8D/8b58u9fP6/K9f3h1CdBupKVbVzBxpAGtWVUIyFcqOHQP2/je/3V++dKGU6p7JxiqaBWumgErlNpPuVglqGofCePXp1/bP6vNfXl0j0UGSWV6jrApGy2Gucqb5SMBtXesy9v3Hd6Nrj6wsSO4F52ZeszldT1ksjAVZTTQpHw8uaV7u3nyq2M8Z1X759dedrVUBlaMkY2Va4xThzCRKTreCaXLl0GMe1iIqGT6nNacvVogcMnOjCLrXZA8PG7PxwqZ9K7z6VLWf0+en14ezIILbDroqPK055wxqgOaaSTrSrNL85nT9/u3WIjQA60aMLIvcl2VOgxmSBmAUo1JWVWzU3BKMT3bZZ9zn3/zsq/2iaZiVxTINAD1yN4oCScLMTVXuMkC2Pr73n/diEWxIIRNhHiaau09ENI705qaZMsPie869LvPwy28/Te7nW+3dTjgXKrcx5tNvF1i0GgVZa4aqHGwuC9LCFW1rx6ORDl84sxitee9U715jmpmTFl57WW9msdgYQ9rzcHfziXnsZyPvlUuIuQ+aipCKzVHygFTSFAEYpmJp0Q2xruNefdDKHBBag8zNHTmt9XU9rI6yQ1PKLRpFI9vSevndq+v+33+S4M+2z/vlvBnkLCBYBUlIuNgw9IezSkDCmilB7MGt6rKfVI2bjAA9qxt9zkz1JkeNGSsfVJFJZ8UyyGqnF56WnyT4c+3zV0XMl1HMAmCqMJmB7syJ5vJGGFJhxoJVeJL7/f28vS1EjqKhzLjGyAhDiRJpoeG9BkMyMzPAkP2uTbD+6lPS2M9E/udxEfd266PcRatiKZz0bvsOgzcVgOJiIj0ksLvqh/Hy6xIzrByi2lplkHm0EA1ig4XgAIUIVbSQ99RhxfzLT0D/TOS/rKVVPWKFSEKgYGxhkGrSYEYIjQorb43FYLSqh/nLlztZweGEt5U7AnCLbga4kxY0zYomGWYaZTCnHzSXX/zfHy358+zzfz3oYr7/oe68CqWmCxIBWlHwNbc6sJAlroMBkSgljndcxcYcU1wyAbUSaSC8ZYbNXYKtmfCiEpHTwgSn5jji5t3Hav48Pv9znta+XL1sOxt3uoyioqXclHDnpM/yQgTgSjfJ2uRhmy/XNEqD3Vl0ASXArcxopqraz9H0FChJCg4amyEnSt/9s5L/W4/QYcVyXFGzYOYCzZ1m2AcNotUUSCNglYLUYze+56u2z6QhXInesljeXU/nIzPpc3grGU0ploUXglXTMHD3J7/+ZyT/r15Ny4tMU9QskNG5DRF0y4ToBAHIKPfmKpihxlj1Nm5LQW90N9IkN3ko3TUNU5gG9c6kGaEqwcJQQJVUtXz1jx+n+jPs84NJ8FCWhDnMmtPmXqsDnBtaQaLQNNJR6RHK6WSyRh1893WjCCGAIuWY7HR4zGFeheZA0CRqFmctPtli7HCrePGRsj+Dz+N4G8mcY849aa0REdveughCTxEOAgmjHAiDuRPd6uF8/QKhMqoxowWr5N57tG7uKBkltkq6PMYZ4RijSnnZkgRhX31cXe7TfW75Zj9O8zGLAlFGRWBZR4WjnKkiS16ymuGCpxpTblZCUPAdAXN4xExEa0xbbK9CmyLkrbJ2j8sbP8xpKjONIasGWV8/Tvcn+7w1bH6ANTcwwiiJTZuaENgnJZdMZRSyuo/oqVaPuQLr5f72ePFWhGAthMp+WDw8TKVC2KhiWKbAy2/fXl/t4oTVLHcJMHqNj4psn0x+FT7eL8duQlUVu+3ZokqVlSpBdBXEktHdkYynWL5mrQ/3d9cKQANLhKdgywHVe+ZTMZKa5ExRlaNicTmnaQIyc4Dl9eND/TOQ31ounsONBsxiGTPd4Kwsmi2taFCaww+Oos1yhwqtF3iPu7Uqg7MdwzDVDs1p3ba9Co3slobLJSvFfndV1THLHdHAMBl34s37jyH/xH1+4PC70/28BBaay7Uvx11shTJz8wbsUzQKVplABbIM8hiXeNyvliSXNnxh+IX0MDNApooGekg73KlJR8U6lUImW9tyaLSWWwP4EX0Fn0huj4df3uWqZKZHpZS5tD2blYPuOb3XBWyYxRKt1LzKJYvxqKlTZBPA3gaMzd1bcBYjqrU014QpvNu2mdc03ydcImnDXNorNNH2Pzb5lcaf/Koeeu2qSXNWGNPjsY5eCn94wxcnI1PulJlos1BGqjzHpU5HzoNGmqNFyt0jAllMhsWaZW4NlxmxunAZDXAkwz1T5hTgWdD18xsmP4388Nhe+Nl9b9OwBcpM2q7afllbiaUVNYqkCmTESBWEaYcobQ/Z3E1ptpgiNMwsWvfyOcu8hU/1bkkKWaoc2TQtmEnKzaqKqqL4EaWlTyK/1lhPY3h5VAFGqzRZ2enh91enUvUT9zH1dElBus3JEFnTWlS2EK3KW5fCyoI91gPODVKZG5eCRSqqqkCPSgRApmRMuY+ZKLNar5+dznwSuZ33u3WQw1xKA2JLme3zmD+cZ29+KQBuKdBYGhLNUcGqCNjBlE4Ps0nLhLfF26Id0bkJwFI7j34Biia6cnhTFlwjkDI9BVJ4f774T4lqVzH01dezLMEiVCJgaSx3YqhRKiE6YRIHOoqo6a2tQX///tDirlejh/WeorcW4W5KBMRCuHmP4tLd6M3mEPcJc4Iy08y5Z3v//pvb9+3yTPWf4vOwbNd5gZszqjTNYLSiDa1dTuuzKpClLLABFqg0k6xKABczODKcbt2zGEsPdcJQczqtRUwdnBDGPkUiE7CQcrNACqPFZq+Ov3u++k8hB45HpZVplBlgRSQ1o8otbE6WmdeQBPoyi4GJZtM1zcX1MDaZ+el4qVjqgmXxFpLZZXhMY9IpdJt0WA6ufhlOYqrlhtVVJdfYttqefcZ9AvnB5NdXDDfMGQBNEwSNPp86+QA2ZArDvJkCBamtJQCu0U5tOrIdr32IQLeDzfMSHqxqvk8gQbMAq/bqBt+FMelZAQcET+g8Y1xm++qZ1ZlPIe8PdrOOTgDuWU5lRpichhrlJFAacJk3T63YIDjDOHTQ6CuWo/blyqvNAYvFQdIcsq5ilZvkfdrI1DSvoVO731mAYDUZMTXHvL6+9Hxu9f3jv7HcLXislWjYi6wEagJlrJxJb07MIaIKcqsSnc4Mm4Usj5wRZW6HmzYyWl+Wlpfhy+o5p3rIGidUaFYRmTXm2NKidRbNls5M517aZQP9j7jaU2PcHJRMzWTQsuji0/cAkkUjEt5poyYglrekB1nuyPN+s06Ip3XOpgCMpeFK7ZUAPZu7rACVz8tQpZwz43AuR3KNKd/OyvuyGceqV9//kcjXq7k2jPlUQprmAuRuoqTaPUo0FM1mUTCjkw2M5ntCc2znXLjadT8bq4hCtNyizMtYtmwjPLPCeuZeEFAIKXxeDFu2tmh/2GLbfbk5jPcYz9P/0eSvbuMRAZUQKsApmQHlvm+OtEAO617KhMMMhrE0lJu1nMzDCz4cPI5tLwMJCCM3l+a6TpFZREoyz3p8LNKhMR1Z1gmrMth8GNhguy/FeOZG/+hM5qqf323HO0uZu+CWM2HmLTTkJBSegqCyxiJnSutJCpSNcuvXYYZ2xA4zqBgcA+bhMLPKnOYSyJrjfjOCmRjlNtRYye7Q/Q+le61Yln2z8O2PQX4DyjMOQHTBCTJT5gef+5TRjJQiVCmSykIL9IODKFMpIiBaWzoQrpJ77Wwo0gAnSjAy07BdLmlI0QL3jwhXlkVUnf/xTdN9/+alh97PxZ71uu9jVzsN4ef93KrYcooqmXto31uUoQIzYYZUC4BGsz7FyIKVxQS4vJ1H7AcCWWG5FwyDjrCZrKxKC5XF+bJPWWa4or09H44WKs7Mf/ptrh7z4bCYxdP3+Q+3j/X5VTB4Gb3PBz/NszlKZtZxRmvumGWGZikhNEEYEO2whoZ838OaBX/3w+2dR7FpumMmiFEmY2k8JnKiOWC4bD7OLUpzN9vPF3rtE/Wbv5sHc8ztslm3mvPxOQQf6/PQXG3Fu+zDj/sM0SVEO1fDhEXNaJvISrMc1lCs2XvIKi1EJWmHPY30fUalESlBnGkA9wFMhA1oWtDGd8uq6/Ux49DyHdZQ/v4f4WhtAuf7h68Tz2wa+lifn4afaPH4uJ3fo7tjJiO67nUVoIUxAhNhuyzCilZw4NhqR3cZZInDcW10ljlRM2EaSVqjckzN5PIUEccjYs7H7358HCVfl/Hju3r4x2/LE9enfbqNxzku16/62y9P/o3qeBxbzcI46+5QJV9Au2xxyEsWGisazHJK1pkEw0YdDizzWSYwxfRTN7MDAEwg8lJJp3GOLNJNIGBzlLV+Ws9vLrYcvB3Gb759e29tK7agt65z8XL4Rs+5sX0k+am3aONSesou1u5h8B7bObd3m1vuWywl5PRmmhMos2IYaJUwKdpIXLj+oQcMQ1U1cg71cMxSgm6g05yqZGu3L4/Rj0uon+6/N/ksR3mjbAnaeFQ+J4v7SPLlyHPYICBf9ne4PhiddfnhN28et+X6MH9z/6qfJwkZMauxhLIlEsgpOOksjEG2RXBkSVXaL2e70QMt90mb3mkOTSFOB6KdjselWPliedPnrgbr66p9H+uqcXn7rLD2kSfcqjP8fHagE779Ll8d2vz2fm6V2zc3rO39gQpPclrAPGaFoVKTq7HkvpumjXO/RkE15ZWwzETz73778mdGldI9QcBXq65+f5/RS2xbLD3mFlSNh9ML/XgZL+5sjmflrx9J/vKtbvFu723tNWTz+zcM8T7m6f3tN6dkqQWdc3JxikAgiy00rASaI4CDvv097wSiylhsOWe0VtHmHjEA5MNwYl2WJTnrmBurPCry3fmwL7ZD+/zu9HDBOF+/epjPesP5kav9b/5hvj6/CdPhEPMCq732mWuwrv/li9mWfMNXtrdOwbbJkjfCzUjMiiYDiBN+/WPrt9cBUyY9B+iaPN4dw2qDKbNUMleVs/rpFPBW2ew3v7Gx5MZuOR628pjFy8jbZxTjPs7n//Pfvruura1jv9/3c5pbkzCrnd79F798WCtvf/lu6wG3LM2iYRpDNc1YfkQBgVG7ro9zY+5ODvfzubUpFtaatCCVmMU+EDUnYRbu0Ls5H94k61Gn4KW1kVbGRxJ6znL/OPK//63scbfa5gDgmKRlEXi8ez325Zy3P1/nXEaCKqNFY6WK4XstvjFpMUZMHl5ecQuCxvSI4PCOR3Wb2TzpqC1tqWRoECqPHX17vE97hMVpHax9ohEx9rA/9Nt+mH3cam8/bOs65pxVAlSiUlHU9vpXOWJQWsZcOUAKTOsouZHhEGRN5B7x5v7m1e2xm6MYmgljTnfRaxtWZVZhZd0rPeSNOefMmRIvb3E89FhWTevTAc5mU8/4qPpxPn+4xDXFfEo0rABYixZbJQPysUVfh2LfsmYPGGAA85zXvZ5y+MLh4fftDlg9zThAZ9D9odh8zkKJDqeTtJJGWeYmtpmt6uX+/qy128FYPM3vH+PAAX/OFf3jfK799ua8I42zXV8vmOGIdrzr93m7FlBQWVTNMaeFd5eTUQlfTFDLwfL+7bdXxzxd0bzVuUxzJj26Vc3zaItr1BIDEZFp4ZgygqEh9fl99pdmy8GwHE4LzvtSu7F/+E7/KPJv3vSrcbZZyKtXV4tzV8apqzxUsbppVlrHNnOqG5i0USi4RY1SNDcd8HfvfnbCscUx9sfRTYY508JKyOWkYRhg2uoGmpmxmYzKVMb43X57Xb6umH2x66/qHWNDrw8n/8h47lV9lo3D1zeOXPTjWHob5zy8OjzYMWKm1Q6JDsFrDxaDVTm8tXnGUozvf5PLCSdm2n6mCUsEmGmGOp5wmavXNpalhlu3OcMxueyPMog3V2/Csa7c5+lQuP7L+XuzTc9Y7h9FPmHK2jXj9evVaiztMqfYcl59vaQ2wRzzrBIiRMBDMMPYLZceKtSw86+/e9nMl8UolbvOEwwoCRAb5AT2fblmpuzgqRJrKmx4d3vxI2HG3LG2iXzxF49ns+e0TnwU+WPTJtkYX//sYIUe/s2EednNz25F0bLZDNuLkEIpVus1qVFNl7JARf/hH4wVHezceTy/7WRgij5KwAir1Ki51VEWeQnSiH0CyVYj2yK5x+Vsq+eCfPn1rxOgffDp/jFfGta5zIpuePGr41YR3dpXdyaTn247vQfZIudUNJMohp7unN5s2y2Y+w69uUddsDTP7aKV51oXQ825w4nwmrk/nHm8jhz7NIrOnDSU9QLlDvcec0Ipw+ZfnwQ9oyL1MT5Pq2zYc/3ZDVQA6ae7c1FDZjRXTgQf0VnpnaqCQQbFqu3dzQo2Te83b7mVkLMthZXcFLFM7dVq3y55ijPqHW9smC5r6849laTl/pjN5N2pzFNPWiFxc/uQhQ9/4vExZ7vHxGHuy8srZ+NAOCwvcZiP7c6qcR9gXdRRgtmTH4osOJKQWT/U7NGilq8O5mxNmcEyh0CkoXB/PvJ92fv3ZUsHqElUw66oMbbB/ffvD4ut3D1gsqDZ9iYN+uCt/jHk9OzHGbdrdz41fLL7TCC1HhhWZTxfOod1wxgyN+ip77lobtMPY2dc3Q772Sk9oKpEtEChxphMrH29wv154xqxRtEkgiAxJgny4bfj1nGo3WSdDGHVDxvw4fv8I8iP8tmQNycGJwBIHtjPo/Hh3elu7r0Z9gG6CRLJklsVa9tKRmg55OjRr1gvb+CA0pbuKkQz8Km0rpmmMl9OPUIyt5xKIFnnS/HhO1zlXFCWfiA4FPnmUV/a5xBruWtszMz59HBFY6bv7+Zdm5zTaKjFaypnQGF0TNOYI4ttaTpHzOBbvljgkBnSXEUwTG6MYApsa1uvF8r8qRdjP0/U+ZLKd9/XSm9ATQuyJPDxfVLrh95aPuaEswLtep1S2dy8ehDr7Xw4N+nhh5ctdvou12gGTaFN0+iesIYcZZjTIvNsoYv59DGcKhkAiN2obU6ulT54WiuV1lC0rLlZz+l9vn/z0NIxTFWZUaCp3/hs8cHXtY8gLxZ7axGOxzHGwXI9MFsTdD+uD0NmZvX0D/BlTPcCE2NaIUKbtYyGKta7OVZfcs9sLd0XVwIh8jJZxVNOgPKQAV5jZBmRZfP9D9tae+xU6rTOgjPr+vTw4Yv9Y8jdRS7YY7HL5azV84Gr0bKGn08v5gBHkpNACT63efDKwZqwSrP5SFirqgz88OOig0ehEqacJgAltlTjBctapVhql4UwN2Eik3V+c1/YtJou2+0phqlYefP67fjwe+pHkJNGP/ZR9NYfU2GZFywaZxNaR8q8wIL73MN9oVmO3UzFyIuX5X7fvW0PN8fvf3ttyAfzTA9kWbDcFNinR5YqcvNQs33k5Xx56pJGjodH5D4fow9cHc7VZrn201d/f44vSN4CYj9wUgN9eZjWk7W1xK44ruXrKFMR1bwQmd1xPjMmWyYjYa3h4Z7Xje3F948PHXXxBtZAOAh4jbJ1AA3L3NyVxNhLNUvpKQzWhfa4xnZe8nSKOU1KbJfr23tT/8A65PPJ2VI8HtkHPX0d3lpZuPVF0KHv0fe5mtkujVFEFffLZt1FK0RmaAdND83sxd+sc6RTO6Nmya0QJgIsWTS/bEdd+rrvM8/nKUBPTzkeI0cdxpx+vWyw0Sxpudx9u39wEvd8cmfW1evT7FkxptFLKFfFse37ravGTj69yDw/HjBj2S+1ijYfm6Fkbczma8/9fI5LdW42RDCPxxxLmNMNktiYFy375lnO/XHfc4ZJpqzHC5N5mRrXP+vvCrnYVlbTCX65qOZzO35znbsDin59c8lRg8uIl98ljgyfcGYeMTGKqdo3UExNGAtwIwiLvm5x/s34Fy9qVuuYvuwKzOnBOVusxnHGsr3xF3jIH383r5YpOXZ42mHZWloScXs1B7KmG+jQM1r8n08ee16/7o+BVKHU20hEtIuu1rHdhsys0hsjM45Mb/sgXTlBi2SLWZYUbfar/f3Dod1g5IN8au+nvQhUumaZZnBOX+zx/s2v31y1lrt6GyL85vCwzoLQXq/3Ozyy3DK7g9AHjh15PrkQV6cqplzQlt1LVoxc7t60a14w4bCohOiYXjkZNrlYQpSzws1zi7exvnmb3939PDfcQxt6bXIzlUq5IcDxQN9//fvt/p/mldUEk3xqPKSXksu/+LpGWnDSZjpIln9gQerZ5Cfsy422YgJpdE5QBcashS+vjHWZS5iB8JpwPA6EQx5ypugxc1QTndzfxPHy7vKY3/CtiG1b1tZmVY1illOjlvnDP/x+Ob6+fb2kqGyeFWs6IfT15k/7m7O7JbW3JkWA/MC49nyf17w9YpPJTGmcCAMDiZGnF2tadGV5yZyAtXzksTYPy0mD4RJFbz4vtly35Prw4zbfnJi+5CO6xRokagCpgJRmt8G23nSglSEdNYf1i++8Wk7tcuFimmB2TSwG4EuRa2JZqpDlqmpmwlPzZ1jZ2jBneBZ9wPMylkojKmUkU7Q2LtbDGEyPdnN+uX33/a/m2+slcxs1GOfsa+0T4SXVVsfjV1fnffu+3RwGPHd39wmyys/tdn370BueGmRlRsg0bz+odeLZ5Db8wK36kOQwG2mGrHCLqK08pzhz8ZqYY8gY+7kvmd7ozD09LLjj1Ii5vNxu8+0//tWf/RD9cc4yTa/LEMtzD0hzaF5m0qovkaUNMfdmcd4RU+orM2XYa63McC5d+NCL6rPJa7t5aaNx5OqF1KwR0Svnsl63sUeRcyYdmLLEQnRjJqQIi1mKKF/FlIlX8bBc7ZevNLJ3jZLmchg7zWrblm7B8sv7w93+Dj3PbHNGq6L2abHoT14t++499r31XXDDeveuPvTS8uwKJHF7THhN2ZgFWxrOO121zyXO7/en98EQ3QxpTTN8VjuuQeQ+YIAZVWR42lFb7/vDVjPbwUFs93sQ2i6Zo2p/PGPtyEmrAeaobaPnXiZdXl4dbdfSa3uaQSJufH3Y9YEb/dmVCfefnyY0E1ASFB2TSti6XB6qLz4STgKpsTNktU9v0SgB3jzhTFpVNLQ29u3wJ/Fujtl9ZzTLRFY0QtKcAmU25nplCh+19CrNmt+9xTcvTtf5dm+xj2VVpcxh65t3JD4ojXv2as+7u9ioMsKdqCIcI9w51pfbW/WTVUAyUUINqsqompbFxawMVW773tql97TTNrernG7THFm+VGg8OtFiDphhTEaVzG0+zemR1eN93L08Xs3HBOauJTLllapYGueHBfRnr/bqPQCnB7NE6w0KS0GXh8PtD3//QLOqeppjl9aYbEprTnqP2uFmoqY4zzXfPUiudESVAAAgAElEQVSXh2rMue1gbZstEZ1jggZoO+/7eZIau5jqPsvD9W7efn066d1jnAJcbSBoRhtY/UNf7T3b582loresp5bzGaKVmPDsV8d3D3sF5nya/EI3dc9ws5o0M6aMbmhM20mM6ZM1csxCzeQS4SgSjWNmequn86JphtdkA1x6fHf65R1qr2gxk2E76S5Qsfr4wLHfz89kliCyyqNqJJ76uAsm0C548fjt1RqLNnNatcNaW9Q8rFLigDHMUwYqZy4NMTewlS6Pl8ZEwi0clSUwLCtNWzlqCnCb6cxZaz9/m7/4+Thfdg+rBGbz6YEZrbj4xez4Id1hzyXvy8nLbIwCZSxzE4VKz0HE63c//tPrheFDhvRuU7BwNtsLtJTh6XXlnN2b3z+kVW5ouzlBz5GNswyMKNnBtzanQuYdT3NpivH+785/9hrbltFANowqTLBESsYZ9kVOOK0HK8vBKlIsPk0/YxmGhd39/OF3y1cqFDl8GaPo3Xo09/MO+JKDlcWlGxl6PPPx/cPVL07nIlTmSUx17O7iIjhsnkmFS2RglK0//p/7X/9i3I+0qCmDWWUaReNIhZvbBx1xzyXn2jVrzEYzZJk/jZxGDdpELS+++afvbhuCUaAbewXLlmAaVKiS01Gic1adN6j2+933ztlMT28BJswnIo7nTa4FaIcQULLK/vbfb3/9n837xx1hczYmgJQZE5B49Fy/TFSz7nOYOUXMBI1FMN1FMDH7n877M13YKxErFtrY52N3NLFqTEvr2MqZqfH+vSdje7hpQYVmUWMW1j5zNYAlxmIyB4qAfN1/PP7Vn24/PNZiBfbue072gEmAayTB/KAj7rnkrVPhE2DEoj+8u1TRE55JDH9p2GxkGWm9Zpl11N5Qck8uUo2abi61+XZbHwOX81frxhxMOiRWKaLlo6ac4ZqpYFZrQj30//zm/n63CKW8ClVudFSFGTjHH2ZLfXZyM4godBcTjcQUiu6OOWm5067H/nCAYJ47iUo3mBu1EwhXzi0C+xIDuakGkMW5nbwYIPQ0ZabVebcyw5wCswCTkHu8bu/O8MgBGvc95DEHMMo6JEuSHzZ24pnkzEylGzJdwqRVRE5aOZNQwQ4vHsP3tJIoyZWzbGVrVQxOc1e0nMMjzym6ac5Y6rgVq0zmbuV6GNPg1DYjwsbFVlcBFbwMEyB6STBSQx3nrfUUoPu0qfiQsRPPJO+5m8pVUk2g5JQYziG3SmPK1wgWujaaagLMSkooiJUQOsq6z2odOhOuywbknk5IFpoQZQ2apJwXHL0BU2HiHNW4JypQgptIhI9KESjONxf/wKLMM8nb41m+Z9HCIgkBmiDNVDDKyXLPIqbo2iFRfc68XGAE114jG8sXnGuWUxry3KTsU0LOGh4ayUDlZO9eUyOsNrlDQ625yZIUA0R5FbfNj3PMMLs8lCU+aNLIc0+4kCIKAZQWzpzycGHSt1pAlRUDarkzuBfkMk+4D1AzdqMpCcyIqPvWBgAf25WGRwpCMakUdqupEKqsEi440/g0vt/AwKWaa4xZ1X0JKC8Xb8nDZXzY/fOZt9R1Oa7Nar/s1qKb/jDf0SQkDCx0TENYwjB2KgW3QmOiqRzT3KFQic23mRdfl9NhXWr8oaQVoWm953A3d0POmnI3Z7JxqHEOScZZUQkVKFtawQFk0fbLh1Vfn0nebm9zZ7M55l7NjT0SPoej6KKVtfJGoWZNkPp/bykSJHeaESBhyIiHbd+xtGU9XHewkh5BiG41JyAamRPGqgJpTsKZZaCzYJUerZtEJTHAp1dAH5bDPY/8a7y+1r7PWNdl/viGByMmAyDIApUFNMvClATX09jPOeSNoANGKQIj2Q54M3jO1g6H42FuItxVhDlmykK7YK1GsUCaQRJg2Ks7mVnenGJIotXYM1pv9PH+S+RwjAauc8uT+9V889uHu+vgyCJgMw1pVHeJqqqnGRPT2Ny8hgECzVBgWcA1pbv1vR9601nwMqtpJjShxNpm2NP8elk3KY0JA1wTxizHPokgCc3HzVs3wvb8wELc83x+NV+smqiZoB1u9PsfBnuTL2F002RwKAzMUQaghExWuksw2MI0lyl7z0u11biY/OomCqaSQQx3q1k293QrSBLdHLPgJveJjl3+1JNVdKWFKnc7njodFee3/KDPqc8jP15eXqPAzAnjejrE5ftHRDeZOwDkZLcpmxNOsKoUy1MCYN2LYa3RzG27v2x5Ooz359TNjd6//XGsTXQzq6TXnFgXJZoBFo0gJZoX4unvFpShzA0UsO+IZTGUudr44cMeYz+P/PrNerN6781QKYz28rqH1TYAgNY00KOKEmtmeau0CMgaVYKU8AgA+2NyPJ7L/f9p7816LEmS7MxzRFTN7F5fYsm1WEtzZrpB9PCF/Ol8JTAE+EQC8zgkhiBAVnVlZ2VmZMbmfhczVRU583CjyeYy0+6xFDBAnF/gn6vaNVNRkXPq8uVyeDk4gl5gJhKKrddrjxhgDHMog/ZuDMgzeOmOAwm59Ra+TKUgRwI8vn6YcdjjnvPUfduj0OnIAZl466Gscx8FxikCLasjglWZqFJuhqFisdW5JrInSr8/Okae8skuvRxem/fki+nZVckRGE1eZoQzQZh7JhXk5KOUMS6vCXT65foGxXzOy427io8HXqA/jjzmRUPIgBeuQWNEiTIVQMdtup22EJnNRYhFKNjSiESQJdfVzGMbTcjO4m0bu9pev4xn4zhNOh/q3o1O1MWlkqgAq5kzxmzdqGEyBFxGJ1RGg3mhAxo02jAfD2yaeBz52a6KQKT7pbacAZCMIYrGtFJsKAZmNfMkMCkyUgZCYA+003o/bq9FR9AmYEuew20ojnmu81R3hUpWdBXvrVJEAiBYMo29C0RlDMAMrjGhW6ExIqHtk6z5WCYTJFCdZKZcAWWBbJmmbMMQl1ETX3Y8DJMDUZzANtzUWlsH2V+vU5XiZq80m9ajl/Pgud083dexnnezO4LVg/MEQ4+ljigUjGyYRpeJrBBqsBCQhkxwlfbQkNHH7naPasjAxcXUQgAVQPowpFwa5jFQaprXGABoqADZFH20oNaj6Xi8qtQ4VcDs1J6QcwzgcDKbCtwzbbHuZtkBcVe3MxIGWkV2uLIwqYCyppIIuUJW7/oDJ5ge+QuHohiMYB1DvFwwmVNQV9VZ1WhpmU6UYqV6MRGHsxs06XDaWPO8uZR+rJXtMKv1lGk9i15Oh/2TZZk9w6zEaZt2ytrbXEeOKJZUgFKx6CLj4hs4Oguzp5mFxd3xgW1hjz2lVimR2fvQVCMdiRzIWhN5DBulZA6fFJcWr5lmbnWj915KxenA2CALQHeT0Q4ynDqGzlHqar/53e0Y05RZqgZnXqKonuZ3WgSSQ1M0KzEQZ/eUvCAZIMFWZlXd9+uHkT/yxPLsOf3S8lvmqZhPlCGN5oahxVnIgkzt8sc2nfK2omrYvNRavExXT6b7VZ7JIkP2ta1bwWFTAObN/pe/fo6ey0wJ4lwLi239efnjq4m+XL7gI5ADbsUiU5nwWtmHTTTk0r47P/BBf2w1apbgTpmjD1raZBHuGoBXG1YwlFlc6y8/x64aGTnIlspmhuunX/7hxZiigZpAjjLh/t44Riln/dVf822Eb1upMouGTM+V44+/f36NecoBj9UWjiRkoMxiFEK+75dekfLyrj7wt/2Ra379ZSbMQorR06UYupytkq6RZhiSdjhbf/Wm3JRzMxTrkWTIFNg9v0HrTjeEwidbX81CqWW3++q35ZDR3LOWnhyJjETc/fH3eH61uxorM+E7h3JA0VJBA3LkxRuxhPinn54+cM0fS/5VITNGSAB7Jzrc1Ak5A5MromRf6qnOh/uDPy02IROOQAz5gi6bb/cjvMjRR28HD2TR2P36V0sTmWUyAdq6Kyze/PDdq/LFHlf12En6zEYmAhzIrGRmIdRtKUyt35+ePdBg5JG7vasMiCUGBElRLFc65Lzcpzv7gNnsLzfbbX9bbmI/dxpSIHtUzxzYL/vD4VzmFgyWIKY2XT/Z4wQUlqKwnlgzbWvHn17Kl2tPz3SkxTAFYMLFz7rJ3VMoJbTo/oe3u4eu5SPXfPryOiDaiGCyOmnMuNTTWRkQEOJu9/ZnK+VmevPTW7ORGVbcYQXvDpeqM8ukTKrIlqHbb/ZuQFHYYqmtm7n31z+8PNfb3fyEcYMVmRlWgC7SxqAhxUzCZdOY66vvf17/+f/1QJRHrvnWCJHRMUEaXl3hIRFBJErJsNrHoN7unnLB8XyzrTvPWgctWCKL3McIX1ytIeoIWMpndMEsAG5WxmBK4+2rbb41jJv5XCYoYQjkACOcpGiigkFPQ7Gf/7D2m7/6N5+G/HxI6yBgnrLqJrFajBAs0owlA4WpubX1KvqGs93u1UfKrY6VVzplbKN6FJ7O6UiwnrUvMo15ZK2MoFVh29oKK4uv5uv5mXVlEArPYKpr2mWG+Tp2kXACL3/0501/fCjKY6vOd82SiQpyKpbJSaRNYxVIRTfB0NLcx6kZfOLTL7EqfcEgw9yir82KI09HgWY2NbOdYM2qq8AsBt3CLGxX0c9tnjKq1qHkRIu/u8mjW/oSgDg0a/B5/eX0zYObnR9Lvq6TucLAGaRXxyWNZIrLXTYMiLQijprhfvv8az9iSjNJPmEYxqb9vm+H12szx/zN+ouw9rh2ovNqBEJl8aMto2X19dQXvT1+69GLV3cFHRHmLlsq4cDl5WE3V8dX8eRffyry890XVWkGi1Ne7xEykMlaR8uCJKOR5tVc7mW+/bKec3YCbVxSWSQFy9pb38hh8/QWYVgssJ3avqKHlsnhOWY0qMw5Tq/KLjagWCRk2LpXWrn8v5VcMmHzdncYdX4wyWPJ2/GJt6zWT8mrBQln5lCBIaUUmSJyBDW7z0+eYBS0tNKOMRX3nsNm5OG4RjgA71HTdEKVU/upq566T1LpnGIDZNJ5PN33MVuq5ABCpTo0criljHXRSEyZa5SHd/Y/thPwCrpECUW52WlLjLVLULZBDEwGc+RUf/nRdtP10y/2kRqjn4/393KWGs1ryPN4d9cJKJc4JALVkeD1LmEZF6N7WaZlTy8tv352XAtUGKi5oloiWx8JSemGymHl9OJw8/DsrUf/wq13v/7CkrVaP6YZIukV0tAl0poAUrLFJuyezq0VbLke3aqDyBHF66DVCJhCpkYPi/Q5x/AStAX3K/Y+tVams6mx+JNnTAqmSFNeGhBNSfU6t4he3ByITbuHkzy6K4ztdd2JGSawyMplQgWUZNlKSRh6Tlc2YzdlzxB8ytk6HeoblDWaLhmgWnJ3u53XDecxqS1zGcN8mtqZE6sbe0Mn/WYecbmqRGzygktF1j2CQh+XhHiLfMQWfjT5zrc/7Ys795PCJjOOjKQFywgDqSxl2+Yl9rMPM0g+33TkSGE75rXbxBF1cRZpu3m+eAdoy7xyV4SMZtexvr1eMm2+fh0TwaVsTcUSiYAxAM8hAEKOhBqqmU7r9PAfuMeTX0ecPKebqWi1eQdZacphgBJFUazRFPvnb2mmQSTy7IAvtrbBUg2s1qanx7uS9tVTGzuMw5PDN+U1r61lQabqWSOjjav9ugG4eVZWmJVoVjQEA1iolAyAahVErm/780eEZD+afH7DZX9TqzZflhpEZgSsjpF0XopTZYTt0yUILkW3ihBOfbpOJTfzrderw1bKqZqPX/Sk//qrF+vTHaVQNWWNlvOCrMvkxOxrmywiVQqYMoRYMdLQae50C87bXXnyiKDoR5P/p6elDE7IgV1VR20taY5ikbmVirBIReyMLWAacjOxj9U6QXQ32eInINkX/RCOaWq/+ba9HiWz+JbZVX1WtNk0fB5UQaRL4ISRMBiQ2Yun3FNTSVkYXt3f3j4C5PF9r1NMedxKGc7VPIbgpsi5ZN+oS2Yo+lbL2hUg3QiJkAoyKhiATedT14Q+YPXann1b7r+/3+2pIaMkiXVsvMnO0sxrlUs00WhK5bA6Ek4FTIQxObdf4vlj3tGPJ3+xL7VbnnJxXaKBjAzQqR4jC+GW2TzWKNFtcYOZzZHCCBMZbM12bwes/+W81WWarb1+8dKfXTEGrZGQSV6rehTCqreVFQOmNIhsAfolRDnCPY0yvnl78+W//aTk0KpE9JGqae7FnDYOsVO6GwSJlhFkptKyLw4hqWFmJdJA+jxBwPRkz7m1rbUIf/IkmzvBlNIKSQ4tTJWr2joLkUVJxBAd3SxkNo2NJWW56MXxL64eg/Ee5DeHaTode1n6UvbTcmlJLbEiYRYs6MkSZ6TBl0KMFCS3AQed0Cgeusm35/qHnc8K5Dy2elvg70aNUwBGWDGCtix9ONOQg/S0Msgcsyk4otgIp4r/9Kf5V49KX3oPh43jlDds5ebpfrraFzpzKFH90oYmFkbLQjnCilWKppS8mkhlMmUKqp/7FqXWyTKOp+svpnkeokgBl+Er0uKce+9hIc/h5lSSgETCkSgWUSvL4f9+9b9++68eg/E+DhtXb/p0s9vPO5USrZnR0Eq9tOSr91oTpWYMARkYl8z3dF4iM+HkZD3n3RGHu+mbenevcvVsB7WBSx9fFks5xRpZFHDSJCMVyQR0iSfkbJin3sZu/M0Pz3/3KEPr93JV+cevsKuzW2XkMIcxIw2pCJkDTiogkQ65S33L4sigEcUuQ13jHr5FoV6+wbzZk70LLD6GwEyrSDJprc81MlSYdpnNApQCksiEE15zbL/8vv+TL/7lJyf/+ctWajGrBkUSii5zDCgu1gJAJovD2FcWmkfvcblyFikyxjieiC1gUMHp2ddXrkvzCzPdeHFPRK3RnEl3xmVqKRUqXphCyiYnAju+/pu73/318T8/iuK9XNK+/sNxQs99ibAIk5xoKbdLUKZIUyYgTBWbJi/MjVM2zkZaxhjtCB8siSxL/Xqxs3ZP5txkLAYhSbCwGioG3gVKm13u0QuClUCWijCWaX19f/s7f2Ri7Hu5Ib54fj8vW6sLWdwJNypljLRLR1z1HGGIiz2iZ9QpIpNzEThGlt1ut0y91dqX59O8AOwRAdBYPNJgzCGn3CEwExAxgvZ3FW73ohRnxdz++KP9xW9f/Z+Pg3g/N8Tfvrmra60EwphIQGZMXM7O6MmL3RHR0kyBCKuUFSDFSUAxH9fruSc8xsbr6wytfb8gNFQZdARM0IhizJDkUBKiotJseLWEKxd9/1P58tfzz49keD/yZ7en8+n5Dg0piaDCLUYiQYN7CqkkKCsCCkZIojrhDsuhjObLfoOPN17TyjRsidOISxhokqCXkpKMChkH3ZAFZ/fsVhFZS/Oysfz4N/H8m6f93z2S4f3Sh/7ljmuHQsUzQEdAgwSNRo5hlqMnq42EBMnqJRed5thOa5fxEl+/w+GocjP5YmlT1YiU0RxhzBZSwUgao1+iygJUBOS431yR3K/f3U3Xt1ePzKF5b+/Pr+8P05SglJdJW9cQDUTQPYzOyDSlLNNE0msgcxRlOiOSRNmNmhu8zNdVYJiRjoGdRyQH5lr6linDYARDXpW1ZDKbT/3tfre2Ym9+8WdfPY9/8ViE9/Ty/tM/feXXc0bACy6dyJeG3AQyjQSYLFYUNNbJ3/UwKgUrUNpUdHyzLtMhnt9OO2epSKhlKYhhVGSdmL3LimeCsFJoiEtQctK3w7RseXX8j8dvf/20fP/w0uM7vW/W1m+/6McVxoxgNePF64A5xAyakpAxoRWeoVQEBDOwuHze7We2lqC2WHaIDBG9qRYSEWkjl4VxHpa9bZg80gqiBQmSmJD29ru+m+7//Q/f/q6sLx714Qrg/bM5/sP/9vO4qjkyI1LmhiRFXk7igBelWVOJqIyUOzIFo1HwJPrxoGdP6rirXz/damWespLsLWtJRXqF2IcJhKl1LiaJTrIwrFj5+Xvhh9//8s1f5qH9+LicrQ8hx/9+f4BsruaUMp398sw7AAUuqw5O2ljSpoK2eqVfLp4DGvDdVYov+OV18xwSXbL0ytDIaWdBG0OgESGvxQzDl36mExVa2k/n43fnb/5yf4/44VF2/R9G/vt/cmjl6VWkUSQAmqQxAJJGM6fSoIKQVYRS1ZOUQYVQevXZWI6nX91mGaMU5AB98S7LrMUIgghRKcApY681WAQJufMDbXz5V0+24fcPvkH9r3r/fLWnz37xSpJJKN4NAheXQQ4FSkEPM5/PMZfeSoEiHWI0cCCL9Q3FitPLVI4dDkhqlhmqk5mFcsANIcuQCN/54E6jRBqC9RC7b663+1N7/R5///uT/x//7H4M+cVLQTIFKV5GakhCJANhPvVWvAAioUy7zOUWFirZz5goL22EX4IHM6Uy2TSPdQw5EqRSMLdQJCzdUEyh3PSbJ9vLF+dHpRR8ODn21/d3e4+hTPMIm3w0GECFWIAhWoZbtegE6cJlrnFC8t1wcW1zMZUctpcSJYeUNtGmBYot6OxppmSQl6ncZoUwZDsPPf2mvPr5bfqj4sXe6QMycr/7x3f9auHlipEjmC15GT6wTIJ0yilYsRQJXQoyhZJz5MR0ns7LF9YsVQkAyUJW+tMnGKYBmlsqkh5DkJl7nk8riqP/+GL3j54cf3qTemyQIIAPS4r9tf7mp2nRZqUP4bLdYZehCsUlOw4JkwozLGGURIQKRjAybbw93TJa8VhhZFZIVri7ydVwqXYIgoQIyRt83k2nY+8L737Br3/bXr9urO8Tef9B5Od/dP7Z/mLp8uiXsMiEm1JOYBTlCNlll3uRTBFkAZPYWCSDY4y+7nlkqZkEIZRS6jO8xdXaI6xkhowhFqbgavKr3eF84svj9RO++amRelwZ6p0+JBH6998+317i2psKOEGgT0UZeRlSNUF0A6wWuqUgwokMc6uWk+ecL/uy1DJOJy3lUnZ05s0Xx1+W6ZxUsUi/OEFJSMGdmX7dX749j/k2fnxJpx4TRvJf9EEp4C9+9dX55+VbrLRN7kiq0ShduldMViQEjZcWOrhEiqmCYL0kZe8Qdcbxbb91ERnBwtHKNLawyhxpNAnqw52bDCXGNF4N1Ft79Up64ADu/6APWXO83C/19Mpu2WkGAkYRmWmWAbPLzBzls0NSDLcEjcpMceZaefBns6nZvnQBbrrE1mBXj5u7KRJ8N2juBERXIfXLC3h9vv3+VMX3A/+wNcfrMv/q5+/0zMxCunh3CzCG3C5O1xfDIEdk8RV2yVmRYFi3dt1O856oFn69oB1U3axTsfDQ3JQpQhpZIBZTkmkwS7hN5XDfF4z3PXN9GPmPy1i+evXz9nQHGpmDkValCHeFSDhJqE02Sa7kpA2QMQOwK7s7Xy+tG6BiSR0OjbYvMpzu00aGjCPg1UAjESDZnaOr7/jmNHE8yF/gf6YP2u2Ao3PJt22aqIu9gy5FQliKRkAwhdVSHDDSJBqhyN5ze/XDOt16JkLUCOOpz0+eX9cSh+ECEYmATQXpnlaUdML56k8xKdtA8H1e5R+D/FyXrV8t26mXaiDgBYmL2YqZ4A4WSoQbAb77zyjl7vbmu9NuL/PJM3O047n15auvdnBrm6P3HoBoxZDpbCwKcxoOfzg+rccsMR5q9PnxyXGadejTMt6MfckugkIlDAlDJEU3ELJqUgYjLUamWCt2t+f2299OxkxBESnfP7nRKJOtA61limQGMq04tigpJ3n646ur5bwh8mGT5p+GHI22HpZnftimKcxFJ3A5wMlNUdhVnYaxtdbGSERcWuE791t+PZ3MmowIn6bdzR5tvrGtK4asuCVUqBQLTr1awHz77pfdfLdVjvff6h+DPFSYHVe789EmxruQd4VdnlMvkLlPnu3ce+9wYzEzq1NWvS1f5cncPUeylDI5cr4t60aEaF4K05wkWGzkUsJL/9P33B3P5sr3/XH7OOSIgG0HXV/dv7aFYIx3Mw6egIwCRhp7S3oxuUMSfcK59pe7Zz1LGNb02c0y5ft9rDFaUjCIokbQ3Fxyt9J/+N5u+jZz6w/1tP1U5ChK8rwuu/X+xImXThdAAMwFDTpNXdaPUSwjMgEr21gOb57dnq2KY1itbp6Yp5pb5paAQgkjCUaSFScufv7xhd1qq9xQP2jJPwZ5eMrztE3LuNPCNLz7AjGZJSBQQqDo7ettsgFra1hprD+dvp7XuaKfMRMSWapbtNGGEalSlGlmJijtfEJZX722q3ZPX3N5fOntY5MjLFE5Ni57bWKawV3vPkahhCRSwSnvNxOwdpusz+Wn8TX7hHYaV3MCRgDQ6H2jU8OsoHdzslTE+fVxe/umFe9vGzLqB4J/FHLkFFltrLnL+yyAozDgdOtxCRIE3TDKFU89s7GwYFvwA79FTOM+9nt1AzASQA+FTZBlwItRdKPj7c/HDLvm/TGpiPc6n/19fRRyREmh6BSWCnNSa9ZKagBJvavURNgytbPcioiYjn/a/TrafD6UK+/uZOtuRGTC1cKMTLiFzCLb3QF1ebrcvx6Gh/mm/H/rw77b/4v6pHa9vzsNz1Qu3vKmCEjD35Wlg7TRyo3/dIprKy61u9OtEdF9Zx0kt+YFg6Nx4pAbMjGcER0Dp/NcynW5ex18z2Ppf6ePRI4GrtNVOTWP7bzX2X2iW4ghIMWAVTqi3OKn1b2COp4LNuU6fEY6hWEzMkN+scgWIKKbEhDlxmV3/7drwcO8Q/4hfZzdDgAYd3ZrHaON2JpVF2JIl/ZPmEYWJ1PLPo+hyPX1MN9NkZkFMuZQLZGie6S8MgWJQshptq52tT9/fywf8sX69/URyeW9q1LVInP55mqMTF0OHAAoEHT2tr/KxHY4dllO1yYHJ8Kz06F0ZoAQI4mQGVhoZX09nl7f/e3Z36vO+j/TRySHsmPKcoPhqM+uFCBkjmYmWFGTsWBkWfb56p71tPZ6OzcUM5PUMF/OOWJBSsiEiRSmub84Pdu9+f5cHhw68g/qY5IDKCnWYmoAAAMaSURBVKMvUx/zLdo0I+RmtkWFjDRIPaprxLTcneq2ea67fcRMeNNOrVgag5d7WbcRbqEilvsf1ie7Nz80Hx/0wfrf6COTj2HYhurz69Np2l3sZ7tPQ1R4QY5RqTIw3R9wmgfGXNGsjlA6o1AlGwvAkMsqMdKZr77HV/z5ZXtU+u8/pI9MDqRWeI8nN9sRtWLbhIrLe80tYVVhyentWxIqOQ/l6qklNzeYmGGWkpzpJYOc9OJP5Sv98Drqx3rEAXwC8sujejrZlZ/v49KUC/HiAs3JDSNZ4uU5LVXDj14GAGu217CUkoShuKSEeymH1/XZ+rcHz4+54p+CHMhwbqfc7Xg8aimX3mTBmHQBWSe9+XkE4KQvX18vuxQxcyUTSDe3jIuRHKXjq5hOL9fHBHw/SJ+CHMicdD6Up/t+v3p1kk4BkUGTT7h/tQ4lacv0m6+7z1EK2cIJS9jFVQ5iocb68h7H1/mxuT8VORBR+mmzXWlnlGKXy3NIjmSe74+Ckbzy+nW5T8pzpBmSYkEmSPo8xfm0vj2MvuLjbnQAwMPTdB+tSZqur+oY037ngkKAQbTt1LbgADif/Te3J1RlptUcBJ2XuwqzON8dR/Y28oPqbf9v+oTkQIHXZZmqUKfiZKYx0N+o9lGRabUdnvzKuhAolRmgqMu7f6z3h3UohPgEWx2fmByoxlJnDvp8NUMpRu95tVsbM0qpultvvii9qU6WOUhZRWSM87qtI4eQj8k0f4w+MTmwY8hZwd0CU8cE7J/V1tvdtp+y+H27eeIhixWVSdkcpxbnw0BPZn7kV9nf0ycnB1BIN8CdZmWuKHvbOGfnlsu0tvB5Yp7P2O+i90at2xiZkPherT8P1J+DHCikMRK1QsVkaPbVt/Xwus82MEZhiOisDK09RgQNkY9JsH+8/jzkANwle2cjKEOfrqcxGp2ecCVgGpKIHgWpT7fL/05/NvKL7NIfSgQSZorLyLwBmQ4MoPr65/lT/szkf09VmSwTWQwYcdi/V5/PZ33WZ33WZ33WZ33WZ33WZ33WZ33WZ33WZ33W/x/0/wCoq4oQe7DftwAAAABJRU5ErkJggg==;" vertex="1" parent="1">
          <mxGeometry x="540" y="540" width="110" height="110.88" as="geometry" />
        </mxCell>
        <mxCell id="3ASoaDRJVkE-flD1x3Yw-14" value="&lt;font style=&quot;font-size: 18px&quot;&gt;Argumentation&lt;/font&gt;" style="rounded=1;whiteSpace=wrap;html=1;fillColor=none;" vertex="1" parent="1">
          <mxGeometry x="162.5" y="480" width="145" height="60" as="geometry" />
        </mxCell>
        <mxCell id="3ASoaDRJVkE-flD1x3Yw-15" value="&lt;font style=&quot;font-size: 18px&quot;&gt;Classifier 1&lt;/font&gt;" style="rounded=1;whiteSpace=wrap;html=1;fillColor=none;" vertex="1" parent="1">
          <mxGeometry x="40" y="590.88" width="110" height="39.12" as="geometry" />
        </mxCell>
        <mxCell id="3ASoaDRJVkE-flD1x3Yw-17" value="&lt;font style=&quot;font-size: 18px&quot;&gt;Classifier 2&lt;/font&gt;" style="rounded=1;whiteSpace=wrap;html=1;fillColor=none;" vertex="1" parent="1">
          <mxGeometry x="180" y="590.88" width="110" height="39.12" as="geometry" />
        </mxCell>
        <mxCell id="3ASoaDRJVkE-flD1x3Yw-18" value="&lt;font style=&quot;font-size: 18px&quot;&gt;Classifier 3&lt;/font&gt;" style="rounded=1;whiteSpace=wrap;html=1;fillColor=none;" vertex="1" parent="1">
          <mxGeometry x="330.83000000000004" y="590.88" width="110" height="39.12" as="geometry" />
        </mxCell>
        <mxCell id="3ASoaDRJVkE-flD1x3Yw-19" value="Ensemble Aggregation" style="rounded=1;whiteSpace=wrap;html=1;fontSize=18;fillColor=none;" vertex="1" parent="1">
          <mxGeometry x="165" y="690" width="140" height="60" as="geometry" />
        </mxCell>
        <mxCell id="3ASoaDRJVkE-flD1x3Yw-20" value="Classification" style="rounded=1;whiteSpace=wrap;html=1;fontSize=18;fillColor=none;" vertex="1" parent="1">
          <mxGeometry x="390" y="690" width="130" height="60" as="geometry" />
        </mxCell>
        <mxCell id="3ASoaDRJVkE-flD1x3Yw-21" value="&lt;font style=&quot;font-size: 16px&quot;&gt;Dataset&lt;/font&gt;" style="text;html=1;strokeColor=none;fillColor=none;align=center;verticalAlign=middle;whiteSpace=wrap;rounded=0;fontSize=18;" vertex="1" parent="1">
          <mxGeometry x="205.99999999999997" y="320" width="60" height="30" as="geometry" />
        </mxCell>
        <mxCell id="3ASoaDRJVkE-flD1x3Yw-22" value="&lt;font style=&quot;font-size: 16px&quot;&gt;Preprocessing&lt;/font&gt;" style="text;html=1;strokeColor=none;fillColor=none;align=center;verticalAlign=middle;whiteSpace=wrap;rounded=0;fontSize=18;" vertex="1" parent="1">
          <mxGeometry x="530" y="410" width="70" height="30" as="geometry" />
        </mxCell>
        <mxCell id="3ASoaDRJVkE-flD1x3Yw-23" value="&lt;font style=&quot;font-size: 16px&quot;&gt;Skull Strip&lt;/font&gt;" style="text;html=1;strokeColor=none;fillColor=none;align=center;verticalAlign=middle;whiteSpace=wrap;rounded=0;fontSize=18;" vertex="1" parent="1">
          <mxGeometry x="540" y="655.44" width="90" height="30" as="geometry" />
        </mxCell>
        <mxCell id="3ASoaDRJVkE-flD1x3Yw-25" value="" style="endArrow=classic;html=1;rounded=0;fontSize=16;entryX=-0.022;entryY=0.482;entryDx=0;entryDy=0;exitX=1.019;exitY=0.602;exitDx=0;exitDy=0;exitPerimeter=0;entryPerimeter=0;" edge="1" parent="1" source="3ASoaDRJVkE-flD1x3Yw-3" target="3ASoaDRJVkE-flD1x3Yw-30">
          <mxGeometry width="50" height="50" relative="1" as="geometry">
            <mxPoint x="380" y="630" as="sourcePoint" />
            <mxPoint x="470" y="270" as="targetPoint" />
          </mxGeometry>
        </mxCell>
        <mxCell id="3ASoaDRJVkE-flD1x3Yw-26" value="" style="endArrow=classic;html=1;rounded=0;fontSize=16;entryX=0.5;entryY=0;entryDx=0;entryDy=0;" edge="1" parent="1" target="3ASoaDRJVkE-flD1x3Yw-10">
          <mxGeometry width="50" height="50" relative="1" as="geometry">
            <mxPoint x="550" y="450" as="sourcePoint" />
            <mxPoint x="480" y="280" as="targetPoint" />
          </mxGeometry>
        </mxCell>
        <mxCell id="3ASoaDRJVkE-flD1x3Yw-27" value="" style="endArrow=classic;html=1;rounded=0;fontSize=16;exitX=0.5;exitY=1;exitDx=0;exitDy=0;entryX=0.5;entryY=0;entryDx=0;entryDy=0;" edge="1" parent="1" source="3ASoaDRJVkE-flD1x3Yw-5" target="3ASoaDRJVkE-flD1x3Yw-7">
          <mxGeometry width="50" height="50" relative="1" as="geometry">
            <mxPoint x="520.0046500000001" y="305.1" as="sourcePoint" />
            <mxPoint x="573.25" y="364.9" as="targetPoint" />
          </mxGeometry>
        </mxCell>
        <mxCell id="3ASoaDRJVkE-flD1x3Yw-28" value="" style="endArrow=classic;html=1;rounded=0;fontSize=16;exitX=0.5;exitY=1;exitDx=0;exitDy=0;entryX=0.5;entryY=0;entryDx=0;entryDy=0;" edge="1" parent="1">
          <mxGeometry width="50" height="50" relative="1" as="geometry">
            <mxPoint x="559.5" y="250" as="sourcePoint" />
            <mxPoint x="559.5" y="280" as="targetPoint" />
          </mxGeometry>
        </mxCell>
        <mxCell id="3ASoaDRJVkE-flD1x3Yw-29" value="" style="endArrow=classic;html=1;rounded=0;fontSize=16;exitX=0.5;exitY=1;exitDx=0;exitDy=0;entryX=0.5;entryY=0;entryDx=0;entryDy=0;" edge="1" parent="1">
          <mxGeometry width="50" height="50" relative="1" as="geometry">
            <mxPoint x="559.5" y="330" as="sourcePoint" />
            <mxPoint x="559.5" y="360" as="targetPoint" />
          </mxGeometry>
        </mxCell>
        <mxCell id="3ASoaDRJVkE-flD1x3Yw-30" value="" style="rounded=0;whiteSpace=wrap;html=1;fontSize=16;fillColor=none;" vertex="1" parent="1">
          <mxGeometry x="479.9" y="100" width="160.1" height="350" as="geometry" />
        </mxCell>
        <mxCell id="3ASoaDRJVkE-flD1x3Yw-32" value="" style="endArrow=classic;html=1;rounded=0;fontSize=16;entryX=1;entryY=0.5;entryDx=0;entryDy=0;exitX=-0.02;exitY=0.083;exitDx=0;exitDy=0;exitPerimeter=0;" edge="1" parent="1" source="3ASoaDRJVkE-flD1x3Yw-10" target="3ASoaDRJVkE-flD1x3Yw-14">
          <mxGeometry width="50" height="50" relative="1" as="geometry">
            <mxPoint x="400.05" y="485" as="sourcePoint" />
            <mxPoint x="400.00000000000006" y="535" as="targetPoint" />
          </mxGeometry>
        </mxCell>
        <mxCell id="3ASoaDRJVkE-flD1x3Yw-33" value="" style="endArrow=classic;html=1;rounded=0;fontSize=16;entryX=0.5;entryY=0;entryDx=0;entryDy=0;exitX=0.5;exitY=1;exitDx=0;exitDy=0;" edge="1" parent="1" source="3ASoaDRJVkE-flD1x3Yw-14" target="3ASoaDRJVkE-flD1x3Yw-17">
          <mxGeometry width="50" height="50" relative="1" as="geometry">
            <mxPoint x="508.00199999999995" y="520.2090000000001" as="sourcePoint" />
            <mxPoint x="317.5" y="520" as="targetPoint" />
          </mxGeometry>
        </mxCell>
        <mxCell id="3ASoaDRJVkE-flD1x3Yw-34" value="" style="endArrow=classic;html=1;rounded=0;fontSize=16;entryX=0.443;entryY=-0.038;entryDx=0;entryDy=0;entryPerimeter=0;" edge="1" parent="1" target="3ASoaDRJVkE-flD1x3Yw-18">
          <mxGeometry width="50" height="50" relative="1" as="geometry">
            <mxPoint x="380" y="560" as="sourcePoint" />
            <mxPoint x="430" y="490" as="targetPoint" />
          </mxGeometry>
        </mxCell>
        <mxCell id="3ASoaDRJVkE-flD1x3Yw-35" value="" style="endArrow=classic;html=1;rounded=0;fontSize=16;entryX=0.443;entryY=-0.038;entryDx=0;entryDy=0;entryPerimeter=0;" edge="1" parent="1">
          <mxGeometry width="50" height="50" relative="1" as="geometry">
            <mxPoint x="94.94" y="561.49" as="sourcePoint" />
            <mxPoint x="94.49999999999994" y="590.8834400000001" as="targetPoint" />
          </mxGeometry>
        </mxCell>
        <mxCell id="3ASoaDRJVkE-flD1x3Yw-36" value="" style="endArrow=none;html=1;rounded=0;fontSize=16;" edge="1" parent="1">
          <mxGeometry width="50" height="50" relative="1" as="geometry">
            <mxPoint x="381" y="560" as="sourcePoint" />
            <mxPoint x="94" y="560" as="targetPoint" />
          </mxGeometry>
        </mxCell>
        <mxCell id="3ASoaDRJVkE-flD1x3Yw-37" value="" style="endArrow=classic;html=1;rounded=0;fontSize=16;entryX=0.5;entryY=0;entryDx=0;entryDy=0;exitX=0.5;exitY=1;exitDx=0;exitDy=0;" edge="1" parent="1" source="3ASoaDRJVkE-flD1x3Yw-17" target="3ASoaDRJVkE-flD1x3Yw-19">
          <mxGeometry width="50" height="50" relative="1" as="geometry">
            <mxPoint x="380" y="540" as="sourcePoint" />
            <mxPoint x="430" y="490" as="targetPoint" />
          </mxGeometry>
        </mxCell>
        <mxCell id="3ASoaDRJVkE-flD1x3Yw-38" value="" style="endArrow=none;html=1;rounded=0;fontSize=16;" edge="1" parent="1">
          <mxGeometry width="50" height="50" relative="1" as="geometry">
            <mxPoint x="100" y="660" as="sourcePoint" />
            <mxPoint x="380" y="660" as="targetPoint" />
          </mxGeometry>
        </mxCell>
        <mxCell id="3ASoaDRJVkE-flD1x3Yw-39" value="" style="endArrow=none;html=1;rounded=0;fontSize=16;" edge="1" parent="1">
          <mxGeometry width="50" height="50" relative="1" as="geometry">
            <mxPoint x="100" y="660" as="sourcePoint" />
            <mxPoint x="100" y="630" as="targetPoint" />
          </mxGeometry>
        </mxCell>
        <mxCell id="3ASoaDRJVkE-flD1x3Yw-40" value="" style="endArrow=none;html=1;rounded=0;fontSize=16;entryX=0.443;entryY=1.087;entryDx=0;entryDy=0;entryPerimeter=0;" edge="1" parent="1" target="3ASoaDRJVkE-flD1x3Yw-18">
          <mxGeometry width="50" height="50" relative="1" as="geometry">
            <mxPoint x="380" y="660" as="sourcePoint" />
            <mxPoint x="110" y="640" as="targetPoint" />
          </mxGeometry>
        </mxCell>
        <mxCell id="3ASoaDRJVkE-flD1x3Yw-41" value="" style="endArrow=classic;html=1;rounded=0;fontSize=16;exitX=1;exitY=0.5;exitDx=0;exitDy=0;entryX=0;entryY=0.5;entryDx=0;entryDy=0;" edge="1" parent="1" source="3ASoaDRJVkE-flD1x3Yw-19" target="3ASoaDRJVkE-flD1x3Yw-20">
          <mxGeometry width="50" height="50" relative="1" as="geometry">
            <mxPoint x="380" y="540" as="sourcePoint" />
            <mxPoint x="430" y="490" as="targetPoint" />
          </mxGeometry>
        </mxCell>
      </root>
    </mxGraphModel>
  </diagram>
</mxfile>
